<?xml version="1.0" encoding="utf-8"?>
<!-- Generator: Adobe Illustrator 26.0.3, SVG Export Plug-In . SVG Version: 6.00 Build 0)  -->
<svg version="1.1" xmlns="http://www.w3.org/2000/svg" xmlns:xlink="http://www.w3.org/1999/xlink" x="0px" y="0px"
	 viewBox="0 0 595.28 841.89" style="enable-background:new 0 0 595.28 841.89;" xml:space="preserve">
<style type="text/css">
	.st0{display:none;}
	.st1{display:inline;fill:#49B79D;}
	.st2{display:inline;fill:#F6F6F6;}
	.st3{fill:#49B79D;}
	.st4{fill:#F6F6F6;}
	.st5{display:inline;fill:#FFFFFF;}
</style>
<g id="Calque_1" class="st0">
	<path class="st1" d="M191.37,412.3H39.2c-2.03,0-3.68-1.65-3.68-3.68V256.45c0-2.03,1.65-3.68,3.68-3.68h152.18
		c2.03,0,3.68,1.65,3.68,3.68v152.18C195.06,410.66,193.41,412.3,191.37,412.3z"/>
	<path class="st2" d="M115.29,388.17c-30.61,0-55.51-24.9-55.51-55.51s24.9-55.51,55.51-55.51s55.51,24.9,55.51,55.51
		S145.89,388.17,115.29,388.17z M115.29,282.05c-27.91,0-50.61,22.7-50.61,50.61c0,27.91,22.7,50.61,50.61,50.61
		c27.91,0,50.61-22.7,50.61-50.61C165.9,304.76,143.19,282.05,115.29,282.05z"/>
	<polygon class="st2" points="92.47,382.16 88,361.23 67.33,358.49 67.98,353.64 92.07,356.84 97.25,381.14 	"/>
	<polygon class="st2" points="138.11,382.13 133.32,381.16 138.18,357.23 162.27,354.34 162.86,359.2 142.27,361.67 	"/>
	<polygon class="st2" points="167.13,332.21 146.33,320.25 152.17,296.4 156.92,297.56 151.96,317.84 169.57,327.96 	"/>
	<polygon class="st2" points="115.34,299.23 95.89,284.68 98.82,280.76 115.24,293.04 130.9,280.53 133.96,284.36 	"/>
	<polygon class="st2" points="63.56,332.99 60.97,328.84 78.42,317.93 73.07,298.29 77.79,297 84.1,320.16 	"/>
	<path class="st2" d="M126.33,347.62h-22.09l-6.83-21.01l17.87-12.99l17.87,12.99L126.33,347.62z M107.8,342.73h14.98l4.63-14.25
		l-12.12-8.81l-12.12,8.81L107.8,342.73z"/>
</g>
<g id="Calque_5" class="st0">
	<path class="st1" d="M373.83,500.72H221.65c-2.03,0-3.68-1.65-3.68-3.68V344.86c0-2.03,1.65-3.68,3.68-3.68h152.18
		c2.03,0,3.68,1.65,3.68,3.68v152.18C377.51,499.07,375.86,500.72,373.83,500.72z"/>
	<path class="st2" d="M297.74,476.45c-30.61,0-55.51-24.9-55.51-55.51s24.9-55.51,55.51-55.51s55.51,24.9,55.51,55.51
		S328.34,476.45,297.74,476.45z M297.74,370.34c-27.91,0-50.61,22.7-50.61,50.61c0,27.91,22.7,50.61,50.61,50.61
		c27.91,0,50.61-22.7,50.61-50.61C348.35,393.04,325.65,370.34,297.74,370.34z"/>
	<path class="st2" d="M302.48,473.28l-4.89-0.02c0-0.2-0.17-19.85-16.33-36.01c-16.24-16.24-36.09-16.4-36-16.33l-0.02-4.89
		c1,0.02,21.83,0.11,39.48,17.76C302.37,451.45,302.48,472.4,302.48,473.28z"/>
	<path class="st2" d="M349.85,425.87c-1.29,0-21.97-0.29-39.45-17.76c-17.66-17.66-17.77-38.61-17.77-39.49l4.89,0.02
		c0,0.2,0.17,19.85,16.33,36.01c16.15,16.15,35.78,16.33,36,16.33c0,0,0,0,0,0l0.02,4.89C349.88,425.87,349.87,425.87,349.85,425.87
		z"/>
</g>
<g id="Calque_4">
	<path class="st3" d="M379.36,500.29H227.19c-2.03,0-3.68-1.65-3.68-3.68V344.43c0-2.03,1.65-3.68,3.68-3.68h152.18
		c2.03,0,3.68,1.65,3.68,3.68V496.6C383.04,498.64,381.4,500.29,379.36,500.29z"/>
	<g>
		<path class="st4" d="M331.5,471.2h-49.26v-23.95h49.26V471.2z M287.14,466.31h39.47v-14.16h-39.47V466.31z"/>
		<path class="st4" d="M329.05,452.14c-0.27,0-0.55-0.05-0.82-0.14c-1.27-0.45-1.94-1.85-1.49-3.12c0.1-0.27,9.7-27.59,9.7-42.61
			c0-14.86-3.83-28.94-31.59-31.39c-17.34-1.52-25.29,7.57-27.91,11.55c-3.8,5.78-4.5,12.45-1.83,17.41
			c2.55,4.72,7.94,7.32,15.19,7.32c10.47,0,15.24,5.48,15.24,10.58c0,3.42-2.06,6.69-5.66,8.97c-3.74,2.37-9,3.62-15.2,3.62
			c-1.35,0-2.45-1.09-2.45-2.45s1.1-2.45,2.45-2.45c6.67,0,10.52-1.56,12.59-2.87c2.15-1.36,3.39-3.12,3.39-4.83
			c0-2.82-3.55-5.68-10.35-5.68c-9.14,0-16.06-3.51-19.5-9.9c-3.53-6.55-2.74-15.14,2.05-22.42c6.46-9.82,18.59-14.95,32.42-13.73
			c31.96,2.82,36.06,20.86,36.06,36.26c0,15.86-9.57,43.09-9.98,44.24C331.01,451.52,330.06,452.14,329.05,452.14z"/>
		<path class="st4" d="M283.99,452.04c-0.78-0.23-19.19-5.89-18.77-20.71c0.19-6.79,2.47-12.03,6.77-15.56
			c7.94-6.52,19.78-4.6,20.28-4.52l-0.81,4.83c-0.1-0.02-10.18-1.61-16.38,3.49c-3.15,2.6-4.82,6.6-4.97,11.9
			c-0.31,11.06,15.13,15.84,15.28,15.89L283.99,452.04z"/>
		<path class="st4" d="M306.36,422.39c-2.29,0-3.84-0.24-4.02-0.27c-1.33-0.22-2.24-1.47-2.02-2.81c0.22-1.33,1.47-2.24,2.81-2.02
			c0.19,0.03,9.84,1.45,15.99-3.8c3.52-3.01,5.31-7.75,5.31-14.09c0-1.35,1.09-2.45,2.45-2.45c1.35,0,2.45,1.09,2.45,2.45
			c0,7.85-2.37,13.85-7.05,17.83C317.15,421.59,310.54,422.39,306.36,422.39z"/>
		<path class="st4" d="M305.58,470.83c-0.5-0.32-4.9-3.3-4.9-11.61c0-8.68,6.49-11.65,6.77-11.77l2.01,4.47
			c-0.16,0.07-3.88,1.9-3.88,7.3c0,5.57,2.54,7.41,2.65,7.49L305.58,470.83z"/>
	</g>
</g>
<g id="Calque_3" class="st0">
	<path class="st1" d="M366.66,523.4H214.48c-2.03,0-3.68-1.65-3.68-3.68V367.55c0-2.03,1.65-3.68,3.68-3.68h152.18
		c2.03,0,3.68,1.65,3.68,3.68v152.18C370.34,521.75,368.69,523.4,366.66,523.4z"/>
	<path class="st5" d="M330.41,488.98h-43.36c-1.85,0-3.58-0.72-4.89-2.02l-35.99-35.99c-1.91-1.91-1.91-5.02,0-6.94l47.21-47.31
		c1.73-1.74,4.54-1.73,6.27,0l17.75,17.74c1.73,1.73,1.73,4.54,0,6.27l-13.69,13.69c-3.34,3.34-3.92,8.53-1.38,12.33
		c1.35,2.02,3,3.8,4.91,5.3c2.43,1.91,5.61,2.96,8.96,2.96h5.14c8.08,0,14.65,6.57,14.65,14.65v13.75
		C335.98,486.48,333.48,488.98,330.41,488.98z M296.5,400.49l-46.88,47l35.99,35.99c0.38,0.38,0.89,0.59,1.43,0.59h43.36
		c0.37,0,0.68-0.3,0.68-0.68v-13.75c0-5.38-4.38-9.76-9.76-9.76h-5.14c-4.44,0-8.69-1.42-11.98-4.01c-2.31-1.81-4.31-3.98-5.95-6.43
		c-3.84-5.74-3-13.52,1.98-18.51l13.36-13.36L296.5,400.49z"/>
	<polygon class="st5" points="333.53,476.24 290.19,476.24 253.29,441.04 256.67,437.49 292.15,471.35 333.53,471.35 	"/>
	<path class="st5" d="M295.87,441.62l-14.26-4.05c-3.87-1.1-6.96-4.03-8.25-7.85l-2.5-7.4l4.64-1.57l2.5,7.4
		c0.77,2.29,2.62,4.05,4.95,4.71l14.26,4.05L295.87,441.62z"/>
	<path class="st5" d="M306.65,462.27c-0.31,0-0.62-0.06-0.92-0.18c-1.25-0.51-1.86-1.94-1.35-3.19l1.7-4.19
		c0.51-1.25,1.94-1.85,3.19-1.35c1.25,0.51,1.86,1.94,1.35,3.19l-1.7,4.19C308.54,461.7,307.62,462.27,306.65,462.27z"/>
	<path class="st5" d="M568.79,402.02c-1.35,0-2.45-1.09-2.45-2.45v-3.62c0-1.35,1.09-2.45,2.45-2.45s2.45,1.09,2.45,2.45v3.62
		C571.24,400.93,570.14,402.02,568.79,402.02z"/>
	<path class="st5" d="M251.36,469.78h-14.69c-0.68,0-1.22-0.55-1.22-1.22c0-0.68,0.55-1.22,1.22-1.22h14.69
		c0.68,0,1.22,0.55,1.22,1.22C252.58,469.23,252.04,469.78,251.36,469.78z"/>
	<path class="st5" d="M261.46,487.75h-14.69c-0.68,0-1.22-0.55-1.22-1.22c0-0.68,0.55-1.22,1.22-1.22h14.69
		c0.68,0,1.22,0.55,1.22,1.22C262.69,487.2,262.14,487.75,261.46,487.75z"/>
	<path class="st5" d="M251.36,479.17h-23.12c-0.68,0-1.22-0.55-1.22-1.22c0-0.68,0.55-1.22,1.22-1.22h23.12
		c0.68,0,1.22,0.55,1.22,1.22C252.58,478.62,252.04,479.17,251.36,479.17z"/>
</g>
<g id="Calque_2" class="st0">
	<path class="st1" d="M370.46,527.12H218.29c-2.03,0-3.68-1.65-3.68-3.68V371.26c0-2.03,1.65-3.68,3.68-3.68h152.18
		c2.03,0,3.68,1.65,3.68,3.68v152.18C374.14,525.47,372.49,527.12,370.46,527.12z"/>
	<path class="st2" d="M294.37,502.98c-30.61,0-55.51-24.9-55.51-55.51s24.9-55.51,55.51-55.51c30.61,0,55.51,24.9,55.51,55.51
		S324.98,502.98,294.37,502.98z M294.37,396.87c-27.91,0-50.61,22.7-50.61,50.61c0,27.91,22.7,50.61,50.61,50.61
		c27.91,0,50.61-22.7,50.61-50.61C344.99,419.57,322.28,396.87,294.37,396.87z"/>
	<rect x="291.93" y="394.42" class="st2" width="4.89" height="106.12"/>
	<rect x="241.31" y="445.03" class="st2" width="106.12" height="4.89"/>
	<path class="st2" d="M259.85,487.97l-3.45-3.47c0.14-0.14,13.91-14.16,13.91-37.02c0-22.95-13.77-36.86-13.91-37l3.44-3.48
		c0.63,0.62,15.36,15.5,15.36,40.48C275.21,472.45,260.48,487.34,259.85,487.97z"/>
	<path class="st2" d="M329.13,487.97c-0.63-0.62-15.36-15.5-15.36-40.48c0-24.97,14.73-39.87,15.36-40.49l3.45,3.47
		c-0.14,0.14-13.91,14.16-13.91,37.02c0,22.95,13.77,36.86,13.91,37L329.13,487.97z"/>
</g>
</svg>
