<?xml version="1.0" encoding="UTF-8"?><svg xmlns="http://www.w3.org/2000/svg" xmlns:xlink="http://www.w3.org/1999/xlink" height="244.2" preserveAspectRatio="xMidYMid meet" version="1.0" viewBox="104.9 81.8 233.5 244.2" width="233.5" zoomAndPan="magnify"><g><g id="change1_1"><path d="M 149.101562 197.199219 L 227.253906 270.90625 C 248.851562 271.25 270.511719 262.863281 286.503906 245.914062 C 334.78125 194.722656 312.523438 147.125 290.105469 125.980469 C 267.6875 104.839844 218.867188 85.398438 170.585938 136.589844 C 154.597656 153.542969 147.496094 175.65625 149.101562 197.199219" fill="#ee2739"/></g><path d="M 1491.015625 2280.007812 L 2272.539062 1542.9375 C 2488.515625 1539.5 2705.117188 1623.367188 2865.039062 1792.859375 C 3347.8125 2304.773438 3125.234375 2780.75 2901.054688 2992.195312 C 2676.875 3203.601562 2188.671875 3398.015625 1705.859375 2886.101562 C 1545.976562 2716.570312 1474.960938 2495.4375 1491.015625 2280.007812 Z M 1491.015625 2280.007812" fill="none" stroke="#280e0f" stroke-linecap="round" stroke-linejoin="round" stroke-miterlimit="10" stroke-width="60" transform="matrix(.1 0 0 -.1 0 425.2)"/><g id="change2_1"><path d="M 149.074219 197.625 L 227.253906 270.90625 C 227.253906 270.90625 199.808594 264.535156 191.660156 268.792969 C 185.265625 272.136719 151.453125 311.707031 144.949219 320.515625 C 140.921875 325.980469 104.933594 293.851562 110.53125 287.910156 C 116.132812 281.972656 153.203125 250.449219 156.074219 242.605469 C 156.074219 242.605469 162.691406 235.417969 149.074219 197.625" fill="#f89c35"/></g><path d="M 1490.742188 2275.75 L 2272.539062 1542.9375 C 2272.539062 1542.9375 1998.085938 1606.648438 1916.601562 1564.070312 C 1852.65625 1530.632812 1514.53125 1134.929688 1449.492188 1046.84375 C 1409.21875 992.195312 1049.335938 1313.484375 1105.3125 1372.898438 C 1161.328125 1432.273438 1532.03125 1747.507812 1560.742188 1825.945312 C 1560.742188 1825.945312 1626.914062 1897.820312 1490.742188 2275.75 Z M 1490.742188 2275.75" fill="none" stroke="#280e0f" stroke-linecap="round" stroke-linejoin="round" stroke-miterlimit="10" stroke-width="60" transform="matrix(.1 0 0 -.1 0 425.2)"/><g id="change3_1"><path d="M 259.828125 270.917969 C 259.828125 286.246094 247.398438 298.675781 232.066406 298.675781 C 216.738281 298.675781 204.3125 286.246094 204.3125 270.917969 C 204.3125 255.585938 216.738281 243.160156 232.066406 243.160156 C 247.398438 243.160156 259.828125 255.585938 259.828125 270.917969" fill="#fff"/></g><path d="M 2598.28125 1542.820312 C 2598.28125 1389.539062 2473.984375 1265.242188 2320.664062 1265.242188 C 2167.382812 1265.242188 2043.125 1389.539062 2043.125 1542.820312 C 2043.125 1696.140625 2167.382812 1820.398438 2320.664062 1820.398438 C 2473.984375 1820.398438 2598.28125 1696.140625 2598.28125 1542.820312 Z M 2598.28125 1542.820312" fill="none" stroke="#280e0f" stroke-miterlimit="10" stroke-width="60" transform="matrix(.1 0 0 -.1 0 425.2)"/><g id="change4_1"><path d="M 155.019531 266.128906 L 162.691406 273.914062 L 137.261719 302.335938 L 126.441406 291.753906 L 155.019531 266.128906" fill="#3a50aa"/></g><path d="M 1550.195312 1590.710938 L 1626.914062 1512.859375 L 1372.617188 1228.640625 L 1264.414062 1334.460938 Z M 1550.195312 1590.710938" fill="none" stroke="#280e0f" stroke-linecap="round" stroke-linejoin="round" stroke-miterlimit="10" stroke-width="60" transform="matrix(.1 0 0 -.1 0 425.2)"/></g></svg>