<?xml version="1.0" encoding="UTF-8"?><svg xmlns="http://www.w3.org/2000/svg" xmlns:xlink="http://www.w3.org/1999/xlink" height="211.9" preserveAspectRatio="xMidYMid meet" version="1.0" viewBox="103.8 106.6 217.8 211.9" width="217.8" zoomAndPan="magnify"><g><g id="change1_1"><path d="M 1936.992188 1986.726562 L 3149.179688 2688.445312 L 2960.117188 2688.445312 Z M 1936.992188 1986.726562" fill="#4a0d18" stroke="#280e0f" stroke-linecap="round" stroke-linejoin="round" stroke-miterlimit="10" stroke-width="60" transform="matrix(.1 0 0 -.1 0 425.2)"/></g><g id="change2_1"><path d="M 193.699219 226.527344 L 296.011719 156.355469 C 277.632812 128.222656 245.863281 109.628906 209.753906 109.628906 C 152.882812 109.628906 106.78125 155.730469 106.78125 212.601562 C 106.78125 269.46875 152.882812 315.570312 209.753906 315.570312 C 228.523438 315.570312 254.308594 312.8125 272.484375 309.203125 L 193.699219 226.527344" fill="#bf1b2c"/></g><path d="M 1936.992188 1986.726562 L 2960.117188 2688.445312 C 2776.328125 2969.773438 2458.632812 3155.710938 2097.539062 3155.710938 C 1528.828125 3155.710938 1067.8125 2694.695312 1067.8125 2125.984375 C 1067.8125 1557.3125 1528.828125 1096.296875 2097.539062 1096.296875 C 2285.234375 1096.296875 2543.085938 1123.875 2724.84375 1159.96875 Z M 1936.992188 1986.726562" fill="none" stroke="#280e0f" stroke-linecap="round" stroke-linejoin="round" stroke-miterlimit="10" stroke-width="60" transform="matrix(.1 0 0 -.1 0 425.2)"/><g id="change3_1"><path d="M 209.753906 109.628906 C 177.140625 109.628906 148.070312 124.792969 129.203125 148.453125 C 142.929688 155.097656 162.660156 144.640625 173.191406 140.957031 C 246.917969 115.167969 276.523438 169.707031 276.53125 169.71875 L 296.011719 156.355469 C 277.632812 128.222656 245.863281 109.628906 209.753906 109.628906" fill="#fff"/></g><path d="M 2097.539062 3155.710938 C 1771.40625 3155.710938 1480.703125 3004.070312 1292.03125 2767.46875 C 1429.296875 2701.023438 1626.601562 2805.59375 1731.914062 2842.429688 C 2469.179688 3100.320312 2765.234375 2554.929688 2765.3125 2554.8125 L 2960.117188 2688.445312 C 2776.328125 2969.773438 2458.632812 3155.710938 2097.539062 3155.710938 Z M 2097.539062 3155.710938" fill="none" stroke="#280e0f" stroke-linecap="round" stroke-linejoin="round" stroke-miterlimit="10" stroke-width="60" transform="matrix(.1 0 0 -.1 0 425.2)"/><g id="change3_2"><path d="M 292.136719 251.457031 L 310.039062 238.835938 C 310.039062 238.835938 310.039062 236.289062 306.078125 231.761719 L 242.859375 270.925781 L 252 279.761719 L 283.519531 258.679688 C 287.78125 261.9375 297.519531 272.476562 299.019531 290.679688 L 308.269531 283.429688 C 308.269531 283.429688 306.605469 262.183594 292.136719 251.457031" fill="#fff"/></g><path d="M 2921.367188 1737.429688 L 3100.390625 1863.640625 C 3100.390625 1863.640625 3100.390625 1889.109375 3060.78125 1934.382812 L 2428.59375 1542.742188 L 2520 1454.382812 L 2835.195312 1665.203125 C 2877.8125 1632.625 2975.195312 1527.234375 2990.195312 1345.203125 L 3082.695312 1417.703125 C 3082.695312 1417.703125 3066.054688 1630.164062 2921.367188 1737.429688 Z M 2921.367188 1737.429688" fill="none" stroke="#280e0f" stroke-linecap="round" stroke-linejoin="round" stroke-miterlimit="10" stroke-width="60" transform="matrix(.1 0 0 -.1 0 425.2)"/><g id="change3_3"><path d="M 205.015625 244.636719 C 205.015625 244.636719 268.878906 307.515625 272.484375 309.203125 C 275.558594 310.644531 302.1875 303.476562 318.171875 280.277344 C 319.5625 278.261719 314.742188 273.734375 313.007812 275.46875 C 307.066406 281.410156 285.714844 299.761719 275.03125 297.320312 C 272.15625 296.664062 212.089844 236.429688 212.089844 236.429688 L 205.015625 244.636719" fill="#fff"/></g><path d="M 2050.15625 1805.632812 C 2050.15625 1805.632812 2688.789062 1176.84375 2724.84375 1159.96875 C 2755.585938 1145.554688 3021.875 1217.234375 3181.71875 1449.226562 C 3195.625 1469.382812 3147.421875 1514.65625 3130.078125 1497.3125 C 3070.664062 1437.898438 2857.148438 1254.382812 2750.3125 1278.796875 C 2721.5625 1285.359375 2120.898438 1887.703125 2120.898438 1887.703125 Z M 2050.15625 1805.632812" fill="none" stroke="#280e0f" stroke-linecap="round" stroke-linejoin="round" stroke-miterlimit="10" stroke-width="60" transform="matrix(.1 0 0 -.1 0 425.2)"/><g id="change4_1"><path d="M 216.894531 229.21875 C 216.894531 242.105469 206.445312 252.554688 193.558594 252.554688 C 180.671875 252.554688 170.222656 242.105469 170.222656 229.21875 C 170.222656 216.328125 180.671875 205.878906 193.558594 205.878906 C 206.445312 205.878906 216.894531 216.328125 216.894531 229.21875" fill="#ee2739"/></g><path d="M 2168.945312 1959.8125 C 2168.945312 1830.945312 2064.453125 1726.453125 1935.585938 1726.453125 C 1806.71875 1726.453125 1702.226562 1830.945312 1702.226562 1959.8125 C 1702.226562 2088.71875 1806.71875 2193.210938 1935.585938 2193.210938 C 2064.453125 2193.210938 2168.945312 2088.71875 2168.945312 1959.8125 Z M 2168.945312 1959.8125" fill="none" stroke="#280e0f" stroke-linecap="round" stroke-linejoin="round" stroke-miterlimit="10" stroke-width="60" transform="matrix(.1 0 0 -.1 0 425.2)"/><g id="change1_2"><path d="M 206.578125 229.21875 C 206.578125 236.40625 200.75 242.238281 193.558594 242.238281 C 186.367188 242.238281 180.535156 236.40625 180.535156 229.21875 C 180.535156 222.023438 186.367188 216.195312 193.558594 216.195312 C 200.75 216.195312 206.578125 222.023438 206.578125 229.21875" fill="#4a0d18"/></g><path d="M 2065.78125 1959.8125 C 2065.78125 1887.9375 2007.5 1829.617188 1935.585938 1829.617188 C 1863.671875 1829.617188 1805.351562 1887.9375 1805.351562 1959.8125 C 1805.351562 2031.765625 1863.671875 2090.046875 1935.585938 2090.046875 C 2007.5 2090.046875 2065.78125 2031.765625 2065.78125 1959.8125 Z M 2065.78125 1959.8125" fill="none" stroke="#280e0f" stroke-linecap="round" stroke-linejoin="round" stroke-miterlimit="10" stroke-width="60" transform="matrix(.1 0 0 -.1 0 425.2)"/><g id="change1_3"><path d="M 208.683594 279.761719 C 208.683594 283.785156 205.417969 287.046875 201.394531 287.046875 C 197.371094 287.046875 194.109375 283.785156 194.109375 279.761719 C 194.109375 275.738281 197.371094 272.476562 201.394531 272.476562 C 205.417969 272.476562 208.683594 275.738281 208.683594 279.761719" fill="#4a0d18"/></g><path d="M 2086.835938 1454.382812 C 2086.835938 1414.148438 2054.179688 1381.53125 2013.945312 1381.53125 C 1973.710938 1381.53125 1941.09375 1414.148438 1941.09375 1454.382812 C 1941.09375 1494.617188 1973.710938 1527.234375 2013.945312 1527.234375 C 2054.179688 1527.234375 2086.835938 1494.617188 2086.835938 1454.382812 Z M 2086.835938 1454.382812" fill="none" stroke="#280e0f" stroke-linecap="round" stroke-linejoin="round" stroke-miterlimit="10" stroke-width="60" transform="matrix(.1 0 0 -.1 0 425.2)"/><g id="change3_4"><path d="M 131.464844 222.570312 C 141.078125 197.519531 128.734375 181.765625 110.640625 184.585938 C 108.128906 193.492188 106.78125 202.890625 106.78125 212.601562 C 106.78125 238.683594 116.480469 262.496094 132.46875 280.640625 C 128.566406 263.273438 125.175781 238.953125 131.464844 222.570312" fill="#fff"/></g><path d="M 1314.648438 2026.296875 C 1410.78125 2276.804688 1287.34375 2434.34375 1106.40625 2406.140625 C 1081.289062 2317.078125 1067.8125 2223.09375 1067.8125 2125.984375 C 1067.8125 1865.164062 1164.804688 1627.039062 1324.6875 1445.59375 C 1285.664062 1619.265625 1251.757812 1862.46875 1314.648438 2026.296875 Z M 1314.648438 2026.296875" fill="none" stroke="#280e0f" stroke-linecap="round" stroke-linejoin="round" stroke-miterlimit="10" stroke-width="60" transform="matrix(.1 0 0 -.1 0 425.2)"/></g></svg>