<?xml version="1.0" encoding="UTF-8"?><svg xmlns="http://www.w3.org/2000/svg" xmlns:xlink="http://www.w3.org/1999/xlink" height="401.0" preserveAspectRatio="xMidYMid meet" version="1.0" viewBox="-0.5 -0.3 467.5 401.0" width="467.5" zoomAndPan="magnify"><g id="change1_1"><path d="M267.05,400.54c-4.59,0-9.24-1.02-14.23-3.13c-5.19-2.19-10.3-4.78-15.25-7.28c-1.6-0.81-3.2-1.62-4.8-2.42 c-1.97-0.98-3.84-2.23-5.65-3.44c-0.53-0.36-1.07-0.71-1.6-1.06c-1.34-0.88-2.66-1.77-3.99-2.67c-2.02-1.37-4.11-2.79-6.22-4.1 c-1.66-1.03-3.27-2.18-4.82-3.3c-0.94-0.68-1.89-1.35-2.85-2.01c-4.44-3.03-9.17-5.76-13.73-8.39c-1.17-0.67-2.33-1.35-3.5-2.03 c-2.07-1.21-4.22-2.33-6.31-3.42c-2.34-1.22-4.75-2.48-7.04-3.86c-6.39-3.84-13.57-5.54-20.51-7.19l-0.68-0.16 c-4.71-1.12-8.68-1.92-12.51-2.51c-8.35-1.29-16.55-2.45-24.99-2.45c-1.02,0-2.04,0.02-3.07,0.05c-5.29,0.19-10.65,0.64-15.2,1.06 c-2.92,0.27-5.87,0.66-8.72,1.05c-2.81,0.38-5.71,0.77-8.58,1.03c-1.15,0.11-2.3,0.19-3.45,0.28c-3.14,0.24-6.38,0.48-9.5,1.14 c-4.14,0.87-8.4,1.38-12.52,1.88c-3.07,0.37-6.24,0.76-9.34,1.28l-0.48,0.09c-0.4,0.08-0.81,0.15-1.21,0.18 c-0.17,0.01-0.32,0.02-0.45,0.02c-0.87,0-1.01-0.22-1.15-1.83l-0.02-0.18l-0.14,0.11c-0.69,0.52-1.47,0.56-2.16,0.56l-0.82-0.01 c-0.28,0-0.64,0.01-1,0.07c-0.98,0.17-1.93,0.5-2.84,0.83c-0.4,0.14-0.8,0.29-1.21,0.41c-0.96,0.31-1.72,0.46-2.45,0.5l-0.11,0.01 l0.02,0.11c0.13,0.88,0.18,1.33,0.01,1.62c-0.16,0.29-0.55,0.46-1.33,0.77c-1.11,0.43-2.3,0.58-3.46,0.74 c-0.61,0.08-1.22,0.16-1.82,0.28l-1.09,0.21c-2.88,0.57-5.85,1.17-8.85,1.17l-0.26,0c-4.63-0.05-8.29-0.92-11.53-2.74 c-3.12-1.75-6.1-6.45-5.48-11.72c0.38-3.25,1.48-6.38,2.55-9.4l0.18-0.52c1.78-5.06,3.9-9.81,6.29-14.13 c1.15-2.07,2.56-4.02,4.32-5.94c2.63-2.89,5.08-6.01,7.45-9.02c2.2-2.8,4.48-5.7,6.89-8.4c5.16-5.77,10.58-11.34,16.12-16.55 c7.01-6.6,14.55-12.82,21.84-18.83l1.66-1.37c8.07-6.65,15.78-13.94,23.25-20.98l1.9-1.8c3.28-3.09,5.99-6.78,8.6-10.35l1.21-1.64 c1.49-2.01,2.26-4.28,3.01-6.48c0.26-0.75,0.52-1.51,0.8-2.25c1.63-4.25,3.43-8.52,5.18-12.64l1.19-2.82 c2-4.74,3.97-9.59,5.87-14.28l0.4-0.97c0.04-0.1,0.08-0.19,0.13-0.29c0.22-0.49,0.47-1.04,0.24-1.74l-0.02-0.07l-0.72,0l-2.26,0.01 c-1.85,0-3.99-0.06-6.05-0.74c-2.85-0.94-5.68-1.12-8.69-1.31l-0.43-0.03c-7.17-0.47-13.02-4.09-17.87-11.09 c-3.2-4.62-5.44-9.74-6.83-15.64c-1.41-5.97-1.41-11.44-0.01-16.74c0.88-3.34,2.17-5.98,3.94-8.07c0.7-0.83,1.48-1.5,2.39-2.05 l0.58-0.35c1.12-0.66,2.27-1.35,3.14-2.47c0.67-0.87,1.81-1.45,3.39-1.73c1.53-0.27,2.58-1.06,3.76-2.26 c4.05-4.08,7.37-8.84,10.16-12.99c6.84-10.14,12.23-21.3,17.45-32.08l0.49-1.01c3.25-6.71,7.1-14.47,11.72-21.61 c4.39-6.79,9.46-12.97,15.08-18.39c3.54-3.41,7.68-7.35,12.03-10.89c4.59-3.73,9.28-6.48,14.34-8.41 c5.99-2.28,12.15-4.63,18.55-5.43c1.97-0.25,3.88-0.83,5.72-1.38c2.3-0.7,4.67-1.41,7.15-1.48c0.72-0.02,1.16-0.5,1.57-0.96 c0.09-0.1,0.17-0.19,0.26-0.29c0.88-0.91,1.99-1.47,3.39-1.71c1.57-0.27,2.86-0.4,4.06-0.4c1.79,0,3.38,0.29,4.86,0.88 c0.26,0.11,0.49,0.16,0.7,0.16c0.33,0,0.62-0.12,0.95-0.39c0.42-0.34,0.92-0.51,1.52-0.51c0.49,0,0.99,0.11,1.46,0.22 c1.16,0.27,1.91,0.73,2.3,1.41c0.4,0.69,0.41,1.61,0.04,2.79c-0.04,0.13-0.07,0.27-0.1,0.41c-0.06,0.28-0.11,0.54-0.26,0.72 c-1.78,2.16-2.57,4.77-3.33,7.29c-0.38,1.26-0.77,2.56-1.28,3.78c-1.79,4.29-1.79,9.13,0.01,15.23c1.51,5.12,5.03,8.9,11.08,11.91 c2.41,1.2,4.96,1.78,7.8,1.78c2.01,0,4.18-0.3,6.63-0.9c5.48-1.36,10.33-4.01,13.94-6.17c5.01-3,8.73-5.49,12.07-8.08 c5.55-4.32,10.49-9.29,14.59-13.58c2.98-3.12,7-7.12,11.73-10.46c2.15-1.52,4.51-2.81,6.53-3.88c1.03-0.54,2.06-0.81,3.16-0.81 c1.5,0,3.11,0.51,4.93,1.57c0.56,0.33,0.75,0.85,0.86,1.59l0.01,0.08l0.19,0.01c0.78,0.05,1.59,0.11,2.07,0.71 c0.71,0.9,1.63,1.34,2.82,1.34c0.45,0,0.94-0.06,1.5-0.19c1.1-0.25,2.23-0.43,3.32-0.61c1.09-0.18,2.21-0.36,3.31-0.61 c1.58-1.06,3.41-1.28,5.17-1.5l0.47-0.06c2.38-0.3,4.79-0.72,7.12-1.12c3.15-0.55,6.41-1.11,9.65-1.4c2.28-0.21,4.38-0.31,6.39-0.31 c2.31,0,4.46,0.13,6.58,0.4c7.43,0.93,14.9,3.07,23.5,6.72c3.85,1.63,7.54,3.86,11.3,6.81c5.44,4.27,10.16,9.42,14.02,15.31 c2.49,3.79,4.74,8.04,6.89,12.99c2.18,5.02,4.15,10.05,5.97,14.77c2,5.17,3.99,10.45,5.91,15.55l2.28,6.05 c0.22,0.59,0.44,1.19,0.66,1.78c0.45,1.23,0.92,2.51,1.44,3.74c0.33,0.79,0.25,1.45-0.27,2.2l-0.04,0.05l0.84,1.54 c0.35,0.25,0.61,0.51,0.84,0.87c0.22,0.33,0.39,0.71,0.55,1.07c0.75,1.68,1.52,3.34,2.29,5.01c1.75,3.76,3.55,7.65,5.04,11.59 c0.91,2.41,2.05,4.74,3.16,7c0.53,1.08,1.05,2.15,1.56,3.24c1.59,3.42,3.96,6.69,7.06,9.72c0.62,0.6,1.17,1.28,1.68,2.08l0.14,0.2 c0.2,0.28,0.43,0.6,0.29,0.78c-0.98,1.34-0.15,2.03,0.59,2.63c0.18,0.15,0.35,0.29,0.5,0.44c0.4,0.41,0.81,0.79,1.22,1.18 c1.15,1.08,2.34,2.2,3.16,3.69c1.62,2.95,1.97,6.01,1.11,9.63c-1.33,5.63-4.79,10-10.88,13.76c-1.43,0.89-2.84,1.87-4.2,2.83 c-1.87,1.31-3.8,2.67-5.84,3.79c-1.37,0.75-2.8,1.6-4.66,2.75c-0.36,0.23-0.72,0.34-1.07,0.34c-0.36,0-0.73-0.11-1.13-0.35 l-2.55,1.09c-0.19,0.78-0.68,1.22-1.14,1.56c-2.94,2.15-5.53,4.76-8.04,7.28c-1.47,1.48-2.99,3.01-4.57,4.43 c-0.59,0.53-1.15,1.09-1.72,1.65c-0.7,0.7-1.43,1.42-2.19,2.07c-1.35,1.15-2.62,2.42-3.85,3.66c-1.22,1.22-2.48,2.49-3.81,3.62 c-0.92,0.79-1.85,1.58-2.77,2.38c-3.6,3.1-7.32,6.31-11.22,9.14c-5.67,4.12-11.89,6.82-18.47,8.04c-0.62,0.12-1.26,0.27-1.92,0.46 c-1.38,0.41-2.79,0.61-4.16,0.61c-2.64,0-5.27-0.75-7.84-2.23c-2.83-1.63-5.22-3.26-7.31-4.96c-2.95-2.42-4.86-5.87-5.67-10.28 c-0.07-0.4-0.18-0.79-0.29-1.17c-0.02-0.09-0.08-0.13-0.18-0.19c-0.05-0.04-0.13-0.09-0.22-0.16l-0.11-0.08l-0.05,0.13 c-0.22,0.6-0.46,1.18-0.7,1.76c-0.54,1.33-1.05,2.58-1.36,3.92c-0.6,2.59-1.34,5.21-2.21,7.79c-0.45,1.32-0.91,2.64-1.36,3.96 c-0.74,2.12-1.5,4.31-2.2,6.47c-1.61,4.95-3.52,9.88-5.37,14.66c-0.66,1.7-1.32,3.4-1.96,5.1c-1.96,5.16-4.32,11.25-6.94,17.27 c-0.37,0.84-0.72,1.68-1.08,2.53c-1.5,3.52-3.06,7.17-5.03,10.55l-0.09,0.15c-0.09,0.15-0.18,0.3-0.25,0.46 c-0.19,0.43-0.12,0.79,0.2,1.1c0.09,0.04,0.12,0.05,0.16,0.07c0.81,0.55,1.18,1.17,1.16,1.95c-0.01,0.26-0.06,0.56-0.17,0.87 c-2.37,7.32-3.04,15.03-3.69,22.48c-0.12,1.41-0.25,2.83-0.38,4.24c-0.69,7.32-1.6,14.86-2.71,22.43 c-0.89,6.12-2.19,12.33-3.96,18.96c-1.28,4.79-2.96,9.42-5,13.76c-1.06,2.26-2.45,5.25-3.74,8.29c-0.96,2.26-2.45,4.17-3.91,5.9 c-2.1,2.49-3.4,5.42-4.65,8.25l-0.33,0.76c-1.51,3.39-3.25,6.88-5.47,10.98c-0.38,0.7-0.86,1.43-1.49,2.23 c-0.63,0.82-1.1,1.33-1.47,1.33c-0.38,0-0.75-0.55-1.25-1.51l-0.06-0.11l-0.1,0.08c-0.08,0.07-0.17,0.14-0.26,0.2l0-0.01l-0.16-0.03 c-2.1,1.74-4.62,2.62-7.45,3.51c-3.32,1.05-6.46,1.57-9.6,1.6L267.05,400.54z" fill="#FFF"/></g><g id="change1_2"><path d="M315.84,5.05c0.82,0.06,1.73,0.09,2.25,0.76c1.16,1.47,2.74,1.45,4.22,1.11c2.2-0.5,4.44-0.72,6.63-1.22 c0.02,0.44,0.03,0.89,0.05,1.33c-3.87,0.35-7.61,1.3-11.32,2.38c-0.53,0.15-1.06,0.31-1.59,0.47c-0.87,0.26-1.69,0.65-2.13,1.54 c0,0,0,0,0,0c-0.95-0.32-1.66,0.12-2.32,0.65c-0.09,0.08-0.19,0.15-0.28,0.23c-0.8,0.67-1.54,1.4-2.31,2.11 c-0.1-0.92,0.32-1.73,0.54-2.58c0.6-2.4,0.12-4.45-1.85-6.05c1.92-1.06,3.94-0.68,5.9-0.27C314.53,5.68,315.23,5.76,315.84,5.05z M163.52,80.71c-1.01,1.28-2.14,2.46-3,3.87c-3.72,6.13-5.75,13.01-8.69,19.48c-2.15,4.75-3.88,9.7-5.79,14.56 c-1.34,3.42-2.93,6.76-3.95,10.27c-1.46,5.03-3.66,9.78-5.18,14.78c-1.07,3.52-2.27,7-3.43,10.49c-1.08,3.24-2.02,6.54-3.33,9.69 c-1.47,3.55-2.54,7.23-4.03,10.77c-1.19,2.84-2.1,5.83-3.25,8.7c-1.94,4.85-4,9.65-6.08,14.45c-2.93,6.74-5.53,13.63-8.8,20.23 c-2.09,4.23-4.3,8.36-7.13,12.15c-2.99,4.01-6.31,7.7-10.23,10.84c-0.64,0.51-1.4,0.96-1.83,1.62c-1.29,1.94-3.09,3.34-4.76,4.89 c-2.92,2.72-5.81,5.48-8.77,8.16c-2.24,2.03-4.5,4.05-6.86,5.92c-1.72,1.37-3.54,2.58-5.09,4.18c-1.53,1.59-3.16,3.11-4.92,4.44 c-3.39,2.57-6.73,5.2-9.95,7.98c-4.77,4.12-9.57,8.22-14.18,12.53c-3.77,3.52-7.3,7.3-10.74,11.16c-0.72,0.81-1.89,1.37-1.16,2.83 c0.17,0.35-0.2,0.92-0.65,1.23c-3.44,2.41-5.65,5.82-7.7,9.38c-3.48,6.05-6.05,12.48-8.18,19.11c-0.6,1.86-1.11,3.77-1.45,5.69 c-0.03,0.14-0.05,0.29-0.08,0.44c-0.15,0.74-0.31,1.51-0.1,2.25c0.02,0.06,0.05,0.12,0.08,0.19c0.03,0.08,0.06,0.17,0.1,0.25 c0.08,0.14,0.17,0.29,0.29,0.42c0,0,0,0,0,0c3.3-2.29,5.37-5.49,6.7-9.2c2.27-6.35,4.93-12.52,8.02-18.52 c2.7-5.23,6.1-9.97,10.35-13.99c6.13-5.81,12.48-11.38,19.19-16.54c6.57-5.05,12.78-10.55,19.16-15.84 c6.77-5.61,13.29-11.47,19.64-17.52c5.17-4.93,10.25-9.94,14.95-15.34c2.59-2.98,5.21-5.93,7.3-9.27 c4.44-7.11,8.49-14.43,11.79-22.16c1.16-2.72,1.93-5.65,3.4-8.17c1.97-3.37,3.34-6.95,4.69-10.55c1.95-5.23,4.41-10.26,6.07-15.6 c3.53-11.36,5.91-23.06,9.86-34.3c0.17-0.48,0.3-0.97,0.43-1.47c0.1-0.42,0.2-0.83,0.3-1.25c0.05-0.22,0.11-0.43,0.17-0.65 c0.06-0.23,0.14-0.46,0.21-0.69c0.2-0.61,0.45-1.2,0.8-1.75c0.02-3.29,1.41-6.2,2.45-9.22c0.69-2.8,1.51-5.55,2.89-8.1 c0.3-2.36,1.29-4.46,2.43-6.51c0.06-0.32,0.06-0.67,0.19-0.96c3.84-8.78,7.28-17.74,11.94-26.14c0.2-0.36,0.38-0.73,0.5-1.12 c0.27-0.89,0-1.63-0.78-2.13c-0.78-0.5-1.56-0.42-2.28,0.14c-0.12,0.09-0.22,0.19-0.31,0.3c-0.28,0.32-0.45,0.72-0.59,1.13 C164.48,79.21,164.13,79.92,163.52,80.71z M204.15,6.63c-1.16,0.59-2.02,1.44-3.36,1.71c-3.92,0.78-7.8,1.81-11.64,2.91 c-3.69,1.05-7.34,2.24-10.96,3.52c-2.37,0.84-4.73,1.78-6.95,2.95c-4.72,2.49-8.83,5.85-12.79,9.39c-2.99,2.67-5.86,5.47-8.65,8.36 c-3.58,3.71-7.02,7.53-9.96,11.74c-0.79,1.12-1.82,2.04-2.44,3.34c-1.16,2.41-2.44,4.8-3.97,6.98c-2.46,3.5-4.19,7.4-6.08,11.17 c-3.29,6.57-6.47,13.19-9.65,19.81c-2.62,5.46-5.72,10.65-9.03,15.72c-3.38,5.18-7.61,9.59-12.05,13.84c-1.04,1-2.75,1.61-2.31,3.6 c0.03,0.15-0.23,0.44-0.43,0.55c-1.4,0.81-1.32,2.15-1.28,3.47c0.05,1.39,0.09,2.78,0.26,4.15c0.33,2.68,0.71,5.35,2.39,7.62 c1.22-1.3,1.4-2.64,0.43-4.23c-1.16-1.91-1.21-3.96,0.14-5.78c1.4-1.89,2.73-3.89,4.99-4.98c1.03-0.5,1.82-1.4,2.45-2.38 c3.93-6.14,8.25-12,12.53-17.89c1.25-1.72,2.67-3.31,3.8-5.12c2.23-3.54,4.26-7.18,5.73-11.11c0.14-0.38,0.34-0.78,0.62-1.05 c2.59-2.44,3.73-5.82,5.18-8.84c3.44-7.16,6.91-14.31,10.53-21.38c1.9-3.71,4.22-7.18,7.31-10.12c2.55-2.43,5.47-4.47,7.66-7.26 c2.85-3.64,6.29-6.7,9.81-9.61c3.82-3.16,7.51-6.58,12.17-8.61c1.71-0.75,3.27-1.75,5.11-2.32c1.78-0.55,3.51-1.27,5.37-1.58 c0.95-0.16,1.57-0.74,2.2-1.44c2.26-2.51,4.97-3.36,8.2-2.06c0.19,0.08,0.39,0.15,0.58,0.21c0.58,0.19,1.18,0.31,1.81,0.32 C202.63,10.41,203.78,8.75,204.15,6.63z M218.53,58.95c0.04-0.02,0.06-0.03,0.09-0.04c0.4-0.97-0.42-1.6-0.78-2.3 c-3-5.74-5.84-11.53-7.41-17.87c-2.3-9.26-3.51-18.44,0.09-27.74c2-5.17,7.49-7.69,12.49-5.2c0.83-2.19,0.74-2.36-1.37-2.76 c-0.24-0.05-0.48-0.17-0.71-0.14c-3.66,0.39-7.28,1-10.78,2.2c-1.06,0.36-1.84,1.01-2.28,2.08c-1.22,2.94-2.19,5.94-2.83,9.09 c-1.33,6.53-1.08,13.04-0.26,19.56c0.27,2.17,0.87,4.35,1.62,6.41c2.01,5.53,5.31,10.29,9.31,14.56c0.41,0.44,0.81,0.91,1.27,1.31 c0.45,0.39,0.95,0.72,1.57,0.88C218.55,58.97,218.54,58.96,218.53,58.95z M82.1,144.48c0.78-2.64,1.39-5.33,2.14-7.98 c0.74-2.6,2.09-4.75,4.7-5.87c-0.09-2.3,0.26-4.58,0.62-6.96c-4.16,1.65-6.68,4.62-8.28,8.27c-1.52,3.45-2.28,7.19-1.98,10.98 c0.09,1.18,0.15,2.37,0.28,3.55c0.08,0.79,0.19,1.57,0.35,2.34c0.18,0.83,0.42,1.65,0.76,2.45c0.13,0.32,0.27,0.63,0.44,0.94 C81.36,149.61,81.35,147.01,82.1,144.48z M218.63,58.9c-0.03,0.01-0.06,0.02-0.09,0.04c0,0.01,0.01,0.02,0.02,0.04l0,0 c0.1,0.27,0.33,0.38,0.6,0.41C219.02,59.17,219.05,58.72,218.63,58.9z" fill="#FFF"/></g><g id="change2_1"><path d="M286.42,392.98c2.29-5.17,4.46-10.4,7.42-15.24c0.17-0.27,0.4-0.63,0.35-0.89c-0.43-2.23,1.09-3.76,2.1-5.32 c4.63-7.14,7.91-14.88,10.71-22.87c3.25-9.25,4.76-18.87,6.17-28.52c1.33-9.09,1.87-18.26,3.06-27.36 c0.53-4.05,1.67-8.01,2.92-11.92c0.15-0.47,0.35-0.92,0.41-1.41c0.02-0.16,0.02-0.32,0-0.49c0,0,0,0,0,0c0,0,0,0,0,0l0-0.03 c0-0.03,0-0.05,0-0.05c-1.12,0.79-1.49,2.1-2.11,3.22c-1.5,2.72-2.89,5.51-4.33,8.27c-0.08,0.15-0.15,0.29-0.25,0.42 c-0.59,0.81-0.96,2.35-2.25,1.65c-0.89-0.49-0.42-1.78,0.02-2.68c5.01-10.24,8.83-20.99,13.27-31.48 c4.63-10.94,9.02-21.99,13.02-33.17c3.11-8.71,5.86-17.55,8.66-26.37c1.61-5.07,3.12-10.19,4.47-15.34 c1.7-6.49,3.11-13.05,4.51-19.62c1.9-8.89,3.83-17.77,5.39-26.73c0.38-2.18,0.98-4.31,1.23-6.52c0.13-1.13,0.48-2.25,1.13-3.23 c0.41-0.63,0.88-1.29,1.73-1.17c0.89,0.12,1.4,0.82,1.69,1.62c0.22,0.62,0.24,1.28,0.04,1.93c-1.6,5.34-2.02,10.92-3.25,16.33 c-1.38,6.05-2.33,12.19-3.84,18.21c-0.67,2.67-0.79,5.48-1.57,8.34c0.76-0.12,1-0.65,1.29-1.04c5.27-7.18,11.55-13.37,18.27-19.17 c4.22-3.64,8.36-7.39,12.94-10.56c4.77-3.3,9.69-6.38,14.88-9.04c4.54-2.33,9.26-4.13,14.14-5.41c5.34-1.39,10.81-1.94,16.28-0.46 c0.43,0.12,0.87,0.21,1.32,0.3s0.88,0.17,1.33,0.27c1.06-0.21,2.12-0.33,3.17-0.34c0.7,0,1.39,0.04,2.08,0.15 c0.69,0.11,1.37,0.28,2.04,0.53c0.34,0.12,0.67,0.26,1,0.42c3.89,1.88,7.74,3.79,10.5,7.36c2.92,3.78,4.86,7.89,5.24,12.68 c1.1-2.96,0.66-5.74-0.84-8.47c-0.91-1.65-1.73-3.34-2.95-4.8c-0.46-0.55-1.08-1.3-0.64-1.99c0.89-1.39-0.11-1.86-0.94-2.51 c-1.03-0.8-2.15-1.48-3.17-2.31c-2.92-2.35-5.18-5.13-6.75-8.58c-4.01-8.79-7.96-17.6-10.24-27.04c-0.3-1.24-0.91-2.63,0.92-3.31 c-0.27-0.5-0.54-0.99-0.81-1.49c-1.38,0-1.7-1.13-2.13-2.08c-2.04-4.56-4.02-9.15-6.05-13.72c-3.22-7.26-6.52-14.49-9.68-21.78 c-2.09-4.81-4.28-9.57-6.82-14.14c-2.8-5.03-6.33-9.53-10.49-13.54c-5.14-4.94-10.97-8.82-17.62-11.37 c-3.74-1.43-7.62-2.47-11.46-3.63c-7.12-2.15-14.36-2.2-21.63-1.57c-5.79,0.5-11.6,0.77-17.4,1.13c-0.16,0.01-0.32,0.03-0.48,0.05 c-1.12,0.15-2.26,0.5-3.37-0.1c-3.87,0.35-7.61,1.3-11.32,2.38c-0.53,0.15-1.06,0.31-1.59,0.47c-0.87,0.26-1.69,0.65-2.13,1.54 c0.36,0.64,0.29,1.19-0.02,1.71c-0.1,0.17-0.23,0.34-0.38,0.51c-5.04,5.69-9.24,12.04-13.98,17.97c-2.5,3.13-5.06,6.2-7.6,9.29 c-2.61,3.17-5.47,6.05-8.29,8.99c-1.88,1.96-4.14,3.47-6.22,5.18c-3.29,2.7-6.77,5.17-10.55,7.13c-3.39,1.77-6.69,3.69-10.19,5.27 c-3.62,1.63-7.33,2.88-11.16,3.65c-6.1,1.24-12.28,2.05-18.4,0.05c-2.09-0.68-4.13-1.53-6.18-2.34c-0.65-0.26-1.16-0.77-0.92-1.52 c0.24-0.74,0.92-0.81,1.62-0.75c1.27,0.1,2.53,0.41,4.06,0.13c-2.07-0.94-4.07-1.32-5.95-2.05c-4.97-1.94-8.27-5.72-11.37-9.74 c-3.75-4.87-6.17-10.4-7.42-16.4c-0.82-3.93-0.98-7.93-1.03-11.96c-0.02-1.83,0.13-3.63,0.36-5.42c0.39-2.98,1.03-5.93,1.51-8.89 c-0.62-0.02-1.22-0.14-1.81-0.32c-0.19-0.06-0.39-0.13-0.58-0.21c-3.23-1.3-5.95-0.45-8.2,2.06c-0.63,0.7-1.25,1.28-2.2,1.44 c-1.86,0.31-3.59,1.03-5.37,1.58c-1.84,0.57-3.4,1.57-5.11,2.32c-4.66,2.03-8.35,5.45-12.17,8.61c-3.51,2.91-6.96,5.97-9.81,9.61 c-2.19,2.79-5.11,4.84-7.66,7.26c-3.09,2.94-5.41,6.41-7.31,10.12c-3.63,7.07-7.09,14.22-10.53,21.38c-1.45,3.02-2.59,6.4-5.18,8.84 c-0.29,0.27-0.48,0.67-0.62,1.05c-1.47,3.93-3.5,7.57-5.73,11.11c-1.14,1.81-2.55,3.4-3.8,5.12c-4.28,5.89-8.61,11.75-12.53,17.89 c-0.62,0.98-1.41,1.88-2.45,2.38c-2.26,1.09-3.59,3.09-4.99,4.98c-1.35,1.82-1.3,3.88-0.14,5.78c0.97,1.59,0.78,2.93-0.43,4.23 c0.17,1.91,1.32,3.37,2.42,4.75c4.38,5.52,10.19,9.14,16.49,12.06c1.11,0.52,2.29,0.91,3.56,0.84c0.43-0.02,0.84,0.03,1.21,0.17 c0.25,0.09,0.48,0.24,0.71,0.4c0.11,0.08,0.22,0.15,0.32,0.25c1.25,0.21,2.41,0.04,3.52-0.3c0.19-0.06,0.37-0.12,0.55-0.18 c0.37-0.13,0.73-0.27,1.09-0.42c0.18-0.07,0.36-0.15,0.54-0.23c0.54-0.23,1.08-0.46,1.62-0.67c0.55-0.21,1.1-0.39,1.66-0.53 c1.66-3.67,2.74-7.54,4.08-11.32c2.84-8.04,5.68-16.08,8.76-24.04c0.41-1.05,0.67-1.82-0.32-2.84c-1.23-1.26-1.43-3.12-1.61-4.82 c-1.12-11.07,0.28-21.77,4.85-31.98c0.53-1.19,1.26-2.3,1.92-3.43c0.34-0.59,0.8-1.19,1.56-0.78c0.68,0.37,0.55,1.11,0.44,1.76 c-0.03,0.16-0.1,0.31-0.18,0.46c-3.92,7.5-5.12,15.65-5.82,23.94c-0.33,3.93-0.57,7.84,0.08,11.75c0.06,0.39,0.03,0.84,0.67,1.07 c1.26-1.97,1.94-4.22,2.84-6.36c2.79-6.57,5.44-13.19,8.95-19.43c1.74-3.09,3.94-5.84,6.44-8.36c0.09-0.09,0.18-0.18,0.28-0.27 c0.65-0.6,1.34-1,2.31-0.72c0.14-0.41,0.31-0.81,0.59-1.13c0.09-0.11,0.2-0.21,0.31-0.3c0.72-0.56,1.5-0.64,2.28-0.14 c0.78,0.5,1.05,1.24,0.78,2.13c-0.12,0.39-0.3,0.76-0.5,1.12c-4.65,8.41-8.09,17.37-11.94,26.14c-0.13,0.29-0.13,0.64-0.19,0.96 c12.06,2.55,24.25,4.13,36.48,5.45c4.08,0.44,8.16,0.86,12.24,1.27c25.11,2.55,50.27,3.14,75.47,2.43 c10.66-0.3,21.33-0.58,31.99-0.75c14.03-0.23,27.81,1.67,41.41,5.03c2.36,0.58,4.43,1.7,6.43,2.99c1.37,0.88,1.83,1.91,1.37,2.83 c-0.64,1.28-1.82,1.23-2.99,1.07c-5.04-0.66-10.07-1.38-15.12-1.99c-7.67-0.93-15.37-1.33-23.09-1.03 c-11.64,0.45-23.27,1.14-34.92,1.53c-12.22,0.42-24.45,0.37-36.67-0.25c-10.24-0.52-20.48-1.08-30.69-2.08 c-6.2-0.61-12.4-1.3-18.58-2.07c-8.22-1.03-16.42-2.19-24.63-3.28c-6.6-0.88-13.04-2.52-19.45-4.25c-0.55-0.15-1.12-0.26-1.67-0.39 c-1.39,2.55-2.2,5.3-2.89,8.1c4.77-0.29,9.5,0.23,14.24,0.72c6.36,0.66,12.74,1.13,19.11,1.69c11.37,1,22.77,1.11,34.16,1.56 c7.21,0.28,14.42,0.61,21.63,1.01c4.84,0.27,9.68,0.16,14.51,0.44c9.66,0.55,19.33,0.77,28.97,1.77c8.56,0.89,17.16,1.4,25.74,2.17 c14.34,1.29,28.43,3.94,42.3,7.82c1.18,0.33,2.34,0.76,3.5,1.18c0.95,0.34,1.74,0.92,2.36,1.72c1.37,1.75,0.65,4.09-1.49,4.71 c-0.69,0.2-1.47,0.24-2.19,0.18c-7.03-0.55-14.06-1.13-21.08-1.73c-6.21-0.53-12.39-1.31-18.62-1.7 c-23.21-1.45-46.44-0.86-69.66-0.98c-3.69-0.02-7.39,0.07-11.08-0.03c-11.07-0.29-22.15-0.44-33.21-1.01 c-14.29-0.74-28.4-2.86-42.18-6.86c-2.45-0.71-4.82-1.62-7.15-2.65c-0.19-0.08-0.37-0.17-0.56-0.26c-0.56-0.26-1.12-0.51-1.75-0.54 c-0.35,0.56-0.6,1.15-0.8,1.75c-0.08,0.23-0.15,0.46-0.21,0.69c-0.06,0.22-0.12,0.43-0.17,0.65c-0.1,0.42-0.2,0.83-0.3,1.25 c-0.12,0.5-0.26,0.99-0.43,1.47c-3.95,11.24-6.33,22.94-9.86,34.3c-1.66,5.34-4.12,10.37-6.07,15.6c-1.35,3.61-2.72,7.18-4.69,10.55 c-1.47,2.53-2.24,5.46-3.4,8.17c-3.3,7.72-7.35,15.04-11.79,22.16c-2.09,3.35-4.72,6.3-7.3,9.27c-4.69,5.4-9.78,10.41-14.95,15.34 c-6.35,6.06-12.88,11.92-19.64,17.52c-6.38,5.29-12.59,10.78-19.16,15.84c-6.71,5.16-13.07,10.73-19.19,16.54 c-4.25,4.03-7.65,8.77-10.35,13.99c-3.09,5.99-5.76,12.17-8.02,18.52c-1.33,3.71-3.39,6.91-6.7,9.2c0.04,0.83,0.25,1.54,0.59,2.16 c0.34,0.62,0.82,1.14,1.39,1.59c0.38,0.3,0.8,0.56,1.26,0.79c3.69,1.89,7.61,2.81,11.79,2.63c4.56-0.2,9.14-0.09,13.62-1.16 c0.23-0.05,0.48,0.03,0.73,0.06c0.86-0.05,1.67-0.25,2.48-0.5c1.34-0.43,2.64-1,4.04-1.24c1.34-0.23,2.8,0.28,4.01-0.64 c6.89-2.47,13.99-4.03,21.23-5.02c13.56-1.87,27.13-3.64,40.77-4.72c7.9-0.63,15.85-0.71,23.79,0.21c6.51,0.75,12.98,1.62,19.41,2.9 c9.41,1.87,18.63,4.34,27.5,8.04c6.42,2.67,13.04,4.83,19.39,7.67c3.97,1.77,7.74,3.91,11.52,6.04c1.07,0.6,2.14,1.22,3.18,1.86 c0.54,0.33,1.31,0.69,0.85,1.47c-0.39,0.67-1.21,1.09-1.9,0.55c-1.38-1.06-3.11-1.35-4.58-2.26c-1.98-1.22-4.19-2.06-6.36-2.94 c4.3,2.45,8.36,5.27,12.46,8.01c4.41,2.95,8.75,6.01,13.19,8.92c2.39,1.57,4.79,3.13,7.16,4.74c0.44,0.3,0.9,0.36,1.38,0.42 c0.64-1.58,1.71-2.85,2.81-4.09c0.37-0.41,0.74-0.82,1.1-1.24c0.87-1,1.61-2.05,2.35-3.14c3.03-4.49,6.13-8.93,9.22-13.38 c0.33-0.47,0.77-0.85,1.13-1.29c0.95-1.14,1.95-1.34,3.46-0.85c5.03,1.62,9.68,4.07,14.49,6.16c1.58,0.69,3.18,1.35,4.71,2.14 c1.71,0.88,2.16,1.83,1.48,3.63c-0.86,2.3-1.86,4.57-2.98,6.75c-1.83,3.58-3.84,7.07-5.73,10.62c-1.36,2.55-3.16,4.79-4.78,7.15 c7.04,1.5,13.98,1.33,20.8-1.13c1.18-0.42,2.17-0.54,2.76,0.94c0.12-0.1,0.24-0.19,0.36-0.29c0.03,0.05,0.05,0.08,0.07,0.13 C285.69,394.66,286.05,393.8,286.42,392.98z M362.06,59.64c1.19-0.45,1.61,0.53,1.87,1.4c0.4,1.33,0.72,2.69,1,4.05 c1.72,8.53,2.57,17.14,2.4,25.75c0.27,8.51-0.88,16.77-2.44,24.99c-0.05,0.24-0.04,0.5-0.14,0.72c-0.19,0.44-0.33,0.98-0.95,0.97 c-0.65-0.02-1.09-0.45-1.26-1c-0.14-0.44-0.08-0.98,0-1.45c1.87-10.41,1.52-20.9,1.27-31.39c-0.14-6.06-0.59-12.11-1.49-18.11 c-0.19-1.29-0.4-2.58-0.88-3.82C361.13,60.92,361.11,60,362.06,59.64z M304.65,46.61c-2.05,4.23-4.8,8.01-7.72,11.66 c-3.12,3.91-6.77,7.35-10.48,10.71c-4.51,4.08-9.44,7.65-14.67,10.7c-5.87,3.42-11.91,6.56-18.01,9.55 c-0.15,0.07-0.29,0.17-0.44,0.22c-0.78,0.22-1.67,0.64-2.13-0.41c-0.38-0.88,0.32-1.33,0.98-1.72c2.33-1.37,4.65-2.77,7.01-4.1 c8.35-4.76,16.39-10.04,23.92-15.98c7.75-6.11,14.76-13.05,19.56-21.87c0.23-0.43,0.5-0.86,0.84-1.2c0.28-0.28,0.71-0.42,1.13-0.16 c0.37,0.23,0.58,0.57,0.61,1.18C305.09,45.56,304.9,46.1,304.65,46.61z M134.24,247.54c-2.52,1.38-5.16,2.49-7.74,3.71 c-4.65,2.2-9.41,4.16-14.13,6.2c-0.52,0.23-1.1,0.33-1.62,0.48c-0.48,0.05-0.81-0.17-1.02-0.55c-0.27-0.49-0.22-0.97,0.23-1.31 c0.32-0.25,0.69-0.43,1.06-0.61c9.67-4.66,18.89-10.17,28.54-14.87c4.63-2.26,9.32-4.41,13.96-6.64c5.32-2.56,10.37-5.61,15.42-8.67 c1.33-0.81,2.69-1.56,4.04-2.33c0.21-0.12,0.43-0.24,0.66-0.33c0.77-0.29,1.63-0.71,2.13,0.33c0.43,0.89-0.29,1.33-0.94,1.72 c-1.26,0.77-2.52,1.53-3.77,2.31c-3.12,1.95-6.26,3.87-9.36,5.86c-3.79,2.44-7.86,4.35-11.82,6.46 C144.68,242.08,139.4,244.7,134.24,247.54z M222.06,201.29c-2.85,3.17-5.99,6.05-9.29,8.73c-3.35,2.72-6.64,5.55-10.24,7.9 c-5.44,3.55-10.7,7.35-16.37,10.58c-5.04,2.88-9.97,5.94-15.08,8.72c-4.15,2.26-8.21,4.69-12.74,6.22 c-1.03,0.35-2.06,0.93-3.12,1.31c-0.7,0.25-1.52,0.49-1.85-0.5c-0.31-0.93,0.41-1.32,1.1-1.63c1.04-0.48,2.12-0.87,3.14-1.39 c5.62-2.85,10.95-6.19,16.29-9.54c6.31-3.96,12.44-8.19,18.71-12.2c8.19-5.25,16.46-10.43,23.99-16.62c1.6-1.32,3.44-2.51,4.07-4.76 c0.25-0.9,1.16-0.77,1.9-0.61c0.65,0.14,0.93,0.62,0.9,1.28C223.44,199.85,222.71,200.56,222.06,201.29z" fill="#FEF5B7"/></g><g id="change3_1"><path d="M456.33,135.57c2.92,3.78,4.86,7.89,5.24,12.68c-0.81,2.8-3.01,4.62-4.87,6.62 c-3.28,3.54-7.26,6.28-11.02,9.27c-0.17,0.14-0.46,0.13-0.69,0.19c0.19-0.31,0.38-0.62,0.57-0.93c0.08-0.13,0.15-0.25,0.23-0.38 c2.24-2.53,3.35-5.62,4.21-8.78c1.63-5.98-2.37-13.53-8.66-15.48c-0.91-0.28-1.71-0.58-2.35,0.46c-0.56,0.9-1.48,0.59-2.24,0.43 c-4.12-0.87-8.02,0.1-11.74,1.63c-4.62,1.9-9.1,4.15-13.48,6.57c-3.88,2.14-7.59,4.55-10.97,7.4c-3.94,3.33-7.8,6.74-11.39,10.47 c-6.8,7.06-13,14.56-17.78,23.16c-2.09,3.76-3.43,7.79-3.93,12.08c-0.25,2.2,0.14,4.26,1.4,6.09c0.5,0.72,1.03,1.7,2.06,1.51 c1.28-0.24,0.6-1.47,0.84-2.25c0.01,0,0.01,0.01,0.02,0.01c0,0,0-0.01,0-0.01c1.75,1.2,2.66,3.22,4.38,4.46 c0.49,0.35,0.01,1.07-0.08,1.62c0,0,0,0,0,0c-1.28,0.53-2.56,0.82-3.82,0.89c-0.42,0.02-0.84,0.02-1.26-0.01 c-1.67-0.11-3.3-0.62-4.89-1.48c-3.52-1.92-6.91-4.07-9.39-7.35c-0.29-0.39-0.59-0.8-0.75-1.25c-0.92-2.46-1.83-4.91-2.45-7.48 c-0.49-2.05-0.83-4.02,0.55-5.89c0.34-0.46,0.54-1.02,0.13-1.6c-0.81-1.15-0.47-2.36-0.15-3.55c0.47-1.74,0.98-3.47,1.46-5.2 c0.16-0.58,0.6-0.96,0.97-1.4c3.1-3.72,6.53-7.13,10-10.49c4.82-4.66,9.5-9.49,14.71-13.73c5.46-4.44,10.89-8.9,16.9-12.63 c4.6-2.86,9.38-5.4,14.38-7.35c7.64-2.98,15.57-4.5,23.83-2.96c2.53,0.47,4.9,1.34,7,2.87c0.46,0.34,0.94,0.66,1.39,1.02 c0.69,0.55,1.45,1.02,2.15,0.18c0.77-0.92-0.16-1.43-0.7-2.02c-2.39-2.6-5.48-4.11-8.62-5.53c1.06-0.21,2.12-0.33,3.17-0.34 c0.7,0,1.39,0.04,2.08,0.15c0.69,0.11,1.37,0.28,2.04,0.53c0.34,0.12,0.67,0.26,1,0.42C449.71,130.09,453.56,132,456.33,135.57z M153.09,113.54c0.56,0.13,1.12,0.24,1.67,0.39c6.42,1.73,12.85,3.37,19.45,4.25c8.21,1.09,16.41,2.25,24.63,3.28 c6.18,0.78,12.38,1.46,18.58,2.07c10.21,1,20.45,1.56,30.69,2.08c12.22,0.62,24.45,0.67,36.67,0.25c11.64-0.4,23.28-1.09,34.92-1.53 c7.72-0.3,15.42,0.11,23.09,1.03c5.04,0.61,10.08,1.33,15.12,1.99c1.17,0.15,2.35,0.2,2.99-1.07c0.46-0.92,0-1.94-1.37-2.83 c-2-1.29-4.07-2.41-6.43-2.99c-13.6-3.36-27.38-5.26-41.41-5.03c-10.67,0.18-21.33,0.45-31.99,0.75 c-25.21,0.71-50.37,0.12-75.47-2.43c-4.08-0.41-8.16-0.83-12.24-1.27c-12.23-1.33-24.42-2.9-36.48-5.45 C154.37,109.07,153.39,111.18,153.09,113.54z M119.95,155.94c-0.13,1.12-0.9,1.49-1.88,1.55c-1.14,0.07-2.3,0.08-3.41-0.25 c-3.85-1.14-7.55-2.6-11.03-4.65c-3.99-2.36-7.37-5.25-9.97-9.19c-2.6-3.94-3.86-8.25-4.73-12.77c-2.61,1.12-3.96,3.27-4.7,5.87 c-0.75,2.65-1.36,5.34-2.14,7.98c-0.75,2.53-0.73,5.13-0.98,7.71v0c0.01,0.23,0.04,0.47,0.07,0.69c0.07,0.55,0.18,1.08,0.34,1.62 c0.08,0.25,0.17,0.51,0.27,0.76c1.01,2.52,2.35,4.84,3.74,7.16c2.19,3.66,4.94,6.62,8.55,8.96c4.56,2.96,9.58,4.35,14.86,4.41 c3.67,0.04,7.36-0.18,11.04-0.18c1.02,0,1.45-0.51,1.76-1.35c0.91-2.46,1.93-4.88,2.75-7.36c1.46-4.43,3.37-8.72,4.43-13.28 c-0.56,0.13-1.12,0.32-1.66,0.53c-0.55,0.21-1.08,0.44-1.62,0.67c-0.18,0.08-0.36,0.15-0.54,0.23c-0.36,0.15-0.72,0.29-1.09,0.42 c-0.18,0.06-0.37,0.13-0.55,0.18C122.35,155.98,121.2,156.15,119.95,155.94z M309.6,11.83c0.6-2.4,0.12-4.45-1.85-6.05 c-3.1,0.23-5.24,2.07-7.16,4.28c-2.73,3.15-5.41,6.33-8.38,9.27c-4.53,4.5-8.85,9.21-13.77,13.28c-3.85,3.18-8,5.96-12.36,8.4 c-5.63,3.15-11.14,6.54-17.51,8.1c-6.19,1.52-12.22,1.25-17.85-1.89c-6.44-3.58-11.16-8.68-12.3-16.24 c-0.99-6.57-0.4-13.08,2.05-19.33c0.78-1.98,1.69-3.9,2.54-5.85c-5-2.49-10.49,0.03-12.49,5.2c-3.6,9.3-2.39,18.48-0.09,27.74 c1.57,6.33,4.41,12.13,7.41,17.87c0.36,0.7,1.18,1.33,0.78,2.3c0.42-0.18,0.39,0.27,0.53,0.49c0.92,0.91,1.97,1.63,3.07,2.25 c1.1,0.62,2.26,1.14,3.43,1.64c1.35,0.59,2.76,1.04,4.11,1.63c0.75,0.32,1.61,0.71,0.96,1.8c-0.36,0.6-0.11,0.92,0.45,1.09 c0.55,0.16,1.11,0.36,1.67,0.39c4.54,0.2,9.01-0.41,13.37-1.53c5.17-1.34,10.05-3.45,14.77-5.97c4.71-2.51,9.23-5.32,13.5-8.5 c7.27-5.43,13.25-12.16,18.8-19.3c1.25-1.6,2.48-3.2,3.73-4.8c1.79-2.28,3.61-4.55,5.5-6.75c0.25-0.3,0.51-0.59,0.77-0.88 c0.7-0.8,1.42-1.59,2.15-2.37c1.17-1.26,2.37-2.49,3.63-3.68C308.96,13.49,309.38,12.68,309.6,11.83z M371.76,206.32 c0.01,0,0.01,0.01,0.02,0.01c0,0,0-0.01,0-0.01c0.16-1.23-0.43-2.23-0.99-3.24C370.1,204.47,370.51,205.52,371.76,206.32z M258.48,375.06c0.76,1.06,1.79,1,2.86,0.58c0.75-0.3,1.57-0.96,1.61,0.59c0.02,0.77,1.84,0.43,1.05,1.73 c-0.25,0.42-0.4,0.97,0.1,1.33c0.55,0.39,1.13,0.12,1.58-0.23c1.43-1.1,2.67-2.4,3.64-3.94c0.46-0.74,0.63-1.53,0.03-2.28 c-0.54-0.68-1.24-0.71-1.99-0.4c-0.44,0.18-0.91,0.57-1.28-0.02c-0.91-1.47-1.85-0.83-2.86-0.12c-0.43,0.3-0.85,0.79-1.53,0.6 c-0.26-0.72,0.36-1.19,0.51-1.79c0.12-0.51,0.14-1-0.32-1.32c-0.5-0.34-0.95-0.11-1.29,0.28c-0.65,0.74-1.31,1.47-1.86,2.28 C258.16,373.16,257.79,374.1,258.48,375.06z M249.21,380.82c0.17,0.07,0.31,0.2,0.41,0.41c1.91,0.21,3.42,1.46,5.2,2.03 c0.7,0.22,1.37,0.62,2.13,0.44c0.8-0.2,1.09-0.72,0.67-1.46c-0.19-0.34-0.52-0.64-0.86-0.86c-2.9-1.87-5.97-3.4-9.14-4.75 c-0.66-0.28-1.32-0.33-1.73,0.37c-0.48,0.81,0,1.36,0.58,1.9c0.27,0.24,0.58,0.43,0.9,0.62c0.51,0.31,1.01,0.63,1.26,1.23 C248.84,380.73,249.04,380.75,249.21,380.82z M248.6,380.74L248.6,380.74C248.6,380.74,248.6,380.74,248.6,380.74L248.6,380.74z M244.14,381.86c1.27,0.54,2.59,0.97,3.86,1.53c2.38,1.06,4.73,2.19,7.11,3.25c0.78,0.35,1.58,0.87,2.52,0.26 c-0.15-1.05-1.06-1.22-1.68-1.66c-2.05-1.43-4.43-2.31-6.33-3.99c-0.41-0.02-0.78-0.1-1-0.48c-0.49-0.06-0.94-0.25-1.37-0.47 c-0.72-0.37-1.41-0.83-2.23-0.95c-0.8-0.11-1.49,0.06-1.74,0.94C243.08,381.07,243.49,381.59,244.14,381.86z M255.13,373.75 c0.06,0,0.14,0.01,0.22,0c1.41-0.21,4.18-4.09,3.9-5.47c-0.26-1.26-1.48-1.72-2.34-0.76c-1.32,1.47-1.88,3.38-2.56,5.19 C254.17,373.19,254.52,373.64,255.13,373.75z M251.49,372.84c0.71,0.03,0.95-0.41,0.99-1.09c0.07-1.41,0.67-2.66,1.29-3.89 c0.18-0.36,0.45-0.68,0.39-1.12c-0.06-0.37-0.29-0.55-0.75-0.59c-0.14,0.08-0.42,0.14-0.54,0.31c-0.88,1.35-1.95,2.61-2.32,4.24 c-0.07,0.31-0.08,0.65-0.06,0.96C250.53,372.29,250.79,372.8,251.49,372.84z" fill="#D72E73"/></g><g id="change4_1"><path d="M438.23,171.64c-0.82,0.36-1.64,0.73-2.46,1.09c-0.7-1.06-1.51-1.09-2.47-0.33 c-2.17,1.73-4.46,3.34-6.52,5.2c-10.01,9.05-20.53,17.47-31.05,25.91c-2.17,1.74-4.45,3.24-6.84,4.5c-3.98,2.11-8.25,3.56-12.81,4.4 c0.09-0.55,0.57-1.27,0.08-1.62c-1.72-1.25-2.64-3.26-4.38-4.46c0.16-1.23-0.43-2.23-0.99-3.24c-0.24-1.54,0.28-2.94,0.88-4.28 c2.09-4.68,4.03-9.39,7.07-13.65c2.32-3.25,4.59-6.56,7.23-9.51c5.07-5.66,10.18-11.31,16.15-16.12c2.87-2.31,5.81-4.51,8.95-6.4 c5.31-3.2,10.73-6.23,16.64-8.27c3.89-1.34,7.79-2.4,11.95-1.72c0.31,0.05,0.71,0.1,0.96-0.05c1.4-0.84,2.23,0.09,2.85,1.03 c1.36,2.05,2.5,4.2,2.7,6.76c0.27,3.44-0.39,6.68-1.65,9.86c-0.24,0.6-0.38,0.99-0.36,1.27c0.03,0.47,0.48,0.65,1.62,1.06 c-0.08,0.13-0.15,0.25-0.23,0.38c-0.19,0.31-0.38,0.62-0.57,0.93c-0.94,1.3-2.15,2.31-3.38,3.29c-0.74,0.59-1.49,1.16-2.2,1.79 C438.7,170.04,438.05,170.6,438.23,171.64z M147.74,130.85c0.64,0.03,1.2,0.28,1.75,0.54c0.19,0.09,0.37,0.18,0.56,0.26 c2.33,1.03,4.7,1.94,7.15,2.65c13.78,4,27.89,6.12,42.18,6.86c11.06,0.57,22.14,0.73,33.21,1.01c3.69,0.1,7.39,0.01,11.08,0.03 c23.22,0.11,46.45-0.47,69.66,0.98c6.22,0.39,12.41,1.17,18.62,1.7c7.03,0.59,14.05,1.17,21.08,1.73c0.72,0.06,1.5,0.02,2.19-0.18 c2.14-0.62,2.86-2.97,1.49-4.71c-0.62-0.79-1.42-1.37-2.36-1.72c-1.16-0.42-2.31-0.85-3.5-1.18c-13.86-3.88-27.96-6.53-42.3-7.82 c-8.57-0.77-17.17-1.28-25.74-2.17c-9.64-1-19.31-1.22-28.97-1.77c-4.83-0.28-9.67-0.17-14.51-0.44c-7.2-0.4-14.42-0.73-21.63-1.01 c-11.39-0.45-22.8-0.56-34.16-1.56c-6.37-0.56-12.75-1.03-19.11-1.69c-4.74-0.49-9.46-1.01-14.24-0.72 C149.15,124.64,147.76,127.56,147.74,130.85z M233.61,383.25c0.64-1.58,1.71-2.85,2.81-4.09c0.37-0.41,0.74-0.82,1.1-1.24 c0.87-1,1.61-2.05,2.35-3.14c3.03-4.49,6.13-8.93,9.22-13.38c0.33-0.47,0.77-0.85,1.13-1.29c0.95-1.14,1.95-1.34,3.46-0.85 c5.03,1.62,9.68,4.07,14.49,6.16c1.58,0.69,3.18,1.35,4.71,2.14c1.71,0.88,2.16,1.83,1.48,3.63c-0.86,2.3-1.86,4.57-2.98,6.75 c-1.83,3.58-3.84,7.07-5.73,10.62c-1.36,2.55-3.16,4.79-4.78,7.15c-1.84-0.06-3.52-0.79-5.16-1.48 c-7.31-3.06-14.38-6.63-21.37-10.36C234.07,383.71,233.85,383.46,233.61,383.25z M260.58,370.05c-0.65,0.74-1.31,1.47-1.86,2.28 c-0.57,0.83-0.93,1.77-0.24,2.73c0.76,1.06,1.79,1,2.86,0.58c0.75-0.3,1.57-0.96,1.61,0.59c0.02,0.77,1.84,0.43,1.05,1.73 c-0.25,0.42-0.4,0.97,0.1,1.33c0.55,0.39,1.13,0.12,1.58-0.23c1.43-1.1,2.67-2.4,3.64-3.94c0.46-0.74,0.63-1.53,0.03-2.28 c-0.54-0.68-1.24-0.71-1.99-0.4c-0.44,0.18-0.91,0.57-1.28-0.02c-0.91-1.47-1.85-0.83-2.86-0.12c-0.43,0.3-0.85,0.79-1.53,0.6 c-0.26-0.72,0.36-1.19,0.51-1.79c0.12-0.51,0.14-1-0.32-1.32C261.38,369.43,260.92,369.66,260.58,370.05z M255.13,373.75 c0.06,0,0.14,0.01,0.22,0c1.41-0.21,4.18-4.09,3.9-5.47c-0.26-1.26-1.48-1.72-2.34-0.76c-1.32,1.47-1.88,3.38-2.56,5.19 C254.17,373.19,254.52,373.64,255.13,373.75z M250.49,371.67c0.04,0.62,0.31,1.13,1,1.17c0.71,0.03,0.95-0.41,0.99-1.09 c0.07-1.41,0.67-2.66,1.29-3.89c0.18-0.36,0.45-0.68,0.39-1.12c-0.06-0.37-0.29-0.55-0.75-0.59c-0.14,0.08-0.42,0.14-0.54,0.31 c-0.88,1.35-1.95,2.61-2.32,4.24C250.47,371.02,250.46,371.35,250.49,371.67z M244.14,381.86c1.27,0.54,2.59,0.97,3.86,1.53 c2.38,1.06,4.73,2.19,7.11,3.25c0.78,0.35,1.58,0.87,2.52,0.26c-0.15-1.05-1.06-1.22-1.68-1.66c-2.05-1.43-4.43-2.31-6.33-3.99 c0,0,0.01,0,0.01,0c-0.01-0.01-0.01-0.02-0.02-0.03c1.91,0.21,3.42,1.46,5.2,2.03c0.7,0.22,1.37,0.62,2.13,0.44 c0.8-0.2,1.09-0.72,0.67-1.46c-0.19-0.34-0.52-0.64-0.86-0.86c-2.9-1.87-5.97-3.4-9.14-4.75c-0.66-0.28-1.32-0.33-1.73,0.37 c-0.48,0.81,0,1.36,0.58,1.9c0.27,0.24,0.58,0.43,0.9,0.62c0.51,0.31,1.01,0.63,1.26,1.23c-0.01,0-0.01,0-0.02,0l0,0h0l0,0 c0.01,0.02,0.02,0.02,0.03,0.04c-0.49-0.06-0.94-0.25-1.37-0.47c-0.72-0.37-1.41-0.83-2.23-0.95c-0.8-0.11-1.49,0.06-1.74,0.94 C243.08,381.07,243.49,381.59,244.14,381.86z M319.56,278.95C319.56,278.95,319.56,278.96,319.56,278.95 c0.9-1.26,1.26-2.79,1.98-4.15c-0.03-0.11-0.07-0.22-0.12-0.33c-0.66,1.01-1.22,2.07-1.58,3.21c-0.12,0.38-0.21,0.77-0.28,1.17 c0,0,0,0.03,0,0.05C319.56,278.93,319.56,278.95,319.56,278.95z M249.63,381.26c0,0,0.01,0,0.01,0c-0.01-0.01-0.01-0.02-0.02-0.03 c-0.1-0.21-0.24-0.34-0.41-0.41c-0.17-0.07-0.38-0.09-0.59-0.08c-0.01,0-0.01,0-0.02,0l0,0c0,0,0,0,0,0 c0.01,0.02,0.02,0.02,0.03,0.04c0,0,0,0,0,0C248.85,381.17,249.22,381.25,249.63,381.26z" fill="#FDBE78"/></g><g id="change5_1"><path d="M34.08,349.75c0.13,0.89,0.18,1.36,0,1.69s-0.59,0.51-1.38,0.81c-1.7,0.66-3.53,0.67-5.29,1.02 c-3.37,0.66-6.75,1.42-10.22,1.38c-4.06-0.05-7.93-0.71-11.57-2.75c-3.3-1.85-6.13-6.68-5.53-11.82c0.4-3.44,1.6-6.7,2.74-9.94 c1.72-4.88,3.79-9.61,6.3-14.15c1.2-2.17,2.66-4.13,4.33-5.96c5.08-5.56,9.32-11.81,14.34-17.42c5.14-5.75,10.51-11.26,16.12-16.56 c7.53-7.1,15.54-13.63,23.51-20.2c8.74-7.21,16.92-15.02,25.15-22.78c3.77-3.55,6.72-7.82,9.8-11.98c1.98-2.67,2.67-5.76,3.8-8.7 c2-5.21,4.21-10.33,6.37-15.46c2.13-5.06,4.2-10.16,6.26-15.25c0.24-0.58,0.62-1.17,0.37-1.97c-3-0.04-6.07,0.23-8.99-0.73 c-2.97-0.98-5.99-1.14-9.09-1.34c-7.87-0.51-13.59-4.85-17.94-11.13c-3.3-4.76-5.51-10-6.85-15.67c-1.33-5.64-1.49-11.21-0.01-16.79 c0.78-2.93,1.96-5.74,3.96-8.11c0.7-0.82,1.49-1.51,2.42-2.07c1.32-0.8,2.69-1.5,3.69-2.8c0.82-1.06,2.2-1.55,3.45-1.77 c1.59-0.28,2.66-1.17,3.71-2.23c3.89-3.92,7.07-8.41,10.15-12.97c7.04-10.45,12.46-21.78,17.93-33.08 c3.57-7.38,7.26-14.72,11.72-21.62c4.33-6.7,9.33-12.85,15.09-18.41c3.9-3.76,7.82-7.47,12.03-10.89c4.37-3.55,9.1-6.42,14.37-8.43 c6.05-2.31,12.15-4.63,18.57-5.44c4.43-0.56,8.41-2.75,12.88-2.86c0.83-0.02,1.26-0.69,1.77-1.22c0.95-0.97,2.09-1.5,3.45-1.74 c3.04-0.52,6.05-0.68,8.97,0.49c0.63,0.25,1.05,0.19,1.55-0.22c0.94-0.76,2.03-0.56,3.06-0.31c2.39,0.56,3.15,1.96,2.41,4.33 c-0.12,0.39-0.13,0.87-0.37,1.16c-2.66,3.21-3.07,7.37-4.6,11.04c-2.08,4.97-1.48,10.1,0.02,15.16c1.71,5.8,5.85,9.28,11.03,11.85 c4.68,2.33,9.5,2.08,14.36,0.87c4.99-1.24,9.55-3.55,13.91-6.16c4.14-2.48,8.22-5.09,12.06-8.08c5.27-4.1,9.99-8.76,14.58-13.57 c3.64-3.81,7.44-7.43,11.74-10.47c2.07-1.46,4.3-2.7,6.54-3.88c2.84-1.5,5.57-0.75,8.18,0.77c0.64,0.37,0.81,1,0.91,1.66 c-0.62,0.72-1.31,0.64-2.19,0.45c-1.97-0.41-3.98-0.79-5.9,0.27c-3.1,0.23-5.24,2.07-7.16,4.28c-2.73,3.15-5.41,6.33-8.38,9.27 c-4.53,4.5-8.85,9.21-13.77,13.28c-3.85,3.18-8,5.96-12.36,8.4c-5.63,3.15-11.14,6.54-17.51,8.1c-6.19,1.52-12.22,1.25-17.85-1.89 c-6.44-3.58-11.16-8.68-12.3-16.24c-0.99-6.57-0.4-13.08,2.05-19.33c0.78-1.98,1.69-3.9,2.54-5.85c0.83-2.19,0.74-2.36-1.37-2.76 c-0.24-0.05-0.48-0.17-0.71-0.14c-3.66,0.39-7.28,1-10.78,2.2c-1.06,0.36-1.84,1.01-2.28,2.08c-1.22,2.94-2.19,5.94-2.83,9.09 c-1.33,6.53-1.08,13.04-0.26,19.56c0.27,2.17,0.87,4.35,1.62,6.41c2.01,5.53,5.31,10.29,9.31,14.56c0.41,0.44,0.81,0.91,1.27,1.31 c0.45,0.39,0.95,0.72,1.57,0.88c0.1,0.27,0.33,0.38,0.6,0.41c0.92,0.91,1.97,1.63,3.07,2.25c1.1,0.62,2.26,1.14,3.43,1.64 c1.35,0.59,2.76,1.04,4.11,1.63c0.75,0.32,1.61,0.71,0.96,1.8c-0.36,0.6-0.11,0.92,0.45,1.09c0.55,0.16,1.11,0.36,1.67,0.39 c4.54,0.2,9.01-0.41,13.37-1.53c5.17-1.34,10.05-3.45,14.77-5.97c4.71-2.51,9.23-5.32,13.5-8.5c7.27-5.43,13.25-12.16,18.8-19.3 c1.25-1.6,2.48-3.2,3.73-4.8c1.79-2.28,3.61-4.55,5.5-6.75c0.25-0.3,0.51-0.59,0.77-0.88c0.7-0.8,1.42-1.59,2.15-2.37 c1.17-1.26,2.37-2.49,3.63-3.68c0.77-0.71,1.51-1.44,2.31-2.11c0.09-0.08,0.18-0.16,0.28-0.23c0.66-0.53,1.36-0.97,2.32-0.65 c0.36,0.64,0.29,1.19-0.02,1.71c-0.1,0.17-0.23,0.34-0.38,0.51c-5.04,5.69-9.24,12.04-13.98,17.97c-2.5,3.13-5.06,6.2-7.6,9.29 c-2.61,3.17-5.47,6.05-8.29,8.99c-1.88,1.96-4.14,3.47-6.22,5.18c-3.29,2.7-6.77,5.17-10.55,7.13c-3.39,1.77-6.69,3.69-10.19,5.27 c-3.62,1.63-7.33,2.88-11.16,3.65c-6.1,1.24-12.28,2.05-18.4,0.05c-2.09-0.68-4.13-1.53-6.18-2.34c-0.65-0.26-1.16-0.77-0.92-1.52 c0.24-0.74,0.92-0.81,1.62-0.75c1.27,0.1,2.53,0.41,4.06,0.13c-2.07-0.94-4.07-1.32-5.95-2.05c-4.97-1.94-8.27-5.72-11.37-9.74 c-3.75-4.87-6.17-10.4-7.42-16.4c-0.82-3.93-0.98-7.93-1.03-11.96c-0.02-1.83,0.13-3.63,0.36-5.42c0.39-2.98,1.03-5.93,1.52-8.9 c0.76-1.82,1.91-3.48,2.28-5.6c-1.16,0.59-2.02,1.44-3.36,1.71c-3.92,0.78-7.8,1.81-11.64,2.91c-3.69,1.05-7.34,2.24-10.96,3.52 c-2.37,0.84-4.73,1.78-6.95,2.95c-4.72,2.49-8.83,5.85-12.79,9.39c-2.99,2.67-5.86,5.47-8.65,8.36c-3.58,3.71-7.02,7.53-9.96,11.74 c-0.79,1.12-1.82,2.04-2.44,3.34c-1.16,2.41-2.44,4.8-3.97,6.98c-2.46,3.5-4.19,7.4-6.08,11.17c-3.29,6.57-6.47,13.19-9.65,19.81 c-2.62,5.46-5.72,10.65-9.03,15.72c-3.38,5.18-7.61,9.59-12.05,13.84c-1.04,1-2.75,1.61-2.31,3.6c0.03,0.15-0.23,0.44-0.43,0.55 c-1.4,0.81-1.32,2.15-1.28,3.47c0.05,1.39,0.09,2.78,0.26,4.15c0.33,2.68,0.71,5.35,2.39,7.62c0.17,1.91,1.32,3.37,2.42,4.75 c4.38,5.52,10.19,9.14,16.49,12.06c1.11,0.52,2.29,0.91,3.56,0.84c0.43-0.02,0.84,0.03,1.21,0.17c0.25,0.09,0.48,0.24,0.71,0.4 c0.11,0.08,0.22,0.15,0.32,0.25c0,0,0,0,0,0c-0.13,1.12-0.9,1.49-1.88,1.55c-1.14,0.07-2.3,0.08-3.41-0.25 c-3.85-1.14-7.55-2.6-11.03-4.65c-3.99-2.36-7.37-5.25-9.97-9.19c-2.6-3.94-3.86-8.25-4.73-12.77c-0.09-2.3,0.26-4.58,0.62-6.96 c-4.16,1.65-6.68,4.62-8.28,8.27c-1.52,3.45-2.28,7.19-1.98,10.98c0.09,1.18,0.15,2.37,0.28,3.55c0.08,0.79,0.19,1.57,0.35,2.34 c0.18,0.83,0.42,1.65,0.76,2.45c0.13,0.32,0.27,0.63,0.44,0.94c0.01,0.23,0.04,0.47,0.07,0.69c0.07,0.55,0.18,1.08,0.34,1.62 c0.08,0.25,0.17,0.51,0.27,0.76c1.01,2.52,2.35,4.84,3.74,7.16c2.19,3.66,4.94,6.62,8.55,8.96c4.56,2.96,9.58,4.35,14.86,4.41 c3.67,0.04,7.36-0.18,11.04-0.18c1.02,0,1.45-0.51,1.76-1.35c0.91-2.46,1.93-4.88,2.75-7.36c1.46-4.43,3.37-8.72,4.43-13.28 c1.66-3.67,2.74-7.54,4.08-11.32c2.84-8.04,5.68-16.08,8.76-24.04c0.41-1.05,0.67-1.82-0.32-2.84c-1.23-1.26-1.43-3.12-1.61-4.82 c-1.12-11.07,0.28-21.77,4.85-31.98c0.53-1.19,1.26-2.3,1.92-3.43c0.34-0.59,0.8-1.19,1.56-0.78c0.68,0.37,0.55,1.11,0.44,1.76 c-0.03,0.16-0.1,0.31-0.18,0.46c-3.92,7.5-5.12,15.65-5.82,23.94c-0.33,3.93-0.57,7.84,0.08,11.75c0.06,0.39,0.03,0.84,0.67,1.07 c1.26-1.97,1.94-4.22,2.84-6.36c2.79-6.57,5.44-13.19,8.95-19.43c1.74-3.09,3.94-5.84,6.44-8.36c0.09-0.09,0.18-0.18,0.28-0.27 c0.65-0.6,1.34-1,2.31-0.72c0.3,0.96-0.04,1.67-0.66,2.46c-1.01,1.28-2.14,2.46-3,3.87c-3.72,6.13-5.75,13.01-8.69,19.48 c-2.15,4.75-3.88,9.7-5.79,14.56c-1.34,3.42-2.93,6.76-3.95,10.27c-1.46,5.03-3.66,9.78-5.18,14.78c-1.07,3.52-2.27,7-3.43,10.49 c-1.08,3.24-2.02,6.54-3.33,9.69c-1.47,3.55-2.54,7.23-4.03,10.77c-1.19,2.84-2.1,5.83-3.25,8.7c-1.94,4.85-4,9.65-6.08,14.45 c-2.93,6.74-5.53,13.63-8.8,20.23c-2.09,4.23-4.3,8.36-7.13,12.15c-2.99,4.01-6.31,7.7-10.23,10.84c-0.64,0.51-1.4,0.96-1.83,1.62 c-1.29,1.94-3.09,3.34-4.76,4.89c-2.92,2.72-5.81,5.48-8.77,8.16c-2.24,2.03-4.5,4.05-6.86,5.92c-1.72,1.37-3.54,2.58-5.09,4.18 c-1.53,1.59-3.16,3.11-4.92,4.44c-3.39,2.57-6.73,5.2-9.95,7.98c-4.77,4.12-9.57,8.22-14.18,12.53c-3.77,3.52-7.3,7.3-10.74,11.16 c-0.72,0.81-1.89,1.37-1.16,2.83c0.17,0.35-0.2,0.92-0.65,1.23c-3.44,2.41-5.65,5.82-7.7,9.38c-3.48,6.05-6.05,12.48-8.18,19.11 c-0.6,1.86-1.11,3.77-1.45,5.69c-0.03,0.14-0.05,0.29-0.08,0.44c-0.15,0.74-0.31,1.51-0.1,2.25c0.02,0.06,0.05,0.12,0.08,0.19 c0.03,0.08,0.06,0.17,0.1,0.25c0.08,0.14,0.17,0.29,0.29,0.42c0.04,0.83,0.25,1.54,0.59,2.16s0.82,1.14,1.39,1.59 c0.38,0.3,0.8,0.56,1.26,0.79c3.69,1.89,7.61,2.81,11.79,2.63c4.56-0.2,9.14-0.09,13.62-1.16 C33.57,349.64,33.83,349.73,34.08,349.75z M281.67,394.57c-6.81,2.46-13.76,2.64-20.8,1.13c-1.84-0.06-3.52-0.79-5.16-1.48 c-7.31-3.06-14.38-6.63-21.37-10.36c-0.28-0.15-0.5-0.4-0.74-0.61c-0.48-0.07-0.94-0.12-1.38-0.42c-2.37-1.6-4.77-3.17-7.16-4.74 c-4.44-2.91-8.78-5.97-13.19-8.92c-4.1-2.74-8.15-5.57-12.46-8.01c2.18,0.88,4.39,1.72,6.36,2.94c1.47,0.9,3.19,1.19,4.58,2.26 c0.7,0.53,1.52,0.11,1.9-0.55c0.45-0.78-0.31-1.14-0.85-1.47c-1.05-0.64-2.11-1.26-3.18-1.86c-3.78-2.13-7.54-4.27-11.52-6.04 c-6.36-2.83-12.98-4.99-19.39-7.67c-8.87-3.7-18.09-6.16-27.5-8.04c-6.43-1.28-12.9-2.15-19.41-2.9 c-7.94-0.92-15.89-0.84-23.79-0.21c-13.64,1.09-27.21,2.86-40.77,4.72c-7.24,1-14.34,2.55-21.23,5.02c0.16,1.79,0.32,1.99,1.7,1.9 c0.57-0.04,1.14-0.17,1.7-0.27c7.26-1.23,14.63-1.65,21.87-3.17c4.24-0.89,8.62-1.01,12.94-1.42c5.79-0.54,11.51-1.55,17.3-2.08 c5.06-0.47,10.12-0.88,15.19-1.06c9.43-0.34,18.73,0.96,28.04,2.4c4.22,0.65,8.37,1.52,12.5,2.51c7.29,1.73,14.58,3.39,21.16,7.34 c4.34,2.6,8.97,4.72,13.35,7.28c5.8,3.38,11.67,6.63,17.23,10.42c2.57,1.75,5.02,3.67,7.67,5.31c3.47,2.15,6.79,4.53,10.21,6.77 c2.39,1.56,4.72,3.25,7.26,4.51c6.65,3.3,13.21,6.8,20.05,9.7c4.64,1.96,9.44,3.18,14.53,3.14c3.31-0.03,6.52-0.62,9.63-1.6 c2.64-0.83,5.29-1.72,7.49-3.53C283.84,394.03,282.85,394.15,281.67,394.57z M322.07,274.56c-0.06,0.2-0.29,0.22-0.53,0.25 c-0.72,1.36-1.08,2.88-1.98,4.15c0.02,0.17,0.02,0.33,0,0.49c-0.05,0.48-0.26,0.94-0.41,1.41c-1.25,3.91-2.39,7.87-2.92,11.92 c-1.2,9.1-1.73,18.27-3.06,27.36c-1.42,9.65-2.93,19.27-6.17,28.52c-2.8,7.98-6.08,15.73-10.71,22.87c-1.01,1.56-2.54,3.09-2.1,5.32 c0.05,0.27-0.18,0.62-0.35,0.89c-2.97,4.84-5.13,10.07-7.42,15.24c-0.36,0.82-0.72,1.68-1.55,2.36c1.08,2.05,1.45,2.06,2.89,0.19 c0.55-0.71,1.07-1.46,1.49-2.25c1.95-3.6,3.81-7.25,5.47-10.99c1.39-3.13,2.7-6.29,4.97-8.98c1.52-1.79,2.98-3.7,3.92-5.93 c1.18-2.79,2.45-5.54,3.74-8.29c2.09-4.44,3.75-9.05,5.01-13.77c1.67-6.25,3.03-12.56,3.96-18.97c1.09-7.46,2-14.93,2.71-22.44 c0.85-8.98,1.25-18.02,4.06-26.7c0.1-0.32,0.16-0.62,0.17-0.9c0.03-0.82-0.36-1.46-1.2-1.96 C322.07,274.44,322.08,274.51,322.07,274.56z M284.43,395.51c0.02,0.04,0.04,0.07,0.05,0.12c0.14-0.09,0.26-0.18,0.38-0.28 c-0.03-0.05-0.05-0.08-0.07-0.13C284.68,395.32,284.55,395.41,284.43,395.51z M433.3,172.4c-2.17,1.73-4.46,3.34-6.52,5.2 c-10.01,9.05-20.53,17.47-31.05,25.91c-2.17,1.74-4.45,3.24-6.84,4.5c-3.98,2.11-8.25,3.56-12.81,4.4c0,0,0,0,0,0 c-1.28,0.53-2.56,0.82-3.82,0.89c-0.42,0.02-0.84,0.02-1.26-0.01c-1.67-0.11-3.3-0.62-4.89-1.48c-3.52-1.92-6.91-4.07-9.39-7.35 c-0.29-0.39-0.59-0.8-0.75-1.25c-0.92-2.46-1.83-4.91-2.45-7.48c-0.49-2.05-0.83-4.02,0.55-5.89c0.34-0.46,0.54-1.02,0.13-1.6 c-0.81-1.15-0.47-2.36-0.15-3.55c0.47-1.74,0.98-3.47,1.46-5.2c0.16-0.58,0.6-0.96,0.97-1.4c3.1-3.72,6.53-7.13,10-10.49 c4.82-4.66,9.5-9.49,14.71-13.73c5.46-4.44,10.89-8.9,16.9-12.63c4.6-2.86,9.38-5.4,14.38-7.35c7.64-2.98,15.57-4.5,23.83-2.96 c2.53,0.47,4.9,1.34,7,2.87c0.46,0.34,0.94,0.66,1.39,1.02c0.69,0.55,1.45,1.02,2.15,0.18c0.77-0.92-0.16-1.43-0.7-2.02 c-2.39-2.6-5.48-4.11-8.62-5.53c-0.44-0.09-0.88-0.18-1.33-0.27s-0.88-0.19-1.32-0.3c-5.47-1.48-10.94-0.93-16.28,0.46 c-4.88,1.27-9.6,3.08-14.14,5.41c-5.19,2.66-10.11,5.74-14.88,9.04c-4.58,3.17-8.72,6.92-12.94,10.56 c-6.72,5.8-13,11.99-18.27,19.17c-0.29,0.39-0.53,0.92-1.29,1.04c0.78-2.86,0.9-5.67,1.57-8.34c1.52-6.02,2.46-12.16,3.84-18.21 c1.24-5.41,1.65-10.99,3.25-16.33c0.2-0.66,0.18-1.31-0.04-1.93c-0.28-0.8-0.79-1.5-1.69-1.62c-0.85-0.12-1.31,0.55-1.73,1.17 c-0.64,0.98-1,2.1-1.13,3.23c-0.26,2.21-0.85,4.34-1.23,6.52c-1.56,8.96-3.49,17.84-5.39,26.73c-1.4,6.56-2.81,13.13-4.51,19.62 c-1.35,5.15-2.86,10.26-4.47,15.34c-2.8,8.82-5.54,17.66-8.66,26.37c-4,11.19-8.39,22.23-13.02,33.17 c-4.44,10.49-8.26,21.24-13.27,31.48c-0.44,0.9-0.91,2.2-0.02,2.68c1.29,0.7,1.66-0.84,2.25-1.65c0.1-0.13,0.18-0.28,0.25-0.42 c1.44-2.76,2.82-5.55,4.33-8.27c0.62-1.12,0.98-2.42,2.11-3.22c0.07-0.4,0.16-0.79,0.28-1.17c0.35-1.14,0.91-2.2,1.58-3.21 c0.11-0.21,0.26-0.3,0.44-0.26c0.02,0,0.04,0.02,0.06,0.02c-0.34-0.33-0.32-0.67-0.18-0.99c0.09-0.21,0.23-0.42,0.34-0.6 c2.44-4.18,4.2-8.67,6.12-13.08c2.47-5.69,4.74-11.48,6.94-17.28c2.5-6.57,5.16-13.07,7.34-19.76c1.14-3.49,2.39-6.95,3.56-10.43 c0.87-2.56,1.61-5.16,2.22-7.8c0.44-1.92,1.34-3.74,2.05-5.67c0.24,0.19,0.35,0.22,0.36,0.29c0.11,0.39,0.22,0.78,0.29,1.18 c0.75,4.08,2.48,7.7,5.71,10.34c2.28,1.86,4.77,3.5,7.32,4.97c3.76,2.17,7.81,2.88,12.08,1.63c0.63-0.18,1.26-0.34,1.91-0.46 c6.79-1.26,12.99-4.05,18.51-8.06c4.88-3.54,9.39-7.6,13.99-11.52c2.68-2.28,4.97-4.99,7.65-7.28c1.37-1.16,2.58-2.51,3.91-3.71 c4.26-3.84,7.94-8.29,12.6-11.7c0.55-0.4,0.99-0.86,1.12-1.55C435.08,171.68,434.26,171.64,433.3,172.4z M329,7.03 c1.11,0.6,2.25,0.25,3.37,0.1c0.16-0.02,0.32-0.04,0.48-0.05c5.8-0.36,11.61-0.62,17.4-1.13c7.27-0.63,14.52-0.58,21.63,1.57 c3.84,1.16,7.73,2.19,11.46,3.63c6.64,2.55,12.48,6.43,17.62,11.37c4.16,4,7.7,8.51,10.49,13.54c2.54,4.57,4.74,9.33,6.82,14.14 c3.16,7.29,6.46,14.52,9.68,21.78c2.03,4.57,4.01,9.16,6.05,13.72c0.42,0.95,0.74,2.08,2.13,2.08c0.5-0.72,0.65-1.41,0.28-2.3 c-0.76-1.81-1.4-3.68-2.09-5.52c-2.73-7.2-5.42-14.42-8.19-21.6c-1.92-4.95-3.86-9.9-5.97-14.77c-1.96-4.53-4.21-8.91-6.9-13 c-3.83-5.84-8.51-10.99-14.04-15.33c-3.5-2.75-7.25-5.09-11.32-6.82c-7.56-3.2-15.33-5.69-23.53-6.73 c-4.35-0.55-8.66-0.48-12.99-0.09c-5.64,0.51-11.16,1.81-16.77,2.53c-1.93,0.25-3.94,0.41-5.65,1.56 C328.97,6.14,328.99,6.58,329,7.03z M460.64,133.87c-0.77-0.78-2.23-1.37-1.08-2.94c0.22-0.3-0.2-0.75-0.43-1.09 c-0.49-0.76-1.05-1.46-1.7-2.09c-2.89-2.83-5.35-6.04-7.04-9.69c-1.58-3.4-3.38-6.7-4.71-10.23c-2.14-5.66-4.87-11.08-7.34-16.6 c-0.17-0.39-0.35-0.76-0.56-1.09c-0.22-0.33-0.48-0.63-0.84-0.86c-1.82,0.68-1.22,2.07-0.92,3.31c2.28,9.44,6.22,18.25,10.24,27.04 c1.58,3.45,3.83,6.23,6.75,8.58c1.03,0.82,2.14,1.5,3.17,2.31c0.83,0.65,1.83,1.12,0.94,2.51c-0.44,0.69,0.18,1.44,0.64,1.99 c1.22,1.46,2.04,3.15,2.95,4.8c1.5,2.72,1.93,5.51,0.84,8.47c-0.81,2.8-3.01,4.62-4.87,6.62c-3.28,3.54-7.26,6.28-11.02,9.27 c-0.17,0.14-0.46,0.13-0.69,0.19c-0.94,1.3-2.15,2.31-3.38,3.29c-0.74,0.59-1.49,1.16-2.2,1.79c-0.71,0.62-1.35,1.17-1.17,2.22 c0.77,0.45,1.5,0.51,2.31,0.01c1.53-0.95,3.08-1.88,4.66-2.75c3.53-1.93,6.64-4.51,10.04-6.62c5.36-3.31,9.42-7.49,10.92-13.82 c0.81-3.4,0.6-6.55-1.12-9.7C463.92,136.73,462.18,135.43,460.64,133.87z M222.57,197.5c-0.74-0.16-1.65-0.28-1.9,0.61 c-0.63,2.25-2.46,3.44-4.07,4.76c-7.54,6.2-15.8,11.38-23.99,16.62c-6.27,4.02-12.4,8.24-18.71,12.2 c-5.34,3.35-10.67,6.69-16.29,9.54c-1.02,0.52-2.1,0.91-3.14,1.39c-0.69,0.32-1.41,0.7-1.1,1.63c0.33,0.99,1.15,0.75,1.85,0.5 c1.06-0.39,2.09-0.96,3.12-1.31c4.53-1.53,8.59-3.96,12.74-6.22c5.1-2.78,10.04-5.84,15.08-8.72c5.66-3.24,10.93-7.03,16.37-10.58 c3.6-2.35,6.89-5.18,10.24-7.9c3.3-2.68,6.44-5.56,9.29-8.73c0.65-0.72,1.38-1.43,1.41-2.51 C223.5,198.11,223.22,197.64,222.57,197.5z M171.05,226.98c1.25-0.78,2.51-1.54,3.77-2.31c0.65-0.4,1.36-0.83,0.94-1.72 c-0.5-1.04-1.36-0.62-2.13-0.33c-0.23,0.09-0.45,0.21-0.66,0.33c-1.35,0.77-2.71,1.52-4.04,2.33c-5.04,3.06-10.09,6.11-15.42,8.67 c-4.64,2.23-9.33,4.38-13.96,6.64c-9.65,4.7-18.87,10.21-28.54,14.87c-0.37,0.18-0.74,0.36-1.06,0.61c-0.45,0.35-0.5,0.83-0.23,1.31 c0.21,0.38,0.54,0.6,1.02,0.55c0.53-0.15,1.1-0.25,1.62-0.48c4.72-2.04,9.48-4,14.13-6.2c2.58-1.22,5.22-2.33,7.74-3.71 c5.16-2.84,10.44-5.46,15.64-8.24c3.96-2.12,8.03-4.03,11.82-6.46C164.79,230.85,167.93,228.93,171.05,226.98z M304.63,44 c-0.42-0.26-0.84-0.12-1.13,0.16c-0.34,0.34-0.61,0.77-0.84,1.2c-4.81,8.82-11.81,15.76-19.56,21.87 c-7.53,5.94-15.57,11.22-23.92,15.98c-2.35,1.34-4.67,2.73-7.01,4.1c-0.66,0.39-1.37,0.84-0.98,1.72c0.46,1.05,1.35,0.63,2.13,0.41 c0.16-0.04,0.29-0.14,0.44-0.22c6.11-2.99,12.14-6.13,18.01-9.55c5.24-3.05,10.16-6.62,14.67-10.7c3.71-3.36,7.35-6.8,10.48-10.71 c2.91-3.65,5.67-7.43,7.72-11.66c0.25-0.51,0.44-1.05,0.6-1.43C305.21,44.57,305.01,44.23,304.63,44z M362.32,65.56 c0.9,6,1.35,12.05,1.49,18.11c0.25,10.49,0.6,20.99-1.27,31.39c-0.09,0.47-0.14,1.01,0,1.45c0.17,0.55,0.61,0.99,1.26,1 c0.63,0.02,0.77-0.53,0.95-0.97c0.09-0.22,0.09-0.48,0.14-0.72c1.57-8.22,2.71-16.49,2.44-24.99c0.17-8.6-0.68-17.22-2.4-25.75 c-0.27-1.36-0.6-2.72-1-4.05c-0.26-0.87-0.68-1.86-1.87-1.4c-0.95,0.36-0.93,1.28-0.62,2.1C361.92,62.98,362.13,64.27,362.32,65.56z M450,154.25c1.63-5.98-2.37-13.53-8.66-15.48c-0.91-0.28-1.71-0.58-2.35,0.46c-0.56,0.9-1.48,0.59-2.24,0.43 c-4.12-0.87-8.02,0.1-11.74,1.63c-4.62,1.9-9.1,4.15-13.48,6.57c-3.88,2.14-7.59,4.55-10.97,7.4c-3.94,3.33-7.8,6.74-11.39,10.47 c-6.8,7.06-13,14.56-17.78,23.16c-2.09,3.76-3.43,7.79-3.93,12.08c-0.25,2.2,0.14,4.26,1.4,6.09c0.5,0.72,1.03,1.7,2.06,1.51 c1.28-0.24,0.6-1.47,0.84-2.25c-1.25-0.8-1.67-1.85-0.97-3.24c-0.24-1.54,0.28-2.94,0.88-4.28c2.09-4.68,4.03-9.39,7.07-13.65 c2.32-3.25,4.59-6.56,7.23-9.51c5.07-5.66,10.18-11.31,16.15-16.12c2.87-2.31,5.81-4.51,8.95-6.4c5.31-3.2,10.73-6.23,16.64-8.27 c3.89-1.34,7.79-2.4,11.95-1.72c0.31,0.05,0.71,0.1,0.96-0.05c1.4-0.84,2.23,0.09,2.85,1.03c1.36,2.05,2.5,4.2,2.7,6.76 c0.27,3.44-0.39,6.68-1.65,9.86c-0.24,0.6-0.38,0.99-0.36,1.27c0.03,0.47,0.48,0.65,1.62,1.06 C448.02,160.51,449.14,157.42,450,154.25z" fill="#225AC4"/></g></svg>