<?xml version="1.0" encoding="UTF-8"?><svg xmlns="http://www.w3.org/2000/svg" xmlns:xlink="http://www.w3.org/1999/xlink" height="432.1" preserveAspectRatio="xMidYMid meet" version="1.0" viewBox="-9.7 -0.0 339.8 432.1" width="339.8" zoomAndPan="magnify"><defs><clipPath id="a"><path d="M 0 0 L 317.839844 0 L 317.839844 432.070312 L 0 432.070312 Z M 0 0"/></clipPath><clipPath id="b"><path d="M 211 34 L 317.839844 34 L 317.839844 191 L 211 191 Z M 211 34"/></clipPath></defs><g><g clip-path="url(#a)" id="change1_1"><path d="M 300.179688 81.636719 C 299.78125 86.738281 298.640625 91.894531 296.804688 96.863281 C 294.933594 101.824219 292.410156 106.59375 289.355469 111.007812 C 283.242188 119.863281 274.953125 127.148438 265.582031 132.421875 C 264.390625 133.050781 263.214844 133.707031 262.015625 134.324219 C 260.78125 134.875 259.570312 135.46875 258.347656 136.046875 L 254.578125 137.585938 C 253.113281 138.128906 251.664062 138.714844 250.210938 139.28125 C 244.390625 141.582031 238.625 144.164062 232.929688 147.132812 C 231.734375 147.765625 230.546875 148.414062 229.359375 149.082031 C 239.738281 122.804688 246.035156 93.363281 249.800781 69.472656 C 251.539062 66.898438 253.34375 64.40625 255.234375 62.027344 C 258.910156 57.40625 262.980469 53.171875 267.351562 50.265625 C 269.535156 48.832031 271.769531 47.753906 273.921875 47.242188 C 276.074219 46.71875 278.097656 46.757812 280.074219 47.214844 C 282.058594 47.691406 284.023438 48.589844 285.988281 49.84375 C 286.480469 50.152344 286.957031 50.558594 287.441406 50.902344 C 287.925781 51.253906 288.410156 51.589844 288.875 52.042969 L 290.285156 53.296875 C 290.78125 53.691406 291.125 54.183594 291.566406 54.605469 C 294.957031 58.058594 297.226562 62.3125 298.683594 66.894531 C 300.054688 71.523438 300.546875 76.539062 300.179688 81.636719 Z M 84.914062 147.132812 C 79.21875 144.164062 73.453125 141.582031 67.632812 139.28125 C 66.179688 138.714844 64.730469 138.128906 63.265625 137.585938 L 59.496094 136.046875 C 58.273438 135.46875 57.058594 134.875 55.832031 134.324219 C 54.628906 133.707031 53.453125 133.050781 52.261719 132.421875 C 42.890625 127.148438 34.601562 119.863281 28.488281 111.007812 C 25.433594 106.59375 22.910156 101.824219 21.039062 96.863281 C 19.203125 91.894531 18.0625 86.738281 17.664062 81.636719 C 17.296875 76.539062 17.792969 71.523438 19.160156 66.894531 C 20.617188 62.3125 22.886719 58.058594 26.277344 54.605469 C 26.71875 54.183594 27.0625 53.691406 27.558594 53.296875 L 28.96875 52.042969 C 29.429688 51.589844 29.917969 51.253906 30.402344 50.902344 C 30.886719 50.558594 31.363281 50.152344 31.855469 49.84375 C 33.820312 48.589844 35.785156 47.691406 37.769531 47.214844 C 39.746094 46.757812 41.769531 46.71875 43.921875 47.242188 C 46.074219 47.753906 48.308594 48.832031 50.492188 50.265625 C 54.867188 53.171875 58.933594 57.40625 62.609375 62.027344 C 64.503906 64.40625 66.304688 66.898438 68.042969 69.472656 C 70.355469 84.160156 73.628906 100.941406 78.214844 117.796875 C 78.933594 120.4375 79.683594 123.082031 80.46875 125.71875 C 82.4375 132.328125 84.617188 138.902344 87.03125 145.3125 C 87.507812 146.578125 87.992188 147.835938 88.488281 149.085938 C 87.300781 148.414062 86.109375 147.765625 84.914062 147.132812 Z M 317.808594 77.300781 C 317.683594 75.511719 317.609375 73.730469 317.289062 71.941406 C 316.832031 68.371094 315.886719 64.804688 314.632812 61.355469 C 313.914062 59.652344 313.269531 57.929688 312.351562 56.304688 C 311.90625 55.488281 311.527344 54.648438 311.015625 53.867188 C 310.519531 53.078125 310.011719 52.300781 309.496094 51.527344 C 307.332031 48.507812 304.878906 45.671875 302.042969 43.316406 C 300.671875 42.0625 299.179688 41.070312 297.710938 40.046875 C 297.003906 39.519531 296.1875 39.0625 295.382812 38.601562 C 294.570312 38.152344 293.804688 37.671875 292.949219 37.261719 C 289.574219 35.589844 285.730469 34.382812 281.664062 34.074219 C 277.605469 33.746094 273.40625 34.535156 269.839844 36.117188 C 266.265625 37.722656 263.289062 39.980469 260.816406 42.453125 C 258.328125 44.925781 256.308594 47.640625 254.558594 50.417969 C 253.566406 52.003906 252.671875 53.617188 251.851562 55.253906 C 253.011719 46.363281 253.785156 38.78125 254.28125 33.140625 C 255.6875 33.3125 257.015625 32.226562 257.015625 30.71875 L 257.015625 21.011719 C 257.015625 20.296875 256.699219 19.621094 256.160156 19.152344 C 238.878906 4.035156 173.105469 0.566406 159.347656 0.00390625 C 159.203125 -0.00390625 159.0625 0.0117188 158.921875 0.0273438 C 158.78125 0.0117188 158.640625 -0.00390625 158.496094 0.00390625 C 144.738281 0.566406 78.964844 4.035156 61.683594 19.152344 C 61.144531 19.621094 60.828125 20.296875 60.828125 21.011719 L 60.828125 30.71875 C 60.828125 32.226562 62.15625 33.3125 63.558594 33.140625 C 64.058594 38.78125 64.832031 46.367188 65.996094 55.257812 C 65.171875 53.621094 64.28125 52.003906 63.285156 50.417969 C 61.535156 47.640625 59.515625 44.925781 57.027344 42.453125 C 54.550781 39.980469 51.578125 37.722656 48.003906 36.117188 C 44.4375 34.535156 40.238281 33.746094 36.175781 34.074219 C 32.117188 34.382812 28.269531 35.589844 24.894531 37.261719 C 24.039062 37.671875 23.273438 38.152344 22.460938 38.601562 C 21.65625 39.0625 20.84375 39.519531 20.132812 40.046875 C 18.664062 41.070312 17.175781 42.0625 15.800781 43.316406 C 12.964844 45.671875 10.511719 48.507812 8.347656 51.527344 C 7.832031 52.300781 7.324219 53.078125 6.828125 53.867188 C 6.316406 54.648438 5.9375 55.488281 5.492188 56.304688 C 4.574219 57.929688 3.929688 59.652344 3.210938 61.355469 C 1.957031 64.804688 1.011719 68.371094 0.550781 71.941406 C 0.234375 73.730469 0.160156 75.511719 0.0351562 77.300781 C -0.0273438 78.195312 0.015625 79.078125 0.00390625 79.96875 C 0.0195312 80.855469 -0.03125 81.753906 0.0507812 82.628906 C 0.40625 89.691406 1.894531 96.558594 4.234375 103.027344 C 6.605469 109.488281 9.785156 115.585938 13.621094 121.21875 C 21.277344 132.457031 31.574219 141.964844 43.648438 148.28125 C 45.175781 149.027344 46.691406 149.792969 48.230469 150.503906 C 49.792969 151.164062 51.359375 151.820312 52.941406 152.425781 L 57.75 154.046875 C 59.167969 154.488281 60.601562 154.890625 62.027344 155.308594 C 67.703125 157.035156 73.332031 158.800781 78.757812 160.808594 C 84.144531 162.8125 89.46875 165.078125 93.644531 167.859375 C 94.652344 168.558594 95.59375 169.28125 96.363281 170.011719 C 97.121094 170.738281 97.726562 171.460938 98.140625 172.160156 C 98.550781 172.867188 98.808594 173.5625 98.925781 174.453125 C 99.035156 175.339844 98.953125 176.417969 98.671875 177.632812 C 98.535156 178.238281 98.371094 178.871094 98.167969 179.527344 L 97.84375 180.523438 L 97.519531 181.457031 C 97.253906 182.285156 96.921875 182.894531 96.351562 183.417969 C 95.792969 183.949219 94.863281 184.300781 93.765625 184.433594 C 92.660156 184.570312 91.40625 184.445312 90.140625 184.164062 C 87.601562 183.574219 85.078125 182.21875 83.105469 180.292969 C 82.140625 179.320312 81.292969 178.175781 80.839844 176.847656 C 80.359375 175.53125 80.292969 174.015625 80.71875 172.523438 C 79.820312 173.78125 79.363281 175.425781 79.429688 177.105469 C 79.488281 178.792969 80.097656 180.421875 80.90625 181.90625 C 81.722656 183.394531 82.8125 184.71875 84.054688 185.886719 C 85.296875 187.058594 86.703125 188.078125 88.269531 188.90625 C 89.835938 189.738281 91.589844 190.335938 93.527344 190.59375 C 95.453125 190.832031 97.65625 190.71875 99.769531 189.75 C 101.882812 188.820312 103.691406 187.085938 104.800781 185.199219 L 105.167969 184.605469 L 105.480469 184.082031 L 106.007812 183.15625 C 113.265625 193.808594 121.71875 202.652344 131.558594 208.605469 C 134.378906 210.3125 137.324219 211.773438 140.378906 212.980469 C 143.066406 219.144531 145.191406 226.355469 146.8125 233.949219 C 143.066406 235.820312 140.695312 238.539062 140.695312 241.578125 C 140.695312 245.285156 144.226562 248.523438 149.492188 250.316406 C 151.882812 270.398438 151.117188 289.804688 148.039062 296.96875 C 148.023438 296.957031 148.003906 296.941406 147.988281 296.929688 C 146.070312 295.367188 143.246094 295.640625 141.671875 297.554688 C 140.328125 299.183594 140.335938 301.472656 141.542969 303.09375 C 138.363281 305.140625 134.40625 307.296875 130.378906 309.328125 L 91.136719 309.328125 L 82.742188 339.875 L 82.742188 357.101562 L 67.921875 418.070312 L 67.921875 432.070312 L 249.921875 432.070312 L 249.921875 418.070312 L 234.742188 355.613281 L 234.742188 339.875 L 235.101562 339.875 L 226.707031 309.328125 L 187.46875 309.328125 C 183.441406 307.296875 179.480469 305.140625 176.300781 303.09375 C 177.507812 301.472656 177.515625 299.183594 176.175781 297.554688 C 174.59375 295.636719 171.757812 295.363281 169.839844 296.941406 C 169.828125 296.953125 169.816406 296.960938 169.804688 296.96875 C 166.726562 289.804688 165.960938 270.398438 168.351562 250.316406 C 173.617188 248.523438 177.148438 245.285156 177.148438 241.578125 C 177.148438 238.539062 174.777344 235.820312 171.03125 233.949219 C 172.652344 226.355469 174.78125 219.140625 177.46875 212.976562 C 187.648438 208.957031 196.519531 202.023438 204.234375 193.101562 C 206.90625 190.011719 209.433594 186.675781 211.835938 183.152344 L 212.363281 184.082031 L 212.675781 184.605469 L 213.042969 185.199219 C 214.148438 187.085938 215.960938 188.820312 218.074219 189.75 C 220.1875 190.71875 222.390625 190.832031 224.316406 190.59375 C 226.257812 190.335938 228.007812 189.738281 229.574219 188.90625 C 231.140625 188.078125 232.546875 187.058594 233.789062 185.886719 C 235.03125 184.71875 236.121094 183.394531 236.9375 181.90625 C 237.746094 180.421875 238.355469 178.792969 238.414062 177.105469 C 238.480469 175.425781 238.023438 173.78125 237.125 172.523438 C 237.550781 174.015625 237.480469 175.53125 237.003906 176.847656 C 236.554688 178.175781 235.703125 179.320312 234.734375 180.292969 C 232.765625 182.21875 230.238281 183.574219 227.703125 184.164062 C 226.4375 184.445312 225.183594 184.570312 224.078125 184.433594 C 222.980469 184.300781 222.054688 183.949219 221.492188 183.417969 C 220.921875 182.894531 220.589844 182.285156 220.324219 181.457031 L 220 180.523438 L 219.675781 179.527344 C 219.472656 178.871094 219.308594 178.238281 219.171875 177.632812 C 218.890625 176.417969 218.808594 175.339844 218.917969 174.453125 C 219.03125 173.5625 219.292969 172.867188 219.703125 172.160156 C 220.117188 171.460938 220.722656 170.738281 221.480469 170.011719 C 222.25 169.28125 223.191406 168.558594 224.199219 167.859375 C 228.375 165.078125 233.699219 162.8125 239.085938 160.808594 C 244.511719 158.800781 250.140625 157.035156 255.816406 155.308594 C 257.242188 154.890625 258.675781 154.488281 260.09375 154.046875 L 264.902344 152.425781 C 266.484375 151.820312 268.050781 151.164062 269.613281 150.503906 C 271.152344 149.792969 272.667969 149.027344 274.195312 148.28125 C 286.269531 141.964844 296.566406 132.457031 304.226562 121.21875 C 308.058594 115.585938 311.234375 109.488281 313.609375 103.027344 C 315.945312 96.558594 317.441406 89.691406 317.792969 82.628906 C 317.875 81.753906 317.824219 80.855469 317.84375 79.96875 C 317.828125 79.078125 317.871094 78.195312 317.808594 77.300781" fill="#343c48"/></g><g id="change2_1"><path d="M 234.742188 355.613281 L 234.742188 407.875 L 82.742188 407.875 L 82.742188 357.101562 L 67.921875 418.070312 L 249.921875 418.070312 L 234.742188 355.613281" fill="#3e4686"/></g><g id="change2_2"><path d="M 235.101562 339.875 L 226.707031 309.328125 L 91.136719 309.328125 L 82.742188 339.875 L 235.101562 339.875" fill="#3e4686"/></g><g id="change3_1"><path d="M 187.023438 353.410156 L 151.714844 396.925781 L 159.140625 396.925781 L 193.113281 353.410156 L 187.023438 353.410156" fill="#fccd60"/></g><g id="change3_2"><path d="M 203.023438 353.671875 L 173.527344 396.925781 L 181.039062 396.925781 L 206.820312 355.375 C 205.699219 354.574219 204.414062 353.984375 203.023438 353.671875" fill="#fccd60"/></g><g id="change3_3"><path d="M 185.886719 396.925781 L 200.691406 396.925781 C 206.539062 396.925781 211.28125 392.1875 211.28125 386.339844 L 211.28125 363.996094 C 211.28125 361.554688 210.445312 359.3125 209.058594 357.523438 L 185.886719 396.925781" fill="#fccd60"/></g><g id="change3_4"><path d="M 155.007812 353.410156 L 110.09375 394.214844 C 111.785156 395.734375 113.964844 396.710938 116.371094 396.886719 L 161.195312 353.410156 L 155.007812 353.410156" fill="#fccd60"/></g><g id="change3_5"><path d="M 117.148438 353.410156 C 111.304688 353.410156 106.5625 358.148438 106.5625 363.996094 L 106.5625 386.210938 L 145.507812 353.410156 L 117.148438 353.410156" fill="#fccd60"/></g><g id="change3_6"><path d="M 166.53125 235.75 C 168.082031 236.273438 169.332031 236.800781 170.351562 237.324219 C 177.324219 240.910156 172.742188 244.347656 168.875 246.253906 C 166.925781 247.210938 165.160156 247.78125 165.160156 247.78125 C 173.507812 242.605469 166.53125 235.75 166.53125 235.75 Z M 149.492188 250.316406 C 152.246094 251.253906 155.464844 251.804688 158.921875 251.804688 C 162.378906 251.804688 165.597656 251.253906 168.351562 250.316406 C 173.617188 248.523438 177.148438 245.285156 177.148438 241.578125 C 177.148438 238.539062 174.777344 235.820312 171.03125 233.949219 C 167.8125 232.335938 163.578125 231.347656 158.921875 231.347656 C 154.265625 231.347656 150.03125 232.335938 146.8125 233.949219 C 143.066406 235.820312 140.695312 238.539062 140.695312 241.578125 C 140.695312 245.285156 144.226562 248.523438 149.492188 250.316406" fill="#fccd60"/></g><g id="change3_7"><path d="M 171.003906 304.648438 C 175.101562 300.550781 169.664062 299.851562 169.664062 299.851562 C 170.347656 299.675781 170.941406 299.546875 171.460938 299.453125 C 175.164062 298.792969 175.0625 300.082031 174.023438 301.542969 C 172.984375 303.007812 171.003906 304.648438 171.003906 304.648438 Z M 169.839844 296.941406 C 169.828125 296.953125 169.816406 296.960938 169.804688 296.96875 C 159.457031 305.460938 149.382812 298.035156 148.039062 296.96875 C 148.023438 296.957031 148.003906 296.941406 147.988281 296.929688 C 146.070312 295.367188 143.246094 295.640625 141.671875 297.554688 C 140.328125 299.183594 140.335938 301.472656 141.542969 303.09375 C 141.753906 303.378906 141.992188 303.652344 142.28125 303.890625 C 145.671875 306.679688 152.039062 309.945312 159.394531 309.945312 C 164.53125 309.945312 170.148438 308.351562 175.5625 303.890625 C 175.851562 303.652344 176.089844 303.378906 176.300781 303.09375 C 177.507812 301.472656 177.515625 299.183594 176.175781 297.554688 C 174.59375 295.636719 171.757812 295.363281 169.839844 296.941406" fill="#fccd60"/></g><g id="change3_8"><path d="M 190.355469 199.964844 C 235.28125 89.238281 214.871094 33.316406 214.871094 33.316406 C 231.609375 32.082031 243.398438 36.75 243.398438 36.75 C 232.671875 146.871094 190.355469 199.964844 190.355469 199.964844 Z M 253.671875 32.980469 C 242.105469 28.367188 202.183594 14.007812 159.4375 16.941406 C 159.261719 16.953125 159.089844 16.945312 158.921875 16.921875 C 158.753906 16.945312 158.582031 16.953125 158.40625 16.941406 C 115.660156 14.007812 75.738281 28.367188 64.171875 32.980469 C 63.96875 33.0625 63.765625 33.113281 63.558594 33.140625 C 64.058594 38.78125 64.832031 46.367188 65.996094 55.257812 C 66.578125 59.699219 67.253906 64.460938 68.042969 69.472656 C 70.355469 84.160156 73.628906 100.941406 78.214844 117.796875 C 78.933594 120.4375 79.683594 123.082031 80.46875 125.71875 C 82.4375 132.328125 84.617188 138.902344 87.03125 145.3125 C 87.507812 146.578125 87.992188 147.835938 88.488281 149.085938 C 93.371094 161.449219 99.15625 173.105469 106.007812 183.15625 C 113.265625 193.808594 121.71875 202.652344 131.558594 208.605469 C 134.378906 210.3125 137.324219 211.773438 140.378906 212.980469 C 141.605469 213.464844 142.851562 213.921875 144.117188 214.320312 C 148.648438 215.742188 153.429688 216.601562 158.476562 216.820312 C 158.628906 216.824219 158.777344 216.8125 158.921875 216.792969 C 159.066406 216.8125 159.214844 216.824219 159.367188 216.820312 C 164.695312 216.589844 169.722656 215.640625 174.480469 214.070312 C 175.488281 213.734375 176.480469 213.363281 177.46875 212.976562 C 187.648438 208.957031 196.519531 202.023438 204.234375 193.101562 C 206.90625 190.011719 209.433594 186.675781 211.832031 183.152344 C 212.804688 181.730469 213.757812 180.285156 214.683594 178.800781 C 220.308594 169.796875 225.164062 159.699219 229.359375 149.082031 C 239.738281 122.804688 246.035156 93.363281 249.800781 69.472656 C 250.59375 64.460938 251.269531 59.695312 251.851562 55.253906 C 253.011719 46.363281 253.785156 38.78125 254.28125 33.140625 C 254.078125 33.113281 253.871094 33.0625 253.671875 32.980469" fill="#fccd60"/></g><g id="change4_2"><path d="M 24.660156 50.921875 C 24.660156 50.921875 0.125 70.960938 17.574219 99.859375 C 17.574219 99.859375 -9.691406 66.324219 24.660156 50.921875 Z M 84.914062 147.132812 C 79.21875 144.164062 73.453125 141.582031 67.632812 139.28125 C 66.179688 138.714844 64.730469 138.128906 63.265625 137.585938 L 59.496094 136.046875 C 58.273438 135.46875 57.058594 134.875 55.832031 134.324219 C 54.628906 133.707031 53.453125 133.050781 52.261719 132.421875 C 42.890625 127.148438 34.601562 119.863281 28.488281 111.007812 C 25.433594 106.59375 22.910156 101.824219 21.039062 96.863281 C 19.203125 91.894531 18.0625 86.738281 17.664062 81.636719 C 17.296875 76.539062 17.792969 71.523438 19.160156 66.894531 C 20.617188 62.3125 22.886719 58.058594 26.277344 54.605469 C 26.71875 54.183594 27.0625 53.691406 27.558594 53.296875 L 28.96875 52.042969 C 29.429688 51.589844 29.917969 51.253906 30.402344 50.902344 C 30.886719 50.558594 31.363281 50.152344 31.855469 49.84375 C 33.820312 48.589844 35.785156 47.691406 37.769531 47.214844 C 39.746094 46.757812 41.769531 46.71875 43.921875 47.242188 C 46.074219 47.753906 48.308594 48.832031 50.492188 50.265625 C 54.867188 53.171875 58.933594 57.40625 62.609375 62.027344 C 64.503906 64.40625 66.304688 66.898438 68.042969 69.472656 C 67.253906 64.460938 66.578125 59.699219 65.996094 55.257812 C 65.171875 53.621094 64.28125 52.003906 63.285156 50.417969 C 61.535156 47.640625 59.515625 44.925781 57.027344 42.453125 C 54.550781 39.980469 51.578125 37.722656 48.003906 36.117188 C 44.4375 34.535156 40.238281 33.746094 36.175781 34.074219 C 32.117188 34.382812 28.269531 35.589844 24.890625 37.261719 C 24.039062 37.671875 23.273438 38.152344 22.460938 38.601562 C 21.65625 39.0625 20.84375 39.519531 20.132812 40.046875 C 18.664062 41.070312 17.175781 42.0625 15.800781 43.316406 C 12.964844 45.671875 10.511719 48.507812 8.347656 51.527344 C 7.832031 52.300781 7.324219 53.078125 6.828125 53.867188 C 6.316406 54.648438 5.9375 55.488281 5.492188 56.304688 C 4.574219 57.929688 3.929688 59.652344 3.210938 61.355469 C 1.957031 64.804688 1.011719 68.371094 0.550781 71.941406 C 0.234375 73.730469 0.160156 75.511719 0.0351562 77.300781 C -0.0273438 78.195312 0.0117188 79.078125 0 79.96875 C 0.0195312 80.855469 -0.03125 81.753906 0.0507812 82.628906 C 0.40625 89.691406 1.894531 96.558594 4.234375 103.027344 C 6.605469 109.488281 9.785156 115.585938 13.621094 121.21875 C 21.277344 132.457031 31.574219 141.964844 43.648438 148.28125 C 45.175781 149.027344 46.691406 149.792969 48.230469 150.503906 C 49.792969 151.164062 51.359375 151.820312 52.941406 152.425781 L 57.75 154.046875 C 59.167969 154.488281 60.601562 154.890625 62.027344 155.308594 C 67.703125 157.035156 73.332031 158.800781 78.757812 160.808594 C 84.144531 162.8125 89.46875 165.078125 93.644531 167.859375 C 94.652344 168.558594 95.59375 169.28125 96.363281 170.011719 C 97.121094 170.738281 97.726562 171.460938 98.140625 172.160156 C 98.550781 172.867188 98.808594 173.5625 98.925781 174.453125 C 99.035156 175.339844 98.953125 176.417969 98.671875 177.632812 C 98.535156 178.238281 98.371094 178.871094 98.167969 179.527344 L 97.84375 180.523438 L 97.519531 181.457031 C 97.253906 182.285156 96.921875 182.894531 96.351562 183.417969 C 95.792969 183.949219 94.863281 184.300781 93.765625 184.433594 C 92.660156 184.570312 91.40625 184.445312 90.140625 184.164062 C 87.601562 183.574219 85.078125 182.21875 83.105469 180.292969 C 82.140625 179.320312 81.292969 178.175781 80.839844 176.847656 C 80.359375 175.53125 80.292969 174.015625 80.71875 172.523438 C 79.820312 173.78125 79.363281 175.425781 79.429688 177.105469 C 79.488281 178.792969 80.097656 180.421875 80.90625 181.90625 C 81.722656 183.394531 82.8125 184.71875 84.054688 185.886719 C 85.296875 187.058594 86.703125 188.078125 88.269531 188.90625 C 89.835938 189.738281 91.585938 190.335938 93.527344 190.59375 C 95.453125 190.832031 97.65625 190.71875 99.769531 189.75 C 101.882812 188.820312 103.691406 187.085938 104.800781 185.199219 L 105.167969 184.605469 L 105.480469 184.082031 L 106.007812 183.15625 C 99.15625 173.105469 93.371094 161.449219 88.488281 149.085938 C 87.300781 148.414062 86.109375 147.765625 84.914062 147.132812" fill="#dd792a"/></g><g clip-path="url(#b)" id="change4_1"><path d="M 299.007812 112.351562 C 320.03125 69.5 295.640625 50.921875 295.640625 50.921875 C 330.121094 66.898438 299.007812 112.351562 299.007812 112.351562 Z M 317.808594 77.300781 C 317.683594 75.511719 317.609375 73.730469 317.289062 71.941406 C 316.832031 68.371094 315.886719 64.804688 314.632812 61.355469 C 313.914062 59.652344 313.269531 57.929688 312.351562 56.304688 C 311.90625 55.488281 311.527344 54.648438 311.015625 53.867188 C 310.519531 53.078125 310.011719 52.300781 309.496094 51.527344 C 307.332031 48.507812 304.878906 45.671875 302.042969 43.316406 C 300.667969 42.0625 299.179688 41.070312 297.710938 40.046875 C 297.003906 39.519531 296.1875 39.0625 295.382812 38.601562 C 294.570312 38.152344 293.804688 37.671875 292.949219 37.261719 C 289.574219 35.589844 285.726562 34.382812 281.664062 34.074219 C 277.605469 33.746094 273.40625 34.535156 269.839844 36.117188 C 266.265625 37.722656 263.289062 39.980469 260.816406 42.453125 C 258.328125 44.925781 256.308594 47.640625 254.558594 50.417969 C 253.566406 52.003906 252.671875 53.617188 251.851562 55.253906 C 251.269531 59.695312 250.59375 64.460938 249.800781 69.472656 C 251.539062 66.898438 253.339844 64.40625 255.234375 62.027344 C 258.910156 57.40625 262.976562 53.171875 267.351562 50.265625 C 269.535156 48.832031 271.769531 47.753906 273.921875 47.242188 C 276.074219 46.71875 278.097656 46.757812 280.074219 47.214844 C 282.058594 47.691406 284.023438 48.589844 285.988281 49.84375 C 286.480469 50.152344 286.957031 50.558594 287.441406 50.902344 C 287.925781 51.253906 288.410156 51.589844 288.875 52.042969 L 290.285156 53.296875 C 290.78125 53.691406 291.125 54.183594 291.566406 54.605469 C 294.957031 58.058594 297.226562 62.3125 298.683594 66.894531 C 300.050781 71.523438 300.546875 76.539062 300.179688 81.636719 C 299.78125 86.738281 298.640625 91.894531 296.804688 96.863281 C 294.933594 101.824219 292.410156 106.59375 289.355469 111.007812 C 283.242188 119.863281 274.953125 127.148438 265.582031 132.421875 C 264.390625 133.050781 263.214844 133.707031 262.015625 134.324219 C 260.78125 134.875 259.570312 135.46875 258.347656 136.046875 L 254.578125 137.585938 C 253.113281 138.128906 251.664062 138.714844 250.210938 139.28125 C 244.390625 141.582031 238.625 144.164062 232.929688 147.132812 C 231.734375 147.765625 230.546875 148.414062 229.359375 149.082031 C 225.164062 159.699219 220.308594 169.796875 214.683594 178.800781 C 213.757812 180.285156 212.804688 181.730469 211.832031 183.152344 L 212.363281 184.082031 L 212.675781 184.605469 L 213.042969 185.199219 C 214.148438 187.085938 215.960938 188.820312 218.074219 189.75 C 220.1875 190.71875 222.390625 190.832031 224.316406 190.59375 C 226.257812 190.335938 228.007812 189.738281 229.574219 188.90625 C 231.140625 188.078125 232.546875 187.058594 233.789062 185.886719 C 235.03125 184.71875 236.121094 183.394531 236.9375 181.90625 C 237.746094 180.421875 238.355469 178.792969 238.414062 177.105469 C 238.480469 175.425781 238.023438 173.78125 237.125 172.523438 C 237.550781 174.015625 237.480469 175.53125 237.003906 176.847656 C 236.550781 178.175781 235.703125 179.320312 234.734375 180.292969 C 232.765625 182.21875 230.238281 183.574219 227.703125 184.164062 C 226.4375 184.445312 225.183594 184.570312 224.078125 184.433594 C 222.980469 184.300781 222.050781 183.949219 221.492188 183.417969 C 220.921875 182.894531 220.589844 182.285156 220.324219 181.457031 L 220 180.523438 L 219.675781 179.527344 C 219.472656 178.871094 219.308594 178.238281 219.171875 177.632812 C 218.890625 176.417969 218.808594 175.339844 218.917969 174.453125 C 219.03125 173.5625 219.292969 172.867188 219.703125 172.160156 C 220.117188 171.460938 220.722656 170.738281 221.480469 170.011719 C 222.25 169.28125 223.191406 168.558594 224.199219 167.859375 C 228.375 165.078125 233.699219 162.8125 239.085938 160.808594 C 244.511719 158.800781 250.140625 157.035156 255.816406 155.308594 C 257.242188 154.890625 258.675781 154.488281 260.09375 154.046875 L 264.902344 152.425781 C 266.484375 151.820312 268.050781 151.164062 269.613281 150.503906 C 271.152344 149.792969 272.667969 149.027344 274.195312 148.28125 C 286.269531 141.964844 296.566406 132.457031 304.222656 121.21875 C 308.058594 115.585938 311.234375 109.488281 313.609375 103.027344 C 315.945312 96.558594 317.441406 89.691406 317.792969 82.628906 C 317.875 81.753906 317.824219 80.855469 317.84375 79.96875 C 317.828125 79.078125 317.871094 78.195312 317.808594 77.300781" fill="#dd792a"/></g><g id="change4_3"><path d="M 169.570312 229.652344 C 169.570312 229.652344 160.09375 222.726562 172.15625 219.261719 C 172.15625 219.261719 168.105469 225.367188 169.570312 229.652344 Z M 159.367188 216.820312 C 159.214844 216.824219 159.066406 216.8125 158.921875 216.792969 C 158.777344 216.8125 158.628906 216.824219 158.476562 216.820312 C 153.429688 216.601562 148.648438 215.742188 144.117188 214.320312 C 142.851562 213.921875 141.605469 213.464844 140.378906 212.980469 C 143.066406 219.144531 145.191406 226.355469 146.8125 233.949219 C 150.03125 232.335938 154.265625 231.347656 158.921875 231.347656 C 163.578125 231.347656 167.8125 232.335938 171.03125 233.949219 C 172.652344 226.355469 174.78125 219.140625 177.46875 212.976562 C 176.480469 213.363281 175.488281 213.734375 174.480469 214.070312 C 169.722656 215.640625 164.695312 216.589844 159.367188 216.820312" fill="#dd792a"/></g><g id="change4_4"><path d="M 161.109375 271.453125 C 162.011719 257.734375 166.328125 254.484375 166.328125 254.484375 C 166.328125 254.484375 160.378906 273.996094 166.902344 295.917969 C 166.902344 295.917969 160.210938 285.167969 161.109375 271.453125 Z M 149.492188 250.316406 C 151.882812 270.398438 151.117188 289.804688 148.039062 296.96875 C 149.382812 298.035156 159.457031 305.460938 169.804688 296.96875 C 166.726562 289.804688 165.960938 270.398438 168.351562 250.316406 C 165.597656 251.253906 162.378906 251.804688 158.921875 251.804688 C 155.464844 251.804688 152.246094 251.253906 149.492188 250.316406" fill="#dd792a"/></g><g id="change4_5"><path d="M 199.101562 317.835938 C 207.222656 320.003906 184.128906 327.222656 174.648438 327.222656 C 174.648438 327.222656 200.78125 322.890625 177.199219 307.367188 C 177.199219 307.367188 190.980469 315.671875 199.101562 317.835938 Z M 159.394531 309.945312 C 152.039062 309.945312 145.671875 306.679688 142.28125 303.890625 C 141.992188 303.652344 141.753906 303.378906 141.542969 303.09375 C 133.621094 308.203125 120.839844 313.976562 114.253906 316.832031 C 112.425781 317.625 112.273438 320.15625 113.988281 321.171875 C 130.925781 331.207031 151.457031 332.808594 158.507812 333.058594 C 158.648438 333.0625 158.785156 333.046875 158.921875 333.03125 C 159.058594 333.046875 159.191406 333.0625 159.335938 333.058594 C 166.386719 332.808594 186.917969 331.207031 203.855469 321.171875 C 205.566406 320.15625 205.417969 317.625 203.589844 316.832031 C 197.003906 313.976562 184.222656 308.203125 176.300781 303.09375 C 176.089844 303.378906 175.851562 303.652344 175.5625 303.890625 C 170.148438 308.351562 164.53125 309.945312 159.394531 309.945312" fill="#dd792a"/></g><g id="change4_6"><path d="M 228.261719 19.289062 C 221.949219 16.832031 216.878906 14.570312 216.878906 14.570312 C 254.773438 25.125 247.339844 16.488281 247.339844 16.488281 C 249.6875 18.835938 251.128906 20.636719 251.847656 21.980469 C 255.546875 28.929688 239.824219 23.789062 228.261719 19.289062 Z M 256.160156 19.152344 C 238.878906 4.035156 173.105469 0.566406 159.347656 0.00390625 C 159.203125 -0.00390625 159.0625 0.0117188 158.921875 0.0273438 C 158.78125 0.0117188 158.640625 -0.00390625 158.496094 0.00390625 C 144.738281 0.566406 78.964844 4.035156 61.683594 19.152344 C 61.144531 19.621094 60.828125 20.296875 60.828125 21.011719 L 60.828125 30.71875 C 60.828125 32.226562 62.15625 33.3125 63.558594 33.140625 C 63.765625 33.113281 63.96875 33.0625 64.171875 32.980469 C 75.738281 28.367188 115.660156 14.007812 158.40625 16.941406 C 158.582031 16.953125 158.753906 16.945312 158.921875 16.921875 C 159.089844 16.945312 159.261719 16.953125 159.4375 16.941406 C 202.183594 14.007812 242.105469 28.367188 253.671875 32.980469 C 253.871094 33.0625 254.078125 33.113281 254.28125 33.140625 C 255.6875 33.3125 257.015625 32.226562 257.015625 30.71875 L 257.015625 21.011719 C 257.015625 20.296875 256.699219 19.621094 256.160156 19.152344" fill="#dd792a"/></g><g id="change5_1"><path d="M 161.195312 353.410156 L 116.371094 396.886719 C 116.632812 396.90625 116.886719 396.925781 117.148438 396.925781 L 151.714844 396.925781 L 187.023438 353.410156 L 161.195312 353.410156" fill="#fff"/></g><g id="change5_2"><path d="M 200.691406 353.410156 L 193.113281 353.410156 L 159.140625 396.925781 L 173.527344 396.925781 L 203.023438 353.671875 C 202.273438 353.503906 201.496094 353.410156 200.691406 353.410156" fill="#fff"/></g><g id="change5_3"><path d="M 145.507812 353.410156 L 106.5625 386.210938 L 106.5625 386.339844 C 106.5625 389.472656 107.929688 392.277344 110.09375 394.214844 L 155.007812 353.410156 L 145.507812 353.410156" fill="#fff"/></g><g id="change5_4"><path d="M 206.820312 355.375 L 181.039062 396.925781 L 185.886719 396.925781 L 209.058594 357.523438 C 208.421875 356.699219 207.671875 355.976562 206.820312 355.375" fill="#fff"/></g><g id="change5_5"><path d="M 214.871094 33.316406 C 214.871094 33.316406 235.28125 89.238281 190.355469 199.964844 C 190.355469 199.964844 232.671875 146.871094 243.398438 36.75 C 243.398438 36.75 231.609375 32.082031 214.871094 33.316406" fill="#fff"/></g><g id="change5_6"><path d="M 171.460938 299.453125 C 170.941406 299.546875 170.347656 299.675781 169.664062 299.851562 C 169.664062 299.851562 175.101562 300.550781 171.003906 304.648438 C 171.003906 304.648438 172.984375 303.007812 174.023438 301.542969 C 175.0625 300.082031 175.164062 298.792969 171.460938 299.453125" fill="#fff"/></g><g id="change5_7"><path d="M 295.640625 50.921875 C 295.640625 50.921875 320.03125 69.5 299.007812 112.351562 C 299.007812 112.351562 330.121094 66.898438 295.640625 50.921875" fill="#fff"/></g><g id="change5_8"><path d="M 251.847656 21.980469 C 251.128906 20.636719 249.6875 18.835938 247.339844 16.488281 C 247.339844 16.488281 254.773438 25.125 216.878906 14.570312 C 216.878906 14.570312 221.949219 16.832031 228.261719 19.289062 C 239.824219 23.789062 255.546875 28.929688 251.847656 21.980469" fill="#fff"/></g><g id="change5_9"><path d="M 24.660156 50.921875 C -9.691406 66.324219 17.574219 99.859375 17.574219 99.859375 C 0.125 70.960938 24.660156 50.921875 24.660156 50.921875" fill="#fff"/></g><g id="change5_10"><path d="M 169.570312 229.652344 C 168.105469 225.367188 172.15625 219.261719 172.15625 219.261719 C 160.09375 222.726562 169.570312 229.652344 169.570312 229.652344" fill="#fff"/></g><g id="change5_11"><path d="M 166.328125 254.484375 C 166.328125 254.484375 162.011719 257.734375 161.109375 271.453125 C 160.210938 285.167969 166.902344 295.917969 166.902344 295.917969 C 160.378906 273.996094 166.328125 254.484375 166.328125 254.484375" fill="#fff"/></g><g id="change5_12"><path d="M 174.648438 327.222656 C 184.128906 327.222656 207.222656 320.003906 199.101562 317.835938 C 190.980469 315.671875 177.199219 307.367188 177.199219 307.367188 C 200.78125 322.890625 174.648438 327.222656 174.648438 327.222656" fill="#fff"/></g><g id="change5_13"><path d="M 170.351562 237.324219 C 169.332031 236.800781 168.082031 236.273438 166.53125 235.75 C 166.53125 235.75 173.507812 242.605469 165.160156 247.78125 C 165.160156 247.78125 166.925781 247.210938 168.875 246.253906 C 172.742188 244.347656 177.324219 240.910156 170.351562 237.324219" fill="#fff"/></g></g></svg>