<?xml version="1.0" encoding="UTF-8"?><svg xmlns="http://www.w3.org/2000/svg" xmlns:xlink="http://www.w3.org/1999/xlink" height="458.6" preserveAspectRatio="xMidYMid meet" version="1.0" viewBox="0.0 0.0 461.7 458.6" width="461.7" zoomAndPan="magnify"><g><g id="change1_1"><path d="M 349.144531 404.074219 L 290.71875 387.71875 C 248.925781 385.84375 219.484375 376.082031 198.472656 364.347656 C 203.046875 357.492188 208.027344 349.871094 213.007812 341.953125 C 221.757812 328.042969 230.507812 313.222656 237.09375 300.015625 C 238.359375 297.472656 239.546875 294.992188 240.636719 292.589844 L 329.867188 276.105469 L 336.929688 177.992188 C 336.929688 177.992188 258.441406 138.746094 247.449219 138.746094 C 247.449219 138.746094 190.9375 199.183594 183.875 210.171875 L 232.144531 294.15625 L 237.027344 293.253906 C 234.011719 299.71875 230.324219 306.742188 226.269531 313.949219 C 216.851562 330.703125 205.457031 348.488281 195.859375 362.855469 C 187.507812 357.964844 180.550781 352.78125 174.71875 347.71875 C 152.621094 328.539062 155.355469 318.636719 120.71875 287.71875 C 102.484375 271.441406 79.554688 254.394531 64.003906 240.316406 L 83.40625 202.324219 L 59.859375 126.1875 L 16.625 151.789062 C 28.042969 120.480469 46.175781 92.398438 69.285156 69.289062 C 110.242188 28.332031 166.808594 3.003906 229.308594 3.003906 L 229.308594 1.503906 L 229.308594 3.003906 C 291.804688 3.003906 348.375 28.332031 389.332031 69.289062 C 389.945312 69.902344 390.5625 70.523438 391.167969 71.148438 L 375.390625 64.964844 C 375.390625 64.964844 406.003906 104.210938 404.433594 138.746094 C 404.433594 138.746094 442.894531 163.078125 446.816406 188.195312 C 446.816406 188.195312 449.546875 187.332031 450.640625 181.894531 C 453.902344 197.1875 455.617188 213.046875 455.617188 229.3125 C 455.617188 259.632812 449.652344 288.558594 438.839844 314.984375 C 438.757812 307.492188 436.613281 303.574219 436.613281 303.574219 C 432.691406 315.347656 383.238281 342.820312 383.238281 342.820312 C 385.007812 369.304688 361.179688 393.582031 349.144531 404.074219 M 3.550781 213.417969 C 4.65625 197.441406 7.425781 181.925781 11.675781 167.03125 C 9.980469 177.28125 8.042969 191.445312 6.375 205.15625 C 5.164062 207.367188 4.238281 210.1875 3.550781 213.417969" fill="#fafbfb"/></g><g id="change2_1"><path d="M 229.308594 458.621094 C 213.878906 458.621094 198.816406 457.097656 184.242188 454.191406 C 186.78125 454.4375 189.3125 454.570312 191.816406 454.570312 C 192.785156 454.570312 193.75 454.550781 194.714844 454.511719 L 197.066406 453.445312 C 204.546875 454.574219 212.769531 455.714844 222.011719 457 C 222.855469 457.117188 223.910156 457.171875 225.15625 457.171875 C 233.246094 457.171875 249.332031 454.953125 267.421875 453.941406 C 297.136719 452.28125 338.925781 428.347656 358.191406 416.324219 L 358.9375 416.648438 C 373.464844 406.328125 385.417969 396.628906 395.230469 387.589844 C 353.472656 431.355469 294.578125 458.617188 229.308594 458.621094 M 135.9375 438.8125 C 55.835938 403.054688 0 322.703125 0 229.3125 C 0 102.667969 102.664062 0.00390625 229.308594 0.00390625 L 229.308594 3.003906 C 166.808594 3.003906 110.242188 28.332031 69.285156 69.289062 C 46.175781 92.398438 28.042969 120.480469 16.625 151.789062 L 14.621094 152.976562 C 13.851562 154.992188 12.820312 160.121094 11.675781 167.03125 C 7.425781 181.925781 4.65625 197.441406 3.550781 213.417969 C 1.449219 223.238281 1.519531 236.796875 2.300781 248.230469 C 2.304688 248.433594 2.3125 248.617188 2.324219 248.78125 C 2.332031 248.898438 2.34375 249.015625 2.367188 249.132812 C 2.644531 253.007812 3.003906 256.613281 3.386719 259.71875 C 4.5625 268.980469 6.410156 278.144531 8.910156 287.140625 C 10.148438 291.714844 17.386719 317.796875 31.976562 343.207031 C 50.929688 376.222656 77.742188 400.171875 99.050781 415.523438 C 99.246094 415.917969 99.457031 416.289062 99.675781 416.648438 C 99.675781 416.648438 114.996094 428.394531 135.9375 438.8125 M 437.859375 324.78125 C 438.613281 321.035156 438.867188 317.765625 438.839844 314.984375 C 449.652344 288.558594 455.617188 259.632812 455.617188 229.3125 C 455.617188 213.046875 453.902344 197.1875 450.640625 181.894531 C 451.285156 178.703125 451.367188 173.9375 450.003906 166.847656 C 455.613281 186.703125 458.617188 207.660156 458.617188 229.3125 C 458.617188 263.386719 451.1875 295.714844 437.859375 324.78125 M 396.867188 72.765625 C 395.917969 72.488281 395.25 72.433594 394.875 72.433594 C 394.632812 72.433594 394.511719 72.457031 394.511719 72.457031 L 391.167969 71.148438 C 390.5625 70.523438 389.945312 69.902344 389.332031 69.289062 C 348.375 28.332031 291.804688 3.003906 229.308594 3.003906 L 229.308594 0.00390625 C 295.429688 0.00390625 355.015625 27.992188 396.867188 72.765625" fill="#eaebeb"/></g><g id="change3_1"><path d="M 33.285156 253.695312 C 33.296875 253.746094 39.195312 277.941406 51.113281 306.507812 C 57.074219 320.792969 64.539062 336.171875 73.546875 350.183594 C 82.554688 364.191406 93.101562 376.839844 105.289062 385.636719 L 107.046875 383.203125 C 95.296875 374.734375 84.941406 362.367188 76.070312 348.558594 C 62.753906 327.851562 52.769531 303.933594 46.128906 285.210938 C 42.808594 275.847656 40.324219 267.78125 38.671875 262.0625 C 37.84375 259.203125 37.222656 256.929688 36.8125 255.371094 C 36.605469 254.59375 36.453125 253.996094 36.351562 253.59375 C 36.246094 253.1875 36.199219 252.988281 36.199219 252.984375 L 33.285156 253.695312" fill="#d3d4d3"/></g><g id="change3_2"><path d="M 178.023438 393.933594 C 178.035156 393.917969 195.511719 369.765625 213.007812 341.953125 C 221.757812 328.042969 230.507812 313.222656 237.09375 300.015625 C 240.386719 293.410156 243.140625 287.207031 245.078125 281.703125 C 247.015625 276.191406 248.160156 271.394531 248.164062 267.472656 L 245.164062 267.472656 C 245.171875 270.804688 244.132812 275.378906 242.25 280.707031 C 238.960938 290.042969 233.140625 301.730469 226.269531 313.949219 C 215.960938 332.285156 203.285156 351.855469 193.191406 366.828125 C 188.148438 374.316406 183.746094 380.65625 180.605469 385.121094 C 179.035156 387.355469 177.78125 389.117188 176.921875 390.324219 C 176.0625 391.53125 175.59375 392.175781 175.59375 392.175781 L 178.023438 393.933594" fill="#d3d4d3"/></g><g id="change3_3"><path d="M 70.476562 203.65625 C 70.476562 203.65625 71.503906 203.640625 73.390625 203.628906 C 75.277344 203.613281 78.011719 203.597656 81.417969 203.597656 C 95.898438 203.597656 122.472656 203.855469 147.050781 205.460938 C 159.339844 206.261719 171.132812 207.398438 180.632812 209.003906 C 185.382812 209.800781 189.558594 210.71875 192.914062 211.753906 C 196.265625 212.777344 198.800781 213.953125 200.199219 215.09375 C 208.390625 221.722656 212.441406 225.890625 214.398438 228.3125 C 215.375 229.523438 215.824219 230.292969 216.015625 230.691406 C 216.109375 230.886719 216.136719 230.992188 216.140625 231.007812 L 217.023438 230.804688 L 216.125 230.804688 C 216.125 230.933594 216.140625 231.003906 216.140625 231.007812 L 217.023438 230.804688 L 216.125 230.804688 L 219.125 230.804688 C 219.121094 230.511719 219.046875 230.078125 218.722656 229.398438 C 218.230469 228.375 217.175781 226.753906 214.695312 224.105469 C 212.214844 221.460938 208.304688 217.796875 202.085938 212.761719 C 200.144531 211.203125 197.34375 209.984375 193.796875 208.886719 C 187.597656 206.980469 179.113281 205.535156 169.417969 204.410156 C 140.359375 201.039062 100.476562 200.597656 81.417969 200.597656 C 74.589844 200.597656 70.441406 200.65625 70.433594 200.65625 L 70.476562 203.65625" fill="#d3d4d3"/></g><g id="change3_4"><path d="M 231.90625 436.136719 C 231.96875 436.148438 240.570312 437.523438 254.097656 437.523438 C 277.507812 437.519531 315.722656 433.414062 349.925781 410.789062 L 348.269531 408.289062 C 314.8125 430.4375 277.171875 434.527344 254.097656 434.523438 C 247.433594 434.523438 241.992188 434.183594 238.222656 433.847656 C 236.335938 433.675781 234.867188 433.507812 233.875 433.382812 C 233.378906 433.320312 233.003906 433.265625 232.753906 433.230469 C 232.625 433.210938 232.53125 433.199219 232.46875 433.1875 L 232.382812 433.175781 L 231.90625 436.136719" fill="#d3d4d3"/></g><g id="change3_5"><path d="M 443.1875 180.507812 L 443.199219 180.542969 C 443.535156 181.433594 449.589844 197.992188 449.589844 225.394531 C 449.589844 245.878906 446.210938 272.421875 434.519531 303.039062 L 437.320312 304.109375 C 449.148438 273.132812 452.589844 246.207031 452.589844 225.394531 C 452.589844 196.652344 446.035156 179.5625 445.984375 179.429688 L 443.1875 180.507812" fill="#d3d4d3"/></g><g id="change3_6"><path d="M 50.835938 139.671875 C 50.835938 139.671875 51.039062 139.410156 51.4375 138.910156 C 54.410156 135.148438 68.140625 117.929688 85.964844 97.523438 C 103.78125 77.121094 125.710938 53.527344 145.011719 37.0625 L 143.066406 34.78125 C 122.253906 52.539062 98.636719 78.277344 80.1875 99.597656 C 61.742188 120.914062 48.484375 137.808594 48.472656 137.820312 L 50.835938 139.671875" fill="#d3d4d3"/></g><g id="change3_7"><path d="M 260.1875 17.785156 C 260.1875 17.785156 260.265625 17.796875 260.425781 17.820312 C 262.910156 18.195312 284.503906 21.601562 308.921875 29.253906 C 321.128906 33.078125 334.042969 37.964844 345.609375 44.046875 C 357.175781 50.121094 367.386719 57.398438 374.222656 65.902344 L 376.558594 64.023438 C 369.09375 54.753906 358.113281 47.109375 345.859375 40.796875 C 327.476562 31.328125 306.195312 24.851562 289.488281 20.722656 C 272.78125 16.59375 260.652344 14.820312 260.621094 14.816406 L 260.1875 17.785156" fill="#d3d4d3"/></g><g id="change4_1"><path d="M 14.621094 152.976562 L 59.859375 126.1875 L 83.40625 202.324219 L 45.730469 276.105469 C 45.730469 276.105469 2.929688 258.242188 2.324219 248.78125 C 1.71875 239.320312 11.042969 162.375 14.621094 152.976562" fill="#211d1d"/></g><g id="change3_8"><path d="M 216.191406 42.640625 L 253.082031 162.734375 L 255.949219 161.851562 L 219.058594 41.761719" fill="#d3d4d3"/></g><g id="change3_9"><path d="M 325.15625 181.132812 C 325.15625 181.132812 393.007812 155.226562 413.242188 126.578125" fill="#d3d4d3"/></g><g id="change4_2"><path d="M 183.875 210.171875 L 232.144531 294.15625 L 329.867188 276.105469 L 336.929688 177.992188 C 336.929688 177.992188 258.441406 138.746094 247.449219 138.746094 C 247.449219 138.746094 190.9375 199.183594 183.875 210.171875" fill="#211d1d"/></g><g id="change4_3"><path d="M 135.992188 46.125 L 218.410156 50.835938 L 274.300781 17.867188 C 274.300781 17.867188 251.382812 0.441406 229.308594 1.503906 C 207.234375 2.5625 167.160156 5.855469 139.933594 19.710938 L 135.992188 46.125" fill="#211d1d"/></g><g id="change3_10"><path d="M 328.746094 277.105469 L 394.679688 350.886719 L 396.917969 348.886719 L 330.984375 275.105469" fill="#d3d4d3"/></g><g id="change4_4"><path d="M 394.511719 72.457031 L 375.390625 64.964844 C 375.390625 64.964844 406.003906 104.210938 404.433594 138.746094 C 404.433594 138.746094 442.894531 163.078125 446.816406 188.195312 C 446.816406 188.195312 461.730469 183.484375 435.828125 126.578125 C 409.925781 69.675781 394.511719 72.457031 394.511719 72.457031" fill="#211d1d"/></g><g id="change4_5"><path d="M 358.9375 416.648438 L 342.425781 409.539062 C 342.425781 409.539062 385.59375 378.140625 383.238281 342.820312 C 383.238281 342.820312 432.691406 315.347656 436.613281 303.574219 C 436.613281 303.574219 459.4375 345.265625 358.9375 416.648438" fill="#211d1d"/></g><g id="change4_6"><path d="M 99.675781 416.648438 C 99.675781 416.648438 151.394531 456.3125 194.714844 454.511719 L 236.460938 435.609375 C 236.460938 435.609375 192.507812 400.90625 183.875 382.851562 C 183.875 382.851562 119.089844 386.777344 99.675781 374.21875 C 99.675781 374.21875 92.402344 404.917969 99.675781 416.648438" fill="#211d1d"/></g><g id="change5_1"><path d="M 294.878906 263.441406 C 292.390625 263.441406 289.945312 262.46875 287.640625 260.167969 C 283.136719 255.675781 284.066406 247.96875 287.183594 242.425781 C 294.410156 229.585938 305.472656 221.164062 300.953125 204.652344 C 298.464844 195.820312 292.109375 188.597656 283.667969 185 C 282.621094 184.566406 281.566406 184.484375 280.5 184.484375 C 280.195312 184.484375 279.890625 184.492188 279.582031 184.5 C 279.277344 184.503906 278.96875 184.511719 278.660156 184.511719 C 277.402344 184.511719 276.128906 184.40625 274.820312 183.757812 C 271.410156 182.222656 268.996094 179.074219 268.394531 175.382812 C 267.753906 170.609375 270.398438 166 274.84375 164.140625 C 276.390625 163.492188 278.035156 163.214844 279.71875 163.214844 C 283.453125 163.214844 287.375 164.582031 290.800781 166.265625 C 315.808594 178.558594 338.976562 210.710938 322.101562 237.519531 C 317.503906 244.820312 305.773438 263.4375 294.878906 263.441406" fill="#242020"/></g><g id="change5_2"><path d="M 423.753906 146.292969 C 421.574219 146.292969 418.914062 143.199219 416.050781 133.050781 C 408.71875 107.050781 402.71875 90.386719 402.71875 90.386719 C 402.71875 90.386719 424.804688 113.410156 429.386719 138.746094 C 429.386719 138.746094 427.15625 146.292969 423.753906 146.292969" fill="#242020"/></g><g id="change6_1"><path d="M 229.308594 455.621094 C 218.421875 455.621094 207.714844 454.851562 197.242188 453.367188 L 234.527344 436.484375 C 238.054688 436.894531 244.949219 437.523438 254.097656 437.523438 C 277.09375 437.519531 314.367188 433.558594 348.097656 411.980469 L 357.328125 415.953125 C 320.921875 440.976562 276.828125 455.617188 229.308594 455.621094 M 254.136719 434.523438 C 254.125 434.523438 254.113281 434.523438 254.097656 434.523438 C 247.433594 434.523438 241.992188 434.183594 238.222656 433.847656 C 236.335938 433.675781 234.867188 433.507812 233.875 433.382812 C 233.800781 433.371094 233.726562 433.363281 233.65625 433.355469 C 224.171875 425.648438 193.414062 400 184.71875 384.476562 C 188.320312 379.324219 193.121094 372.359375 198.472656 364.347656 C 219.484375 376.082031 248.925781 385.84375 290.71875 387.71875 L 349.144531 404.074219 C 345.128906 407.574219 342.425781 409.539062 342.425781 409.539062 L 344.753906 410.542969 C 312.226562 430.703125 276.40625 434.523438 254.136719 434.523438 M 98.347656 413.902344 C 87.980469 406.53125 78.257812 398.308594 69.285156 389.335938 C 33.445312 353.496094 9.574219 305.707031 4.167969 252.445312 C 10.074219 259.414062 28.695312 268.476562 38.890625 273.101562 C 41.816406 282.28125 45.886719 293.976562 51.113281 306.507812 C 57.074219 320.792969 64.539062 336.171875 73.546875 350.183594 C 80.832031 361.511719 89.121094 371.953125 98.472656 380.183594 C 96.9375 388.785156 94.863281 404.648438 98.347656 413.902344 M 161.390625 383.433594 C 140.75 383.433594 111.625 381.945312 99.675781 374.21875 C 99.675781 374.21875 99.457031 375.148438 99.132812 376.746094 C 90.59375 368.945312 82.894531 359.179688 76.070312 348.558594 C 62.753906 327.851562 52.769531 303.933594 46.128906 285.210938 C 44.8125 281.492188 43.628906 277.984375 42.574219 274.742188 C 44.546875 275.609375 45.730469 276.105469 45.730469 276.105469 L 64.003906 240.316406 C 79.554688 254.394531 102.484375 271.441406 120.71875 287.71875 C 155.355469 318.636719 152.621094 328.539062 174.71875 347.71875 C 180.550781 352.78125 187.507812 357.964844 195.859375 362.855469 C 194.953125 364.210938 194.0625 365.535156 193.191406 366.828125 C 188.917969 373.171875 185.105469 378.691406 182.132812 382.945312 C 178.808594 383.109375 171.023438 383.433594 161.390625 383.433594 M 3.082031 235.476562 C 3.027344 233.429688 3 231.371094 3 229.3125 C 3 223.96875 3.183594 218.667969 3.550781 213.417969 C 4.238281 210.1875 5.164062 207.367188 6.375 205.15625 C 5.007812 216.359375 3.816406 227.257812 3.082031 235.476562" fill="#f5f5f5"/></g><g id="change7_1"><path d="M 225.15625 457.171875 C 223.910156 457.171875 222.855469 457.117188 222.011719 457 C 212.769531 455.714844 204.546875 454.574219 197.066406 453.445312 L 197.242188 453.367188 C 207.714844 454.851562 218.421875 455.621094 229.308594 455.621094 C 276.828125 455.617188 320.921875 440.976562 357.328125 415.953125 L 358.191406 416.324219 C 338.925781 428.347656 297.136719 452.28125 267.421875 453.941406 C 249.332031 454.953125 233.246094 457.171875 225.15625 457.171875 M 99.050781 415.523438 C 77.742188 400.171875 50.929688 376.222656 31.976562 343.207031 C 17.386719 317.796875 10.148438 291.714844 8.910156 287.140625 C 6.410156 278.144531 4.5625 268.980469 3.386719 259.71875 C 3.003906 256.613281 2.644531 253.007812 2.367188 249.132812 C 2.539062 250.15625 3.171875 251.269531 4.167969 252.445312 C 9.574219 305.707031 33.445312 353.496094 69.285156 389.335938 C 78.257812 398.308594 87.980469 406.53125 98.347656 413.902344 C 98.5625 414.46875 98.796875 415.011719 99.050781 415.523438 M 2.300781 248.230469 C 1.519531 236.796875 1.449219 223.238281 3.550781 213.417969 C 3.183594 218.667969 3 223.96875 3 229.3125 C 3 231.371094 3.027344 233.429688 3.082031 235.476562 C 2.546875 241.449219 2.25 246.003906 2.300781 248.230469" fill="#e4e4e4"/></g><g id="change8_1"><path d="M 98.472656 380.183594 C 89.121094 371.953125 80.832031 361.511719 73.546875 350.183594 C 64.539062 336.171875 57.074219 320.792969 51.113281 306.507812 C 45.886719 293.976562 41.816406 282.28125 38.890625 273.101562 C 40.296875 273.738281 41.542969 274.292969 42.574219 274.742188 C 43.628906 277.984375 44.8125 281.492188 46.128906 285.210938 C 52.769531 303.933594 62.753906 327.851562 76.070312 348.558594 C 82.894531 359.179688 90.59375 368.945312 99.132812 376.746094 C 98.941406 377.679688 98.714844 378.84375 98.472656 380.183594" fill="#cdcdcc"/></g><g id="change8_2"><path d="M 184.71875 384.476562 C 184.410156 383.921875 184.125 383.378906 183.875 382.851562 C 183.875 382.851562 183.257812 382.890625 182.132812 382.945312 C 185.105469 378.691406 188.917969 373.171875 193.191406 366.828125 C 194.0625 365.535156 194.953125 364.210938 195.859375 362.855469 C 196.71875 363.355469 197.585938 363.851562 198.472656 364.347656 C 193.121094 372.359375 188.320312 379.324219 184.71875 384.476562" fill="#cdcdcc"/></g><g id="change8_3"><path d="M 254.097656 437.523438 C 244.949219 437.523438 238.054688 436.894531 234.527344 436.484375 L 236.460938 435.609375 C 236.460938 435.609375 235.433594 434.796875 233.65625 433.355469 C 233.726562 433.363281 233.800781 433.371094 233.875 433.382812 C 234.867188 433.507812 236.335938 433.675781 238.222656 433.847656 C 241.992188 434.183594 247.433594 434.523438 254.097656 434.523438 C 254.113281 434.523438 254.125 434.523438 254.136719 434.523438 C 276.40625 434.523438 312.226562 430.703125 344.753906 410.542969 L 348.097656 411.980469 C 314.367188 433.558594 277.09375 437.519531 254.097656 437.523438" fill="#cdcdcc"/></g><g id="change4_7"><path d="M 45.730469 276.105469 C 45.730469 276.105469 44.546875 275.609375 42.574219 274.742188 C 41.542969 274.292969 40.296875 273.738281 38.890625 273.101562 C 28.695312 268.476562 10.074219 259.414062 4.167969 252.445312 C 3.171875 251.269531 2.539062 250.15625 2.367188 249.132812 C 2.34375 248.832031 2.324219 248.53125 2.300781 248.230469 C 2.25 246.003906 2.546875 241.449219 3.082031 235.476562 C 3.816406 227.257812 5.007812 216.359375 6.375 205.15625 C 7.683594 202.757812 9.332031 201.078125 11.382812 200.386719 C 12.371094 200.050781 13.675781 199.871094 15.15625 199.871094 C 19.515625 199.871094 25.421875 201.433594 29.390625 205.261719 C 29.53125 205.402344 29.636719 205.507812 29.683594 205.554688 C 43.320312 219.707031 50.324219 226.601562 55.371094 231.953125 C 57.859375 234.589844 60.773438 237.386719 64.003906 240.316406 L 45.730469 276.105469" fill="#211d1d"/></g><g id="change4_8"><path d="M 358.191406 416.324219 L 357.328125 415.953125 L 348.097656 411.980469 L 344.753906 410.542969 L 342.425781 409.539062 C 342.425781 409.539062 345.128906 407.574219 349.144531 404.074219 L 368.671875 409.539062 C 368.671875 409.539062 364.726562 412.246094 358.191406 416.324219" fill="#211d1d"/></g><g id="change4_9"><path d="M 197.066406 453.445312 C 170.601562 449.449219 153.441406 445.640625 133.386719 436.386719 C 132.058594 435.773438 117.652344 428.925781 99.050781 415.523438 C 98.796875 415.011719 98.5625 414.46875 98.347656 413.902344 C 94.863281 404.648438 96.9375 388.785156 98.472656 380.183594 C 98.714844 378.84375 98.941406 377.679688 99.132812 376.746094 C 99.457031 375.148438 99.675781 374.21875 99.675781 374.21875 C 111.625 381.945312 140.75 383.433594 161.390625 383.433594 C 171.023438 383.433594 178.808594 383.109375 182.132812 382.945312 C 183.257812 382.890625 183.875 382.851562 183.875 382.851562 C 184.125 383.378906 184.410156 383.921875 184.71875 384.476562 C 193.414062 400 224.171875 425.648438 233.65625 433.355469 C 235.433594 434.796875 236.460938 435.609375 236.460938 435.609375 L 234.527344 436.484375 L 197.242188 453.367188 L 197.066406 453.445312" fill="#211d1d"/></g></g></svg>