<?xml version="1.0" encoding="UTF-8"?><svg xmlns="http://www.w3.org/2000/svg" xmlns:xlink="http://www.w3.org/1999/xlink" height="309.3" preserveAspectRatio="xMidYMid meet" version="1.1" viewBox="55.6 57.3 313.5 309.3" width="313.5" zoomAndPan="magnify">
 <g id="surface1">
  <g id="change1_1"><path d="m365.25 114.67l-3.23 3.15-3.49-3.41 3.49-3.4 3.22 3.13 0.28 0.27zm-0.43 7.26l0.7 0.68-0.9 0.87-2.6 2.53-3.49-3.4 3.49-3.4zm-1.18 7.05v0.01l1.88 1.82-3.14 3.05-0.36 0.35-3.49-3.4 3.49-3.4zm-5.83 9.33l-3.5-3.4 3.5-3.4 3.5 3.4zm1.84 3.19l1.66 1.61-3.5 3.4-0.32-0.31-3.18-3.09 3.5-3.4zm-2.8 5.94l-3.26 3.17-3.49-3.4 3.49-3.41 3.42 3.33 0.08 0.08zm-7.47 7.27l-3.5-3.41 3.5-3.4 3.5 3.4zm-4.21 4.1l-3.5-3.41 3.5-3.4 3.49 3.4zm-4.22 4.09l-3.5-3.4 3.5-3.4 3.5 3.4zm-4.21 4.1l-3.5-3.4 3.5-3.4 3.49 3.4zm-4.22 4.1l-3.5-3.4 3.5-3.4 3.5 3.4zm-4.21 4.1l-3.5-3.4 3.5-3.4 3.49 3.4zm-4.22 4.1l-3.5-3.4 3.5-3.4 3.5 3.4zm-4.21 4.1l-3.5-3.4 3.5-3.4 3.49 3.4zm-4.22 4.1l-0.66-0.65-2.84-2.75 3.5-3.41 3.5 3.41-1.51 1.47zm-4.21 4.1l-2.4-2.33-1.1-1.07 3.5-3.41 2.56 2.5 0.93 0.91zm-7.72-7.5l3.5-3.41 3.5 3.41-3.5 3.4zm0.03 6.78l-0.74 0.72-0.44-0.42-3.06-2.98 3.5-3.41 3.49 3.41zm-4.96 4.82l-3.39-3.3-0.11-0.11 3.5-3.4 2.63 2.55 0.87 0.85zm-8.43 0l-3.17-3.08-0.33-0.33 3.5-3.4 3.5 3.4-0.27 0.26zm-7.71-7.5l3.5-3.41 3.5 3.41-3.5 3.4zm-4.21-4.1l3.49-3.41 3.5 3.41-3.5 3.4zm-0.4 7.18l-0.58 0.56-0.97-0.97-2.48-2.47 3.71-3.61 3.5 3.41zm-8.2-7.02l3.66-3.57 3.5 3.41-3.7 3.6zm-4.17-4.15l3.62-3.51 3.5 3.4-3.66 3.55zm-4.17-4.14l3.57-3.47 3.5 3.4-3.61 3.51zm-4.16-4.15l3.52-3.42 3.5 3.4-3.56 3.46zm-4.17-4.14l3.47-3.38 3.5 3.4-3.51 3.42zm-4.17-4.15l3.43-3.33 3.5 3.4-3.47 3.37zm-4.16-4.14l3.37-3.29 3.5 3.4-3.42 3.33zm-4.17-4.15l3.33-3.24 3.5 3.4-3.37 3.28zm-4.17-4.14l3.29-3.2 3.49 3.4-3.32 3.24zm-2.39-2.39l-1.77-1.76 1.04-1.01 2.19-2.14 3.5 3.41-3.28 3.18zm-1.75-9.41l-0.29-0.29 0.26-0.25 3.24-3.15 3.5 3.4-3.5 3.4zm-4.5-4.39l3.5-3.4 1 0.97 2.49 2.43-2.59 2.52-0.9 0.88zm4.71-4.59l3-2.91 3.5 3.4-3.5 3.4-3.09-3.01-0.41-0.39zm1.14-6.12l-1.64-1.59 2.96-2.87 0.54-0.53 3.5 3.4-3.5 3.4zm6.08-9.09l3.49 3.4-3.49 3.4-3.5-3.4zm-1.61-2.95l-1.89-1.84 3.5-3.41 0.79 0.77 2.7 2.64-3.49 3.4zm4.73-8.28l0.02-0.02 1.07-1.05 3.5 3.41-3.5 3.4-2.9-2.82-0.6-0.58zm5.3-5.161l3.5 3.401-3.5 3.4-3.49-3.4zm4.22-4.098l3.5 3.399-3.5 3.4-3.5-3.4zm-0.84-2.211l-2.66-2.59 3.5-3.398 2.41 2.34 1.09 1.058-3.5 3.399zm5.05-10.09l2.27 2.2 1.23 1.199-3.5 3.402-1.12-1.09-2.37-2.312zm4.22-4.101l2.35 2.281 1.15 1.121-3.5 3.399-1.24-1.2-2.26-2.199zm7.71 7.5l-3.5 3.402-3.49-3.402 3.49-3.399zm0.72-7.5l3.5 3.402-3.5 3.399-3.5-3.399zm4.21-4.098l3.5 3.399-3.5 3.402-3.49-3.402zm4.22-4.101l0.21 0.199 3.29 3.203-3.5 3.406-3.5-3.406 2.73-2.652zm4.21-4.098l1.59 1.547 1.91 1.859-3.5 3.402-3.08-3-0.41-0.402zm7.72 7.5l-3.5 3.406-3.5-3.406 3.5-3.402zm0.71-7.5l3.5 3.406-3.5 3.402-3.5-3.402zm4.22-4.094l1.41 1.371 2.08 2.031-3.49 3.399-3.5-3.399 0.97-0.941zm7.71 7.5l-3.5 3.402-3.5-3.402 3.5-3.406zm0.68-7.457l0.04-0.043 0.03 0.031 3.46 3.371-3.49 3.399-3.5-3.399zm4.25-4.141l3.5 3.399-0.13 0.133-3.37 3.269-2.91-2.832-0.59-0.57zm8.43 0l3.5 3.399-0.5 0.492-3 2.91-3.38-3.281-0.12-0.121zm7.71 7.5l-3.49 3.399-3.5-3.399 3.5-3.402zm4.22 4.098l-3.5 3.402-3.5-3.402 3.5-3.406zm-0.65-6.168l1.37-1.332 2.6 2.531 0.89 0.871-3.49 3.399-3.5-3.399zm9.08 6.168l-3.5 3.402-3.5-3.402 3.5-3.406zm4.21 4.094l-3.49 3.406-3.5-3.406 3.5-3.402zm-1.32-5.512l2.04-1.988 3.5 3.406-1.26 1.223-2.24 2.179-3.5-3.402zm9.75 5.512l-0.8 0.777-2.69 2.629-3.5-3.406 2.35-2.281 1.15-1.121zm4.22 4.098l-0.85 0.82-2.65 2.582-3.5-3.402 2.73-2.649 0.77-0.75zm4.21 4.101l-1.38 1.348-2.12 2.051-3.49-3.399 2.59-2.519 0.9-0.883zm4.22 4.098l-2.46 2.39-1.04 1.012-3.5-3.402 1.97-1.918 1.53-1.481zm0 8.203l-3.5 3.398-3.5-3.398 3.5-3.402zm0.71 0.699l3.5 3.399-2.06 2-1.44 1.4-3.49-3.4 3.32-3.239zm-7.71 15.699l3.5-3.41 3.5 3.41-3.5 3.4zm0 8.19l3.5-3.4 3.5 3.4-3.5 3.4zm0 8.2l3.5-3.4 3.5 3.4-3.5 3.4zm-4.21 4.1l3.49-3.4 3.5 3.4-3.5 3.4zm0 8.2l3.49-3.4 3.5 3.4-3.5 3.4zm-4.22 4.1l3.5-3.4 3.5 3.4-3.5 3.4zm-4.21 4.1l3.5-3.41 3.49 3.41-3.49 3.4zm-4.22 4.09l3.5-3.4 3.5 3.4-3.5 3.41zm-4.21 4.1l3.5-3.4 3.49 3.4-3.49 3.41zm-4.22 4.1l3.5-3.4 3.5 3.4-3.5 3.4zm-4.21 4.1l3.5-3.4 3.49 3.4-3.49 3.4zm-4.22 4.1l3.5-3.4 3.5 3.4-3.5 3.4zm-4.21 4.1l3.5-3.4 3.49 3.4-3.49 3.4zm-4.22 4.1l3.5-3.4 3.5 3.4-3.5 3.4zm-0.71 0.7l3.49 3.4-3.49 3.4-3.5-3.4zm-7.72-0.7l3.5-3.4 3.5 3.4-3.5 3.4zm-4.21 4.1l3.5-3.4 3.49 3.4-3.49 3.4zm-4.22 4.1l3.5-3.41 3.5 3.41-3.5 3.4zm-0.71 0.69l3.49 3.41-3.49 3.4-3.5-3.4zm-4.22-4.1l3.5 3.41-3.5 3.4-3.5-3.4zm-4.21-4.09l3.5 3.4-3.5 3.4-3.5-3.4zm-7.71-0.7l3.49-3.4 3.5 3.4-3.5 3.4zm-0.72 0.7l3.5 3.4-3.5 3.4-3.5-3.4zm-4.22-4.1l3.5 3.4-3.5 3.4-3.49-3.4zm-4.21-4.1l3.5 3.4-3.5 3.4-3.5-3.4zm-4.22-4.1l3.5 3.4-3.5 3.4-3.49-3.4zm-4.21-4.1l3.5 3.4-3.5 3.4-3.5-3.4zm-4.22-4.1l3.5 3.4-3.5 3.4-3.49-3.4zm-4.21-4.1l3.5 3.4-3.5 3.41-3.5-3.41zm-4.22-4.1l3.5 3.4-3.5 3.41-3.49-3.41zm-4.21-4.1l3.5 3.41-3.5 3.4-3.5-3.4zm-0.72-0.69l-3.49 3.4-3.5-3.4 3.5-3.4zm0-8.2l-3.49 3.4-3.5-3.4 3.5-3.4zm0-8.2l-3.49 3.4-3.5-3.4 3.5-3.4zm4.22-4.1l-3.5 3.4-3.5-3.4 3.5-3.4zm0-8.2l-3.5 3.41-3.5-3.41 3.5-3.4zm4.21-4.09l-3.5 3.4-3.49-3.4 3.49-3.41zm4.22-4.1l-3.5 3.4-3.5-3.4 3.5-3.41zm4.21-4.1l-3.5 3.4-3.49-3.4 3.49-3.401zm0-8.198l-3.5 3.398-3.49-3.398 3.49-3.402zm0.72-0.703l-3.5-3.399 3.5-3.398 3.5 3.398zm7.71 0.703l-3.5 3.398-3.49-3.398 3.49-3.402zm4.22-4.102l-3.5 3.399-3.5-3.399 3.5-3.398zm4.21-4.101l-3.5 3.402-3.49-3.402 3.49-3.399zm4.22-4.098l-3.5 3.399-3.5-3.399 3.5-3.402zm0.71-0.699l-3.49-3.402 3.49-3.399 3.5 3.399zm7.72 0.699l-3.5 3.399-3.5-3.399 3.5-3.402zm4.21-4.101l-3.5 3.402-3.5-3.402 3.5-3.399zm0.72-0.692l-3.5-3.406 3.5-3.402 3.49 3.402zm7.71 0.692l-3.5 3.402-3.5-3.402 3.5-3.399zm4.21-4.098l-3.49 3.406-3.5-3.406 3.5-3.402zm4.22-4.094l-3.5 3.402-3.5-3.402 3.5-3.406zm0.72-0.699l-3.5-3.399 3.5-3.402 3.49 3.402zm4.21 4.101l-3.5-3.402 3.5-3.406 3.5 3.406zm4.22 4.098l-3.5-3.406 3.5-3.402 3.49 3.402zm7.71 0.692l-3.5 3.402-3.5-3.402 3.5-3.399zm0.72-0.692l-3.5-3.406 3.5-3.402 3.49 3.402zm4.21 4.094l-3.5-3.402 3.5-3.399 3.5 3.399zm7.71 0.699l-3.49 3.399-3.5-3.399 3.5-3.402zm0.72-0.699l-3.5-3.402 3.5-3.399 3.5 3.399zm4.22 4.098l-3.5-3.399 3.5-3.402 3.49 3.402zm4.21 4.101l-3.5-3.402 3.5-3.399 3.5 3.399zm0.72 0.699l3.49-3.398 3.5 3.398-3.5 3.399zm3.49 11.6l-3.49-3.4 3.49-3.399 3.5 3.399zm0.72 0.7l3.5-3.401 3.5 3.401-3.5 3.4zm-4.21 4.1l3.49-3.41 3.5 3.41-3.5 3.4zm0 8.19l3.49-3.4 3.5 3.4-3.5 3.41zm0 8.2l3.49-3.4 3.5 3.4-3.5 3.4zm-4.22 4.1l3.5-3.4 3.5 3.4-3.5 3.4zm0 8.2l3.5-3.4 3.5 3.4-3.5 3.4zm-4.21 4.1l3.5-3.4 3.49 3.4-3.49 3.4zm-4.22 4.1l3.5-3.4 3.5 3.4-3.5 3.4zm-4.21 4.1l3.5-3.41 3.49 3.41-3.49 3.4zm-4.22 4.09l3.5-3.4 3.5 3.4-3.5 3.41zm-4.21 4.1l3.5-3.4 3.49 3.4-3.49 3.41zm-4.22 4.1l3.5-3.4 3.5 3.4-3.5 3.4zm-4.21 4.1l3.5-3.4 3.49 3.4-3.49 3.4zm-4.22 4.1l3.5-3.4 3.5 3.4-3.5 3.4zm-0.71 0.7l3.49 3.4-3.49 3.4-3.5-3.4zm-7.72-0.7l3.5-3.4 3.5 3.4-3.5 3.4zm-4.21 4.1l3.5-3.4 3.49 3.4-3.49 3.4zm-4.22 4.1l3.5-3.4 3.5 3.4-3.5 3.4zm-0.71 0.7l3.49 3.4-3.49 3.4-3.5-3.4zm-4.22-4.1l3.5 3.4-3.5 3.4-3.5-3.4zm-4.21-4.1l3.5 3.4-3.5 3.4-3.5-3.4zm-7.71-0.7l3.49-3.4 3.5 3.4-3.5 3.4zm-0.72 0.7l3.5 3.4-3.5 3.4-3.5-3.4zm-4.22-4.1l3.5 3.4-3.5 3.4-3.49-3.4zm-4.21-4.1l3.5 3.4-3.5 3.4-3.5-3.4zm-4.22-4.1l3.5 3.4-3.5 3.4-3.49-3.4zm-4.21-4.1l3.5 3.4-3.5 3.41-3.5-3.41zm-4.22-4.1l3.5 3.4-3.5 3.41-3.49-3.41zm-4.21-4.1l3.5 3.41-3.5 3.4-3.5-3.4zm-4.22-4.09l3.5 3.4-3.5 3.4-3.49-3.4zm-0.71-0.7l-3.5 3.4-3.5-3.4 3.5-3.4zm0-8.2l-3.5 3.4-3.5-3.4 3.5-3.4zm4.21-4.1l-3.5 3.4-3.49-3.4 3.49-3.4zm0-8.2l-3.5 3.4-3.49-3.4 3.49-3.4zm4.22-4.1l-3.5 3.41-3.5-3.41 3.5-3.4zm4.21-4.09l-3.5 3.4-3.49-3.4 3.49-3.41zm4.22-4.1l-3.5 3.4-3.5-3.4 3.5-3.41zm-3.5-4.8l-3.5-3.4 3.5-3.399 3.5 3.399zm7.71 0.7l-3.5 3.4-3.49-3.4 3.49-3.401zm4.22-4.1l-3.5 3.4-3.5-3.4 3.5-3.399zm4.21-4.098l-3.5 3.398-3.49-3.398 3.49-3.402zm4.22-4.102l-3.5 3.399-3.5-3.399 3.5-3.398zm0.71-0.699l-3.49-3.402 3.49-3.399 3.5 3.399zm7.72 0.699l-3.5 3.399-3.5-3.399 3.5-3.398zm4.21-4.101l-3.5 3.402-3.5-3.402 3.5-3.399zm0.72-0.699l-3.5-3.399 3.5-3.402 3.49 3.402zm7.71 0.699l-3.5 3.402-3.5-3.402 3.5-3.399zm4.21-4.098l-3.49 3.399-3.5-3.399 3.5-3.402zm4.22-4.101l-3.5 3.402-3.5-3.402 3.5-3.399zm0.72-0.692l-3.5-3.406 3.5-3.402 3.49 3.402zm4.21 4.094l-3.5-3.402 3.5-3.399 3.5 3.399zm4.22 4.098l-3.5-3.399 3.5-3.402 3.49 3.402zm7.71 0.699l-3.5 3.402-3.5-3.402 3.5-3.399zm0.72-0.699l-3.5-3.399 3.5-3.402 3.49 3.402zm4.21 4.101l-3.5-3.402 3.5-3.399 3.5 3.399zm7.71 0.699l-3.49 3.399-3.5-3.399 3.5-3.398zm0.72-0.699l-3.5-3.402 3.5-3.399 3.5 3.399zm4.22 4.098l-3.5-3.399 3.5-3.398 3.49 3.398zm0.71 0.703l3.5-3.402 3.5 3.402-3.5 3.398zm0 8.198l3.5-3.401 3.5 3.401-3.5 3.4zm0 8.2l3.5-3.41 3.5 3.41-3.5 3.4zm0 8.19l3.5-3.4 3.5 3.4-3.5 3.4zm-4.21 4.1l3.5-3.4 3.49 3.4-3.49 3.4zm0 8.2l3.5-3.4 3.49 3.4-3.49 3.4zm-4.22 4.1l3.5-3.4 3.5 3.4-3.5 3.4zm-4.21 4.1l3.5-3.4 3.49 3.4-3.49 3.4zm-4.22 4.1l3.5-3.4 3.5 3.4-3.5 3.4zm-4.21 4.1l3.5-3.41 3.49 3.41-3.49 3.4zm-4.22 4.09l3.5-3.4 3.5 3.4-3.5 3.41zm-4.21 4.1l3.5-3.4 3.49 3.4-3.49 3.41zm-4.22 4.1l3.5-3.4 3.5 3.4-3.5 3.4zm-0.71 0.7l3.49 3.4-3.49 3.4-3.5-3.4zm-7.72-0.7l3.5-3.4 3.5 3.4-3.5 3.4zm-4.21 4.1l3.5-3.4 3.49 3.4-3.49 3.4zm-4.22 4.1l3.5-3.4 3.5 3.4-3.5 3.4zm-0.71 0.7l3.49 3.4-3.49 3.4-3.5-3.4zm-4.22-4.1l3.5 3.4-3.5 3.4-3.5-3.4zm-4.21-4.1l3.5 3.4-3.5 3.4-3.5-3.4zm-7.71-0.7l3.49-3.4 3.5 3.4-3.5 3.4zm-0.72 0.7l3.5 3.4-3.5 3.4-3.5-3.4zm-4.22-4.1l3.5 3.4-3.5 3.4-3.49-3.4zm-4.21-4.1l3.5 3.4-3.5 3.41-3.5-3.41zm-4.22-4.1l3.5 3.4-3.5 3.41-3.49-3.41zm-4.21-4.1l3.5 3.41-3.5 3.4-3.5-3.4zm-4.22-4.09l3.5 3.4-3.5 3.4-3.49-3.4zm-4.21-4.1l3.5 3.4-3.5 3.4-3.5-3.4zm-0.72-0.7l-3.5 3.4-3.49-3.4 3.49-3.4zm4.22-4.1l-3.5 3.4-3.5-3.4 3.5-3.4zm0-8.2l-3.5 3.4-3.5-3.4 3.5-3.4zm4.21-4.1l-3.5 3.4-3.49-3.4 3.49-3.4zm4.22-4.1l-3.5 3.41-3.5-3.41 3.5-3.4zm4.21-4.09l-3.5 3.4-3.49-3.4 3.49-3.41zm4.22-4.1l-3.5 3.4-3.5-3.4 3.5-3.41zm4.21-4.1l-3.5 3.4-3.49-3.4 3.49-3.401zm4.22-4.1l-3.5 3.4-3.5-3.4 3.5-3.399zm0.71-0.7l-3.49-3.398 3.49-3.402 3.5 3.402zm7.72 0.7l-3.5 3.4-3.5-3.4 3.5-3.399zm4.21-4.098l-3.5 3.398-3.5-3.398 3.5-3.402zm0.72-0.703l-3.5-3.399 3.5-3.398 3.49 3.398zm7.71 0.703l-3.5 3.398-3.5-3.398 3.5-3.402zm4.21-4.102l-3.49 3.399-3.5-3.399 3.5-3.398zm4.22-4.101l-3.5 3.402-3.5-3.402 3.5-3.399zm0.72-0.699l-3.5-3.399 3.5-3.402 3.49 3.402zm4.21 4.101l-3.5-3.402 3.5-3.399 3.5 3.399zm4.22 4.098l-3.5-3.399 3.5-3.398 3.49 3.398zm7.71 0.703l-3.5 3.398-3.5-3.398 3.5-3.402zm0.72-0.703l-3.5-3.399 3.5-3.398 3.49 3.398zm4.21 4.101l-3.5-3.398 3.5-3.402 3.5 3.402zm7.71 0.7l-3.49 3.4-3.5-3.4 3.5-3.399zm0.72-0.7l-3.5-3.398 3.5-3.402 3.5 3.402zm0.72 0.7l3.5-3.399 3.49 3.399-3.49 3.4zm0 8.2l3.5-3.41 3.49 3.41-3.49 3.4zm0 8.19l3.5-3.4 3.49 3.4-3.49 3.41zm-4.22 4.1l3.5-3.4 3.5 3.4-3.5 3.4zm0 8.2l3.5-3.4 3.5 3.4-3.5 3.4zm-4.21 4.1l3.5-3.4 3.49 3.4-3.49 3.4zm-4.22 4.1l3.5-3.4 3.5 3.4-3.5 3.4zm-4.21 4.1l3.5-3.4 3.49 3.4-3.49 3.4zm-4.22 4.1l3.5-3.4 3.5 3.4-3.5 3.4zm-4.21 4.1l3.5-3.41 3.49 3.41-3.49 3.4zm-4.22 4.09l3.5-3.4 3.5 3.4-3.5 3.41zm-0.71 0.7l3.49 3.4-3.49 3.41-3.5-3.41zm-7.72-0.7l3.5-3.4 3.5 3.4-3.5 3.41zm-4.21 4.1l3.5-3.4 3.49 3.4-3.49 3.41zm-4.22 4.1l3.5-3.4 3.5 3.4-3.5 3.4zm-0.71 0.7l3.49 3.4-3.49 3.4-3.5-3.4zm-4.22-4.1l3.5 3.4-3.5 3.4-3.5-3.4zm-4.21-4.1l3.5 3.4-3.5 3.41-3.5-3.41zm-7.71-0.7l3.49-3.4 3.5 3.4-3.5 3.41zm-0.72 0.7l3.5 3.4-3.5 3.41-3.5-3.41zm-4.22-4.1l3.5 3.4-3.5 3.41-3.49-3.41zm-4.21-4.1l3.5 3.41-3.5 3.4-3.5-3.4zm-4.22-4.09l3.5 3.4-3.5 3.4-3.49-3.4zm-4.21-4.1l3.5 3.4-3.5 3.4-3.5-3.4zm-0.72-0.7l-3.5 3.4-3.49-3.4 3.49-3.4zm0-8.2l-3.5 3.4-3.49-3.4 3.49-3.4zm4.22-4.1l-3.5 3.4-3.5-3.4 3.5-3.4zm4.21-4.1l-3.5 3.4-3.49-3.4 3.49-3.4zm4.22-4.1l-3.5 3.41-3.5-3.41 3.5-3.4zm4.21-4.09l-3.5 3.4-3.49-3.4 3.49-3.41zm4.22-4.1l-3.5 3.4-3.5-3.4 3.5-3.41zm0.71-0.7l-3.49-3.4 3.49-3.401 3.5 3.401zm7.72 0.7l-3.5 3.4-3.5-3.4 3.5-3.41zm4.21-4.1l-3.5 3.4-3.5-3.4 3.5-3.401zm0.72-0.7l-3.5-3.4 3.5-3.399 3.49 3.399zm7.71 0.7l-3.5 3.4-3.5-3.4 3.5-3.401zm4.21-4.1l-3.49 3.4-3.5-3.4 3.5-3.399zm4.22-4.098l-3.5 3.398-3.5-3.398 3.5-3.402zm0.72-0.703l-3.5-3.399 3.5-3.398 3.49 3.398zm4.21 4.101l-3.5-3.398 3.5-3.402 3.5 3.402zm4.22 4.1l-3.5-3.4 3.5-3.399 3.49 3.399zm7.71 0.7l-3.5 3.4-3.5-3.4 3.5-3.401zm0.72-0.7l-3.5-3.4 3.5-3.399 3.49 3.399zm4.21 4.1l-3.5-3.4 3.5-3.401 3.5 3.401zm7.71 0.7l-3.49 3.4-3.5-3.4 3.5-3.41zm-2.78-4.1l3.5-3.401 3.5 3.401-3.5 3.4zm0 8.2l3.5-3.41 3.5 3.41-3.5 3.4zm-4.21 4.09l3.5-3.4 3.49 3.4-3.49 3.41zm0 8.2l3.5-3.4 3.49 3.4-3.49 3.4zm-4.22 4.1l3.5-3.4 3.5 3.4-3.5 3.4zm-4.21 4.1l3.5-3.4 3.49 3.4-3.49 3.4zm-4.22 4.1l3.5-3.4 3.5 3.4-3.5 3.4zm-4.21 4.1l3.5-3.4 3.49 3.4-3.49 3.4zm-4.22 4.1l3.5-3.4 3.5 3.4-3.5 3.4zm-0.71 0.69l3.49 3.41-3.49 3.4-3.5-3.4zm-7.72-0.69l3.5-3.4 3.5 3.4-3.5 3.4zm-4.21 4.1l3.5-3.41 3.49 3.41-3.49 3.4zm-4.22 4.09l3.5-3.4 3.5 3.4-3.5 3.41zm-0.71 0.7l3.49 3.4-3.49 3.41-3.5-3.41zm-4.22-4.1l3.5 3.4-3.5 3.41-3.5-3.41zm-4.21-4.1l3.5 3.41-3.5 3.4-3.5-3.4zm-7.71-0.69l3.49-3.4 3.5 3.4-3.5 3.4zm-0.72 0.69l3.5 3.41-3.5 3.4-3.5-3.4zm-4.22-4.09l3.5 3.4-3.5 3.4-3.49-3.4zm-4.21-4.1l3.5 3.4-3.5 3.4-3.5-3.4zm-4.22-4.1l3.5 3.4-3.5 3.4-3.49-3.4zm-0.71-0.7l-3.5 3.4-3.5-3.4 3.5-3.4zm4.21-4.1l-3.5 3.4-3.49-3.4 3.49-3.4zm4.22-4.1l-3.5 3.4-3.5-3.4 3.5-3.4zm4.21-4.1l-3.5 3.4-3.49-3.4 3.49-3.4zm4.22-4.1l-3.5 3.41-3.5-3.41 3.5-3.4zm0.71-0.69l-3.49-3.4 3.49-3.41 3.5 3.41zm7.72 0.69l-3.5 3.41-3.5-3.41 3.5-3.4zm4.21-4.09l-3.5 3.4-3.5-3.4 3.5-3.41zm0.72-0.7l-3.5-3.4 3.5-3.41 3.49 3.41zm7.71 0.7l-3.5 3.4-3.5-3.4 3.5-3.41zm4.21-4.1l-3.49 3.4-3.5-3.4 3.5-3.41zm4.22-4.1l-3.5 3.4-3.5-3.4 3.5-3.401zm0.72-0.7l-3.5-3.4 3.5-3.399 3.49 3.399zm4.21 4.1l-3.5-3.4 3.5-3.401 3.5 3.401zm4.22 4.1l-3.5-3.4 3.5-3.41 3.49 3.41zm7.71 0.7l-3.5 3.4-3.5-3.4 3.5-3.41zm0.72-0.7l-3.5-3.4 3.5-3.41 3.49 3.41zm0.71 0.7l3.5-3.41 3.5 3.41-3.5 3.4zm0 8.19l3.5-3.4 3.5 3.4-3.5 3.4zm-4.21 4.1l3.5-3.4 3.49 3.4-3.49 3.4zm-4.22 4.1l3.5-3.4 3.5 3.4-3.5 3.4zm-4.21 4.1l3.5-3.4 3.49 3.4-3.49 3.4zm-4.22 4.1l3.5-3.4 3.5 3.4-3.5 3.4zm-0.71 0.7l3.49 3.4-3.49 3.4-3.5-3.4zm-7.72-0.7l3.5-3.4 3.5 3.4-3.5 3.4zm-4.21 4.1l3.5-3.4 3.49 3.4-3.49 3.4zm-4.22 4.1l3.5-3.4 3.5 3.4-3.5 3.4zm-0.71 0.69l3.49 3.41-3.49 3.4-3.5-3.4zm-4.22-4.09l3.5 3.4-3.5 3.4-3.5-3.4zm-4.21-4.1l3.5 3.4-3.5 3.4-3.5-3.4zm-7.71-0.7l3.49-3.4 3.5 3.4-3.5 3.4zm-0.72 0.7l3.5 3.4-3.5 3.4-3.5-3.4zm-4.22-4.1l3.5 3.4-3.5 3.4-3.49-3.4zm-0.71-0.7l-3.5 3.4-3.5-3.4 3.5-3.4zm4.21-4.1l-3.5 3.4-3.49-3.4 3.49-3.4zm4.22-4.1l-3.5 3.4-3.5-3.4 3.5-3.4zm0.71-0.7l-3.49-3.4 3.49-3.4 3.5 3.4zm7.72 0.7l-3.5 3.4-3.5-3.4 3.5-3.4zm4.21-4.1l-3.5 3.4-3.5-3.4 3.5-3.4zm0.72-0.69l-3.5-3.41 3.5-3.4 3.49 3.4zm7.71 0.69l-3.5 3.4-3.5-3.4 3.5-3.4zm4.21-4.1l-3.49 3.41-3.5-3.41 3.5-3.4zm4.22-4.09l-3.5 3.4-3.5-3.4 3.5-3.41zm0.72-0.7l-3.5-3.4 3.5-3.41 3.49 3.41zm4.21 4.1l-3.5-3.4 3.5-3.41 3.5 3.41zm4.22 4.1l-3.5-3.41 3.5-3.4 3.49 3.4zm-3.5 4.79l3.5-3.4 3.49 3.4-3.49 3.4zm-4.22 4.1l3.5-3.4 3.5 3.4-3.5 3.4zm-0.71 0.7l3.49 3.4-3.49 3.4-3.5-3.4zm-7.72-0.7l3.5-3.4 3.5 3.4-3.5 3.4zm-4.21 4.1l3.5-3.4 3.49 3.4-3.49 3.4zm-4.22 4.1l3.5-3.4 3.5 3.4-3.5 3.4zm-0.71 0.7l3.49 3.4-3.49 3.4-3.5-3.4zm-4.22-4.1l3.5 3.4-3.5 3.4-3.5-3.4zm3.5-4.8l-3.5 3.4-3.5-3.4 3.5-3.4zm0.72-0.7l-3.5-3.4 3.5-3.4 3.49 3.4zm3.49 4.8l-3.49 3.4-3.5-3.4 3.5-3.4zm4.22-4.1l-3.5 3.4-3.5-3.4 3.5-3.4zm4.21-4.1l-3.49 3.4-3.5-3.4 3.5-3.4zm4.22-4.1l-3.5 3.4-3.5-3.4 3.5-3.4zm0.72-0.69l-3.5-3.41 3.5-3.4 3.49 3.4zm3.49 4.79l-3.49 3.4-3.5-3.4 3.5-3.4zm-2.78-4.1l3.5-3.4 3.5 3.4-3.5 3.4zm-26 8.9l3.5 3.4-3.5 3.4-3.5-3.4zm-4.93 3.4l-3.5 3.4-3.5-3.4 3.5-3.4zm-2.78-4.1l3.49-3.4 3.5 3.4-3.5 3.4zm46.36-12.3l3.5-3.4 3.49 3.4-3.49 3.41zm2.78 4.1l-3.5 3.4-3.5-3.4 3.5-3.4zm36.95-13.25l0.98 0.96-0.74 0.72-2.76 2.68-3.49-3.4 3.49-3.41zm4.55 6.94c-0.01-0.4-0.02-0.81-0.04-1.21l-2.81 2.73-1.02-0.99-2.48-2.41 2.17-2.12 1.33-1.29 2.74 2.67c-0.03-0.51-0.07-1.01-0.13-1.51l-1.89-1.85 1.51-1.47c-0.06-0.41-0.12-0.81-0.19-1.21l-2.04 1.98-1.99-1.94-1.51-1.46 1-0.97 2.5-2.431 1.36 1.321c-0.14-0.61-0.28-1.22-0.44-1.829l-0.2-0.191 0.12-0.122c-0.1-0.367-0.2-0.726-0.31-1.097l-0.53 0.519-3.5-3.398 2.3-2.242c-0.13-0.34-0.27-0.668-0.41-1l-2.61 2.539-1.3-1.27-2.19-2.129 0.81-0.789 2.68-2.609 1.24 1.199c-0.48-0.973-0.98-1.93-1.51-2.871l-3.22-3.129 0.78-0.762c-0.18-0.281-0.38-0.558-0.58-0.839l-0.92 0.902-3.5-3.402 1.39-1.348c-0.21-0.25-0.43-0.5-0.66-0.75l-1.45 1.406-3.49-3.406 1.52-1.481c-0.25-0.222-0.49-0.453-0.74-0.671l-1.5 1.46-3.5-3.402 1.19-1.156c-0.27-0.203-0.55-0.402-0.82-0.594l-1.08 1.051-3.5-3.399 0.36-0.351c-0.3-0.168-0.61-0.34-0.91-0.508l-0.17 0.16-0.58-0.562c-0.95-0.508-1.92-0.981-2.9-1.43l2.76 2.691-2.24 2.18-1.25 1.219-3.49-3.391-0.01-0.008 3.23-3.14c-0.33-0.141-0.67-0.281-1.01-0.418l-2.94 2.859-3.5-3.402 1.31-1.27c-0.37-0.109-0.74-0.218-1.11-0.32l-0.91 0.891-1.57-1.52c-0.61-0.148-1.23-0.281-1.85-0.398l2.7 2.617-1.79 1.742-1.71 1.66-2.6-2.531-0.9-0.871 2.96-2.867c-0.41-0.082-0.82-0.141-1.23-0.211l-2.44 2.379-3.07-2.981c-0.48-0.039-0.95-0.058-1.43-0.078-0.25-0.012-0.5-0.019-0.76-0.031l-3.17 3.09-3.09-3c-0.82 0.05-1.64 0.121-2.47 0.199l-2.87 2.801-2.19-2.129c-0.41 0.058-0.82 0.14-1.22 0.211l2.69 2.617-1.02 0.992-2.48 2.41-1.65-1.601-1.85-1.801 2.28-2.219c-0.62 0.141-1.25 0.281-1.87 0.43l-1.12 1.09-0.65-0.629c-0.37 0.09-0.74 0.199-1.12 0.308l1.05 1.02-3.5 3.402-2.8-2.722c-0.35 0.121-0.69 0.242-1.04 0.382l3.01 2.918 0.12 0.121-3.5 3.399-1.64-1.59-1.86-1.809 2.64-2.57c-0.84 0.328-1.68 0.68-2.52 1.051l-0.84 0.82-0.31-0.301c-0.33 0.141-0.65 0.29-0.97 0.45l0.57 0.55-3.5 3.399-1.67-1.617c-0.3 0.168-0.6 0.328-0.89 0.5l-0.02 0.008 1.86 1.808-3.5 3.402-2.67-2.601c-0.29 0.18-0.57 0.371-0.85 0.562l2.72 2.637 0.09 0.094-3.5 3.406-0.69-0.668-2.68-2.609c-0.27 0.187-0.54 0.398-0.8 0.609l2.67 2.602 0.78 0.758-3.5 3.402-1.1-1.07-2.39-2.332 3.11-3.032c-1.89 1.453-3.73 3.012-5.52 4.653-0.95 0.871-1.88 1.757-2.8 2.679-0.17 0.168-0.34 0.352-0.51 0.52-1.78 1.781-3.49 3.59-5.13 5.41-0.85 0.93-1.67 1.871-2.48 2.809l2.69 2.613 0.77 0.75-3.5 3.398-0.36-0.351-2.71-2.641c-0.21 0.262-0.42 0.531-0.62 0.793l2.72 2.649 0.26 0.25-1.61 1.57-1.89 1.83-2.42-2.35c-0.17 0.231-0.33 0.461-0.49 0.692l-0.09 0.136 2.28 2.222-3.49 3.4-1.53-1.49c-0.18 0.29-0.36 0.58-0.54 0.88l1.35 1.31-3.5 3.4-0.34-0.33c-0.17 0.31-0.33 0.62-0.48 0.93l0.1 0.1-0.3 0.3c-0.46 0.88-0.88 1.75-1.28 2.63l2.3-2.24 2.16 2.1 1.34 1.3-3.27 3.18-0.23 0.23-3.02-2.94c-0.14 0.33-0.28 0.66-0.41 0.99l2.71 2.64-3.49 3.4-1.04-1.01c-0.12 0.35-0.23 0.71-0.33 1.08l0.65 0.63-1.12 1.09c-0.06 0.19-0.1 0.38-0.15 0.57l-0.3 1.26 2.29-2.22 2.09 2.03 1.4 1.37-2.06 2.01-1.43 1.39-2.69-2.61c-0.08 0.4-0.15 0.8-0.21 1.2l2.18 2.11-2.72 2.64c-0.03 0.46-0.05 0.93-0.07 1.39v0.12c-0.02 0.43-0.03 0.88-0.03 1.31l2.82 2.74-2.16 2.1c0.07 0.4 0.14 0.79 0.22 1.19l2.66-2.59 1.15 1.12 2.34 2.28-1.72 1.68-1.5 1.46-0.77-0.76-0.7 0.7 0.75 0.75-0.99 0.97 0.02 0.09c0.1 0.33 0.21 0.65 0.32 0.97l1.36-1.32 3.16 3.14 0.3 0.3-0.15 0.14-2.87 2.79c0.12 0.34 0.25 0.67 0.4 1.01l2.85-2.77 0.48-0.47 3.45 3.44-1.84 1.79-2.37 2.31 0.7 0.72 2.16-2.1 2.06-2.01 3.46 3.44-2.99 2.91-1.75 1.7 0.69 0.72 1.61-1.57 3.15-3.06 3.46 3.44-3.75 3.64-0.64 0.63-0.89 0.86 0.7 0.72 1-0.97 0.45-0.44 3.84-3.73 3.45 3.44-3.98 3.87-0.16 0.16-0.63 0.61-1.03 1 0.7 0.72 1.04-1.01 0.59-0.58 0.14-0.14 4.04-3.93 3.46 3.44-4.25 4.14-0.49 0.47-0.06 0.06-1.53 1.49 0.34 0.36 0.35 0.36 1.56-1.52 0.54-0.52 4.25-4.13 3.46 3.44-4.05 3.93-0.6 0.59-2.22 2.16 0.7 0.71 2.26-2.19 0.64-0.62 3.98-3.87 3.46 3.44-3.46 3.36-3.26 3.17c0.32 0.15 0.63 0.31 0.95 0.46l3.15-3.06 3.32-3.23 3.46 3.44-2.43 2.37-2.82 2.75c0.32 0.15 0.64 0.3 0.95 0.45l2.8-2.71 2.21-2.15 3.46 3.44-0.89 0.86-2.77 2.7c0.34 0.14 0.67 0.28 1.01 0.41l2.79-2.72 0.57-0.55 1.16 1.15 2.3 2.29-1.72 1.68c0.37 0.11 0.73 0.22 1.1 0.32l1.33-1.29 0.95 0.94 0.7-0.7-0.94-0.94 1.03-1 2.73-2.66 3.5 3.4-0.19 0.19-3.52 3.42c0.4 0.08 0.8 0.16 1.2 0.23l3.23-3.14 3.5 3.4-0.57 0.56c0.23 0 0.46 0 0.69-0.01h0.11c0.57-0.01 1.14-0.03 1.71-0.06l-0.51-0.49 3.5-3.4 3.34 3.25c0.71-0.11 1.42-0.23 2.13-0.38l2.96-2.87 1.8 1.75c0.37-0.09 0.74-0.2 1.11-0.31l-2.2-2.14 2.02-1.96 1.48-1.44 0.77 0.74 2.73 2.66-0.88 0.85c0.78-0.27 1.56-0.57 2.34-0.88l3.47-3.37 1.3 1.27c0.32-0.15 0.64-0.31 0.96-0.46l-1.54-1.5 3.5-3.41 2.55 2.48c0.3-0.16 0.6-0.34 0.9-0.51l-2.74-2.66 0.27-0.26 3.23-3.15 0.76 0.74 2.74 2.66 0.84-0.57-2.72-2.65-0.9-0.87 3.5-3.4 1.48 1.44 2.67 2.6c0.27-0.2 0.53-0.41 0.8-0.61l-2.66-2.59-1.58-1.54 3.5-3.4 1.94 1.88 2.62 2.56c0.26-0.21 0.52-0.43 0.77-0.65l-2.62-2.55-1.99-1.94 3.5-3.4 2.15 2.09 2.61 2.53c0.24-0.22 0.49-0.45 0.73-0.68l-2.61-2.53-2.17-2.11 3.5-3.4 2.15 2.09 2.59 2.51c0.24-0.23 0.45-0.46 0.67-0.7l0.02-0.02-2.59-2.52-2.12-2.06 3.5-3.4 1.87 1.82 2.6 2.53c0.21-0.25 0.43-0.51 0.64-0.77l-2.6-2.53-1.8-1.75 3.5-3.4 1.3 1.27 2.62 2.55c0.2-0.28 0.4-0.55 0.59-0.83l-2.62-2.55-1.17-1.14 3.49-3.4 0.42 0.41 2.66 2.58c0.18-0.29 0.36-0.57 0.54-0.86l-2.66-2.6-0.24-0.23 0.87-0.84 2.63-2.56 1.92 1.87c0.17-0.31 0.33-0.61 0.49-0.92l-1.69-1.64 3.49-3.41 0.43 0.42c0.15-0.32 0.29-0.65 0.43-0.98l-0.14-0.13 0.34-0.33c0.33-0.77 0.64-1.54 0.94-2.31l-2 1.94-1.97-1.92-1.52-1.48 3.21-3.12 0.28-0.28 2.79 2.71c0.13-0.35 0.25-0.69 0.37-1.04l-2.44-2.37 3.5-3.4 0.51 0.5c0.1-0.37 0.19-0.75 0.28-1.13l-0.07-0.07 0.12-0.12c0.15-0.6 0.29-1.2 0.42-1.8l-1.26 1.22-2.36-2.29-1.14-1.11 1.64-1.59 1.86-1.81 1.95 1.9c0.07-0.41 0.13-0.81 0.19-1.22l-1.42-1.38 1.8-1.76c0.06-0.51 0.11-1.02 0.14-1.53l-2.66 2.59-1.29-1.25-2.21-2.15 2.49-2.42 1.01-0.98 2.77 2.69c0.03-0.45 0.05-0.89 0.06-1.33l-2.11-2.06 2.13-2.08v-0.13" fill="#d7d9f0"/></g>
  <g id="change2_1"><path d="m62.441 347.12l97.239-88.24 4.86 4.86-88.255 97.24-13.844-13.86" fill="#151b37"/></g>
  <g id="change2_2"><path d="m57.273 343.84c-1.691 1.69-1.691 4.43 0 6.12l14.875 14.88c1.692 1.69 4.43 1.69 6.122 0 1.687-1.69 1.687-4.43 0-6.12l-14.879-14.88c-1.688-1.69-4.43-1.69-6.118 0" fill="#151b37"/></g>
  <g id="change3_1"><path d="m365.23 116.09c-0.04 1.52-0.13 3.04-0.28 4.57-0.03 0.42-0.08 0.85-0.13 1.27-0.06 0.52-0.12 1.03-0.2 1.55l-0.06 0.45c-0.06 0.4-0.12 0.79-0.18 1.19-0.15 0.9-0.31 1.8-0.5 2.7-0.07 0.39-0.15 0.78-0.24 1.16v0.01c-0.13 0.57-0.26 1.13-0.4 1.69-0.26 1.06-0.55 2.12-0.86 3.18-0.17 0.58-0.35 1.15-0.54 1.72-0.03 0.1-0.07 0.21-0.1 0.31-0.5 1.54-1.06 3.08-1.69 4.6-0.12 0.34-0.26 0.67-0.4 1.01-0.66 1.58-1.38 3.15-2.16 4.7-0.16 0.31-0.31 0.62-0.48 0.93-0.05 0.1-0.1 0.21-0.16 0.31-0.53 1.01-1.09 2.02-1.67 3.02l-0.42 0.72c-0.07 0.12-0.14 0.23-0.21 0.35-0.17 0.29-0.35 0.59-0.54 0.88-0.86 1.4-1.77 2.77-2.74 4.13-0.18 0.28-0.38 0.56-0.59 0.83-0.95 1.32-1.95 2.61-3 3.88-0.2 0.26-0.42 0.52-0.64 0.77l-0.23 0.28c-0.97 1.14-1.97 2.26-3.02 3.36-0.22 0.25-0.46 0.49-0.69 0.73-0.33 0.34-0.66 0.68-0.99 1.01-0.75 0.75-1.5 1.48-2.26 2.2l-0.23 0.21c-0.24 0.24-0.49 0.46-0.73 0.68-1.21 1.13-2.43 2.21-3.66 3.25-0.26 0.22-0.51 0.43-0.77 0.64-1.27 1.06-2.56 2.08-3.86 3.06l-0.81 0.6c-0.57 0.42-1.15 0.83-1.73 1.24-0.78 0.55-1.56 1.08-2.35 1.59-0.29 0.19-0.57 0.38-0.86 0.56-1.32 0.85-2.65 1.66-3.99 2.41-1.07 0.61-2.14 1.18-3.21 1.73-0.88 0.45-1.76 0.88-2.65 1.28l-0.1 0.05c-0.3 0.14-0.59 0.27-0.89 0.39-1.64 0.73-3.3 1.39-4.96 1.98-0.35 0.13-0.7 0.25-1.05 0.36l-0.05 0.02c-0.73 0.24-1.47 0.47-2.2 0.68-0.66 0.2-1.32 0.38-1.99 0.55-0.39 0.11-0.78 0.2-1.18 0.3-0.38 0.09-0.77 0.18-1.15 0.26l-0.13 0.03c-1.96 0.42-3.93 0.73-5.89 0.93-0.6 0.07-1.21 0.12-1.81 0.15-2.14 0.16-4.27 0.18-6.4 0.07l-0.13-0.01c-0.61-0.03-1.22-0.08-1.82-0.13-1.81-0.17-3.61-0.43-5.41-0.8-0.21-0.04-0.42-0.09-0.63-0.13-0.39-0.09-0.77-0.18-1.16-0.27-0.52-0.13-1.03-0.26-1.55-0.41-0.68-0.18-1.36-0.39-2.04-0.62-0.58-0.18-1.15-0.38-1.73-0.6-0.34-0.12-0.68-0.25-1.03-0.39-1.6-0.62-3.2-1.34-4.78-2.15-0.31-0.16-0.62-0.32-0.93-0.49-0.99-0.53-1.98-1.1-2.96-1.7-0.46-0.28-0.93-0.58-1.39-0.88-0.28-0.18-0.56-0.37-0.84-0.57-1.34-0.9-2.66-1.88-3.98-2.93-0.26-0.21-0.52-0.43-0.78-0.65-0.44-0.36-0.87-0.73-1.31-1.11-0.79-0.68-1.57-1.39-2.35-2.13-0.23-0.23-0.47-0.46-0.71-0.7-0.2-0.19-0.4-0.39-0.6-0.59-0.66-0.66-1.31-1.33-1.93-1.99l-0.03-0.03c-0.47-0.7-0.86-1.27-0.95-1.41-0.12-0.16-0.79-0.76-1.62-1.46l-0.01-0.01-0.06-0.05c-0.7-0.82-1.37-1.63-2.01-2.45-0.21-0.27-0.42-0.53-0.62-0.8-0.6-0.78-1.17-1.56-1.72-2.34-0.4-0.56-0.78-1.12-1.14-1.68-0.19-0.28-0.38-0.56-0.55-0.85-0.93-1.45-1.77-2.89-2.53-4.34-0.17-0.31-0.33-0.62-0.49-0.93-0.79-1.59-1.49-3.18-2.09-4.76-0.13-0.35-0.26-0.69-0.38-1.03-0.05-0.15-0.1-0.29-0.15-0.44-0.25-0.7-0.47-1.39-0.67-2.08-0.1-0.34-0.2-0.68-0.29-1.02-0.16-0.58-0.31-1.17-0.44-1.75-0.09-0.38-0.18-0.77-0.25-1.15-0.27-1.32-0.48-2.64-0.62-3.96-0.02-0.15-0.04-0.3-0.05-0.45-0.04-0.36-0.07-0.72-0.1-1.08l-0.03-0.54c-0.03-0.44-0.05-0.89-0.07-1.33-0.06-1.65-0.03-3.3 0.1-4.95 0.03-0.43 0.07-0.85 0.12-1.28 0.02-0.29 0.05-0.59 0.09-0.88 0.06-0.53 0.14-1.07 0.22-1.6 0.14-0.88 0.3-1.76 0.49-2.63 0.05-0.25 0.11-0.5 0.17-0.75 0.08-0.38 0.16-0.76 0.26-1.14 0.37-1.49 0.81-2.98 1.32-4.46 0.03-0.1 0.06-0.21 0.1-0.31 0.21-0.62 0.44-1.23 0.67-1.84 0.58-1.5 1.22-2.99 1.93-4.48 0.14-0.32 0.3-0.63 0.45-0.95 0.62-1.26 1.28-2.52 1.99-3.77 0.13-0.24 0.27-0.47 0.41-0.71 0.17-0.29 0.34-0.59 0.52-0.88 0.58-0.98 1.18-1.95 1.81-2.92l0.02-0.02c0.93-1.43 1.92-2.85 2.96-4.27l0.11-0.16c0.4-0.551 0.82-1.11 1.24-1.66 0.2-0.27 0.41-0.532 0.61-0.801 0.99-1.278 2.02-2.539 3.09-3.797 0.21-0.262 0.43-0.512 0.65-0.762 1.05-1.23 2.13-2.441 3.25-3.648 0.23-0.25 0.45-0.492 0.68-0.731 0.48-0.519 0.97-1.031 1.46-1.543 0.64-0.66 1.28-1.316 1.93-1.968l0.2-0.2c0.17-0.172 0.34-0.34 0.51-0.5 1.17-1.148 2.37-2.261 3.59-3.32 0.19-0.172 0.39-0.34 0.59-0.512l0.17-0.136c1.25-1.082 2.53-2.114 3.82-3.09 0.27-0.203 0.54-0.41 0.81-0.602 1.35-1 2.72-1.949 4.1-2.832 1.22-0.797 2.46-1.547 3.71-2.258 0.18-0.101 0.36-0.199 0.54-0.3 0.32-0.192 0.65-0.372 0.98-0.551 0.3-0.168 0.61-0.328 0.92-0.489 1.54-0.82 3.1-1.57 4.67-2.261 0.33-0.149 0.66-0.297 0.99-0.43 1.23-0.527 2.47-1.019 3.71-1.469 0.44-0.16 0.87-0.32 1.31-0.461 0.84-0.3 1.68-0.57 2.52-0.82 1.31-0.41 2.63-0.777 3.94-1.09 0.33-0.09 0.66-0.16 0.99-0.238l0.16-0.031c1.38-0.321 2.76-0.59 4.13-0.809 0.57-0.09 1.14-0.18 1.7-0.25l0.07-0.012c0.24-0.039 0.49-0.07 0.73-0.097 0.18-0.024 0.36-0.043 0.54-0.063 2.11-0.25 4.2-0.398 6.28-0.437 0.56-0.024 1.12-0.024 1.68-0.012 2.15 0 4.28 0.129 6.38 0.371 0.11 0.008 0.21 0.02 0.32 0.027 0.84 0.102 1.68 0.211 2.51 0.352 1.46 0.23 2.9 0.52 4.31 0.871 0.16 0.027 0.32 0.07 0.48 0.109 0.22 0.051 0.44 0.11 0.66 0.18 1.34 0.34 2.67 0.738 3.97 1.199 0.79 0.262 1.56 0.551 2.33 0.871l0.01 0.008c1.62 0.633 3.2 1.364 4.74 2.172 0.31 0.16 0.61 0.328 0.92 0.5 0.74 0.399 1.46 0.828 2.18 1.27 0.71 0.441 1.41 0.89 2.1 1.371 0.28 0.187 0.56 0.379 0.83 0.59 1.32 0.937 2.6 1.961 3.84 3.058 0.25 0.223 0.5 0.442 0.75 0.672 0.29 0.27 0.58 0.539 0.86 0.809 0.23 0.218 0.47 0.449 0.69 0.679 0.64 0.641 1.27 1.313 1.87 1.981 0.23 0.25 0.45 0.5 0.66 0.762 0.1 0.109 0.2 0.226 0.29 0.339 0.97 1.137 1.88 2.321 2.73 3.528 0.19 0.269 0.38 0.551 0.57 0.832 0.85 1.269 1.64 2.57 2.36 3.898 0.07 0.141 0.15 0.27 0.21 0.41 0.18 0.301 0.34 0.61 0.49 0.922 0.5 0.957 0.96 1.93 1.38 2.918 0.41 0.93 0.79 1.871 1.13 2.832 0.63 1.707 1.17 3.457 1.61 5.239 0.1 0.37 0.2 0.75 0.28 1.13 0.03 0.13 0.06 0.25 0.09 0.38 0.15 0.68 0.29 1.36 0.42 2.05 0.1 0.55 0.2 1.11 0.29 1.68 0.09 0.55 0.16 1.11 0.24 1.68 0.05 0.41 0.1 0.83 0.13 1.26 0.03 0.2 0.05 0.4 0.07 0.6 0.12 1.3 0.2 2.61 0.24 3.93 0.02 0.47 0.03 0.94 0.02 1.41 0.01 0.17 0.01 0.35 0.01 0.53 0 0.47-0.01 0.95-0.02 1.42zm3.86-3.76v-0.13c-0.01-0.4-0.02-0.81-0.04-1.21-0.01-0.47-0.04-0.94-0.07-1.41-0.03-0.51-0.07-1.01-0.13-1.51-0.06-0.82-0.15-1.63-0.26-2.44-0.04-0.29-0.08-0.59-0.12-0.88-0.06-0.41-0.12-0.81-0.19-1.21-0.19-1.18-0.42-2.34-0.68-3.5-0.14-0.61-0.28-1.22-0.44-1.829-0.03-0.102-0.06-0.211-0.08-0.313-0.1-0.367-0.2-0.726-0.31-1.097-0.49-1.742-1.07-3.449-1.73-5.121-0.13-0.34-0.27-0.668-0.41-1-0.42-1.032-0.88-2.051-1.37-3.059-0.48-0.973-0.98-1.93-1.51-2.871-0.75-1.328-1.56-2.629-2.44-3.891-0.18-0.281-0.38-0.558-0.58-0.839-0.94-1.321-1.95-2.61-3.03-3.848-0.21-0.25-0.43-0.5-0.66-0.75-0.62-0.703-1.27-1.383-1.94-2.051-0.49-0.492-0.98-0.961-1.48-1.43-0.25-0.222-0.49-0.453-0.74-0.671-1.23-1.098-2.5-2.129-3.81-3.098-0.27-0.203-0.55-0.402-0.82-0.594-1.37-0.969-2.78-1.867-4.22-2.699-0.3-0.168-0.61-0.34-0.91-0.508-0.25-0.141-0.5-0.269-0.75-0.402-0.95-0.508-1.92-0.981-2.9-1.43-0.33-0.148-0.66-0.301-1-0.449-0.33-0.141-0.67-0.281-1.01-0.418-1.68-0.692-3.39-1.293-5.13-1.813-0.37-0.109-0.74-0.218-1.11-0.32-0.82-0.23-1.65-0.437-2.48-0.629-0.61-0.148-1.23-0.281-1.85-0.398-0.44-0.09-0.89-0.184-1.34-0.25-0.41-0.082-0.82-0.141-1.23-0.211-0.11-0.02-0.23-0.031-0.34-0.051-1.71-0.262-3.43-0.441-5.17-0.551-0.48-0.039-0.95-0.058-1.43-0.078-0.25-0.012-0.5-0.019-0.76-0.031-2.07-0.07-4.16-0.039-6.26 0.09-0.82 0.05-1.64 0.121-2.47 0.199-1.44 0.141-2.88 0.32-4.33 0.551-0.24 0.039-0.49 0.082-0.73 0.121-0.41 0.058-0.82 0.14-1.22 0.211-0.68 0.129-1.35 0.258-2.03 0.398-0.62 0.141-1.25 0.281-1.87 0.43-0.12 0.031-0.25 0.058-0.37 0.09-0.47 0.121-0.93 0.242-1.4 0.371-0.37 0.09-0.74 0.199-1.12 0.308-1.75 0.5-3.51 1.063-5.25 1.7-0.35 0.121-0.69 0.242-1.04 0.382-0.41 0.149-0.82 0.309-1.23 0.469-0.84 0.328-1.68 0.68-2.52 1.051-0.17 0.07-0.33 0.148-0.5 0.219-0.22 0.101-0.43 0.191-0.65 0.3-0.33 0.141-0.65 0.29-0.97 0.45-1.43 0.66-2.85 1.379-4.25 2.14-0.12 0.059-0.24 0.129-0.35 0.192-0.3 0.168-0.6 0.328-0.89 0.5l-0.02 0.008c-1.45 0.82-2.89 1.691-4.31 2.609-0.29 0.18-0.57 0.371-0.85 0.562-0.82 0.539-1.63 1.09-2.44 1.668-0.54 0.391-1.08 0.782-1.62 1.192-0.27 0.187-0.54 0.398-0.8 0.609-0.15 0.11-0.29 0.219-0.43 0.328-1.89 1.453-3.73 3.012-5.52 4.653-0.95 0.871-1.88 1.757-2.8 2.679-0.17 0.168-0.34 0.352-0.51 0.52-1.78 1.781-3.49 3.59-5.13 5.41-0.85 0.93-1.67 1.871-2.48 2.809-0.25 0.281-0.49 0.57-0.73 0.851-0.82 0.969-1.61 1.942-2.38 2.918-0.21 0.262-0.42 0.531-0.62 0.793-0.73 0.93-1.44 1.859-2.12 2.801-0.28 0.387-0.55 0.769-0.82 1.148-0.17 0.231-0.33 0.461-0.49 0.692l-0.09 0.136c-0.96 1.372-1.87 2.742-2.74 4.132-0.18 0.29-0.36 0.58-0.54 0.88-0.11 0.18-0.22 0.37-0.33 0.55-0.76 1.27-1.48 2.55-2.16 3.83-0.17 0.31-0.33 0.62-0.48 0.93-0.08 0.13-0.15 0.27-0.2 0.4-0.46 0.88-0.88 1.75-1.28 2.63-0.25 0.55-0.49 1.09-0.72 1.63-0.14 0.33-0.28 0.66-0.41 0.99-0.32 0.77-0.62 1.55-0.9 2.32-0.33 0.9-0.64 1.8-0.92 2.71-0.12 0.35-0.23 0.71-0.33 1.08-0.17 0.57-0.33 1.14-0.47 1.72-0.06 0.19-0.1 0.38-0.15 0.57l-0.3 1.26c-0.15 0.66-0.28 1.31-0.4 1.97-0.08 0.4-0.15 0.8-0.21 1.2-0.25 1.58-0.44 3.16-0.54 4.75-0.03 0.46-0.05 0.93-0.07 1.39v0.12c-0.02 0.43-0.03 0.88-0.03 1.31v0.02c-0.01 0.19-0.01 0.41-0.02 0.62 0.2 1.41 0.42 2.81 0.68 4.2 0.07 0.4 0.14 0.79 0.22 1.19 0.35 1.88 0.76 3.75 1.22 5.61l0.02 0.09c0.1 0.33 0.21 0.65 0.32 0.97 0.55 1.7 1.14 3.39 1.8 5.05 0.12 0.34 0.25 0.67 0.4 1.01 1.35 3.41 2.9 6.75 4.64 10.01l0.01 0.01 0.09 0.15c0.43 0.84 0.89 1.67 1.37 2.49 0.1 0.15 0.21 0.29 0.32 0.44 1.45 2.82 3.08 6.91 1.96 9.55l-86.99 87.01 4.85 4.88 87.33-87.36c0-0.01 2.34-1.56 5.93 0.17l0.01 0.01c1.72 1.49 3.47 2.84 5.23 4.09 0.11 0.05 0.21 0.1 0.32 0.16 0.32 0.15 0.63 0.31 0.95 0.46 1.56 0.76 3.12 1.53 4.68 2.27 0.32 0.15 0.64 0.3 0.95 0.45 1.6 0.74 3.2 1.46 4.81 2.14 0.34 0.14 0.67 0.28 1.01 0.41 1.68 0.68 3.38 1.3 5.1 1.85 0.37 0.11 0.73 0.22 1.1 0.32l0.12 0.04c1.82 0.53 3.64 0.96 5.47 1.32 0.4 0.08 0.8 0.16 1.2 0.23 1.76 0.33 3.53 0.59 5.3 0.82h0.86c0.23 0 0.46 0 0.69-0.01h0.11c0.57-0.01 1.14-0.03 1.71-0.06 2.11-0.09 4.22-0.31 6.33-0.64 0.71-0.11 1.42-0.23 2.13-0.38 1.59-0.3 3.18-0.67 4.76-1.12 0.37-0.09 0.74-0.2 1.11-0.31 1.31-0.38 2.62-0.81 3.92-1.29 0.78-0.27 1.56-0.57 2.34-0.88 1.6-0.64 3.19-1.34 4.77-2.1 0.32-0.15 0.64-0.31 0.96-0.46 1.31-0.66 2.61-1.35 3.91-2.08 0.2-0.11 0.4-0.23 0.6-0.35 0.3-0.16 0.6-0.34 0.9-0.51 1.43-0.84 2.85-1.74 4.26-2.67l0.84-0.57c1.36-0.92 2.7-1.88 4.03-2.88 0.27-0.2 0.53-0.41 0.8-0.61 0.12-0.09 0.23-0.18 0.35-0.27 1.17-0.91 2.33-1.85 3.47-2.82 0.26-0.21 0.52-0.43 0.77-0.65 0.6-0.51 1.19-1.03 1.78-1.56 0.63-0.56 1.25-1.13 1.87-1.71 0.24-0.22 0.49-0.45 0.73-0.68 0.78-0.74 1.55-1.49 2.32-2.26 0.16-0.16 0.33-0.33 0.49-0.5 0.22-0.22 0.45-0.45 0.65-0.68 0.24-0.23 0.45-0.46 0.67-0.7l0.02-0.02c1.13-1.18 2.21-2.39 3.26-3.63 0.21-0.25 0.43-0.51 0.64-0.77 0.29-0.35 0.58-0.7 0.86-1.06 0.75-0.92 1.47-1.86 2.16-2.8 0.2-0.28 0.4-0.55 0.59-0.83 0.46-0.64 0.91-1.28 1.34-1.92 0.49-0.72 0.97-1.45 1.44-2.18 0.18-0.29 0.36-0.57 0.54-0.86 0.89-1.44 1.73-2.89 2.52-4.36 0.17-0.31 0.33-0.61 0.49-0.92 0.63-1.21 1.23-2.42 1.79-3.65 0.15-0.33 0.3-0.65 0.44-0.98 0.15-0.32 0.29-0.65 0.43-0.98 0.07-0.15 0.14-0.31 0.2-0.46 0.33-0.77 0.64-1.54 0.94-2.31 0.28-0.72 0.54-1.43 0.79-2.15 0.13-0.35 0.25-0.69 0.37-1.04 0.57-1.7 1.08-3.4 1.53-5.11l0.04-0.16c0.1-0.37 0.19-0.75 0.28-1.13l0.05-0.19c0.15-0.6 0.29-1.2 0.42-1.8 0.21-0.97 0.4-1.93 0.56-2.9 0.05-0.26 0.09-0.52 0.13-0.78 0.07-0.41 0.13-0.81 0.19-1.22 0.16-1.05 0.29-2.09 0.38-3.14 0.06-0.51 0.11-1.02 0.14-1.53 0.05-0.51 0.08-1.01 0.11-1.52 0.03-0.45 0.05-0.89 0.06-1.33 0.05-1.39 0.06-2.77 0.02-4.14" fill="#bf1a2c"/></g>
 </g>
</svg>