<?xml version="1.0" encoding="UTF-8"?><svg xmlns="http://www.w3.org/2000/svg" xmlns:xlink="http://www.w3.org/1999/xlink" height="250.0" preserveAspectRatio="xMidYMid meet" version="1.1" viewBox="89.6 85.7 242.5 250.0" width="242.5" zoomAndPan="magnify">
 <g id="surface1">
  <g id="change1_1"><path d="m167.26 159.59l74.47-14.15c3.98-0.98 7.87 1.19 8.68 4.85 0.57 2.53-0.48 5.12-2.51 6.8 3.15-0.02 5.96 1.87 6.75 4.82 0.49 1.86 0.1 3.77-0.93 5.35 1.97 0.59 3.61 1.99 4.34 3.96 0.91 2.45 0.17 5.14-1.66 7.02 2.44 0.22 4.62 1.57 5.65 3.78 1.3 2.8 0.34 6.09-2.13 8.1 2.71-0.13 5.29 1.15 6.55 3.5 1.76 3.31 0.23 7.49-3.43 9.34l-65.71 37.8c-3.66 1.84-9.99-2.98-11.76-6.28-1.19-2.24-1.76-6.52-0.88-9.63-2.38-1.5-4.53-3.82-5.38-5.65-1.06-2.29-1.4-6.61-0.36-9.69-2.69-1.59-5.17-4.57-5.98-6.76-0.78-2.09-0.86-5.73 0.01-8.63-2.63-1.77-4.95-5.08-5.57-7.42-0.47-1.77-0.39-4.54 0.28-7.05-2.55-1.86-4.74-5.27-5.26-7.63-0.82-3.66 0.84-11.45 4.83-12.43" fill="#fff"/></g>
  <g id="change2_1"><path d="m167.81 162.03c-2.02 0.58-3.6 6.47-2.94 9.44 0.39 1.75 2.2 4.64 4.29 6.17 0.83 0.6 1.21 1.66 0.94 2.66-0.62 2.34-0.58 4.62-0.28 5.76 0.47 1.72 2.4 4.54 4.55 5.99 0.91 0.61 1.31 1.74 1 2.79-0.75 2.49-0.62 5.54-0.06 7.04 0.59 1.59 2.63 4.13 4.91 5.48 1.02 0.6 1.48 1.83 1.1 2.95-0.84 2.49-0.54 6.12 0.26 7.83 0.59 1.27 2.3 3.25 4.44 4.59 0.94 0.59 1.37 1.73 1.07 2.79-0.7 2.51-0.2 6.11 0.69 7.78 1.22 2.29 5.26 5.36 7.71 5.36 0.27 0 0.49-0.04 0.67-0.12l65.64-37.75c0.04-0.02 0.08-0.04 0.11-0.06 1.26-0.64 2.21-1.71 2.6-2.94 0.32-1.03 0.24-2.09-0.24-3-0.76-1.41-2.4-2.26-4.23-2.18-1.08 0.05-2.07-0.59-2.45-1.6-0.39-1.01-0.08-2.15 0.75-2.83 1.66-1.35 2.23-3.4 1.44-5.1-0.61-1.32-1.96-2.2-3.6-2.35-0.96-0.09-1.79-0.71-2.12-1.62-0.34-0.9-0.12-1.92 0.55-2.61 1.22-1.26 1.65-2.95 1.1-4.41-0.42-1.16-1.42-2.05-2.71-2.44-0.76-0.22-1.36-0.79-1.63-1.54-0.27-0.74-0.18-1.56 0.25-2.22 0.69-1.05 0.9-2.23 0.61-3.33-0.47-1.78-2.2-2.97-4.29-2.97-1.05 0-2.01-0.67-2.37-1.66s-0.07-2.1 0.74-2.77c1.37-1.14 2.01-2.79 1.67-4.32-0.42-1.85-2.19-3.14-4.33-3.14-0.44 0-0.88 0.06-1.32 0.17-0.04 0.01-0.09 0.02-0.13 0.03zm27.68 81.63c-4.86 0-10.34-4.66-12.13-8.01-1.34-2.53-1.89-6.42-1.45-9.69-2.14-1.65-3.96-3.77-4.86-5.7-1.2-2.58-1.54-6.44-0.95-9.67-2.43-1.89-4.6-4.6-5.48-6.97-0.84-2.28-0.99-5.57-0.45-8.51-2.41-2.1-4.47-5.14-5.18-7.76-0.49-1.84-0.51-4.32-0.07-6.75-2.36-2.19-4.33-5.36-4.93-8.04-1-4.47 0.82-13.95 6.67-15.4 0.04-0.01 0.09-0.02 0.13-0.03l74.41-14.13c0.81-0.2 1.64-0.3 2.45-0.3 4.49 0 8.28 2.9 9.21 7.05 0.44 1.96 0.18 3.98-0.66 5.79 2.37 1.14 4.18 3.18 4.86 5.73 0.42 1.57 0.39 3.22-0.07 4.79 1.56 1.04 2.76 2.52 3.41 4.29 0.78 2.11 0.72 4.38-0.11 6.45 1.76 0.91 3.18 2.35 4.03 4.17 1.11 2.39 1.04 5.1-0.02 7.47 1.86 0.81 3.42 2.2 4.38 4 1.12 2.1 1.33 4.54 0.59 6.85-0.78 2.49-2.62 4.62-5.04 5.87l-65.66 37.76c-0.03 0.03-0.07 0.05-0.11 0.07-0.89 0.45-1.89 0.67-2.97 0.67" fill="#231f1f"/></g>
  <g id="change1_2"><path d="m171.68 151.49c-4.23 1-5.76 9.89-4.77 14.13 1 4.24 6.34 11.51 10.58 10.51l77.22-23.1c4.24-1 6.86-5.24 5.87-9.48-1-4.23-5.24-6.86-9.48-5.86l-79.42 13.8" fill="#fff"/></g>
  <g id="change2_2"><path d="m172.21 153.94c-0.74 0.22-1.77 1.54-2.46 4.06-0.65 2.38-0.82 5.28-0.4 7.05 0.79 3.34 4.93 8.68 7.33 8.68 0.06 0 0.12-0.01 0.18-0.02l77.14-23.07c0.05-0.02 0.09-0.03 0.14-0.04 1.4-0.33 2.59-1.19 3.34-2.41 0.76-1.22 1-2.67 0.66-4.06-0.57-2.45-2.72-4.15-5.23-4.15-0.41 0-0.82 0.05-1.23 0.14-0.05 0.02-0.1 0.02-0.15 0.03zm4.47 24.79c-5.98-0.01-11.2-8.28-12.2-12.54-0.6-2.57-0.43-6.31 0.45-9.51 1.16-4.25 3.36-6.96 6.18-7.62l0.15-0.03 79.35-13.79c0.75-0.17 1.53-0.26 2.3-0.26 4.84 0 8.99 3.29 10.1 8 0.64 2.7 0.19 5.48-1.28 7.84-1.44 2.34-3.7 3.98-6.37 4.63l-77.16 23.08c-0.04 0.01-0.09 0.02-0.14 0.04-0.45 0.1-0.92 0.16-1.38 0.16" fill="#231f1f"/></g>
  <g id="change1_3"><path d="m176.97 168.37c-4.19 1.16-5.38 10.1-4.22 14.3 1.15 4.19 6.77 11.26 10.96 10.1l76.29-26.02c4.2-1.16 6.66-5.49 5.5-9.69s-5.5-6.66-9.69-5.5l-78.84 16.81" fill="#fff"/></g>
  <g id="change2_3"><path d="m177.59 170.79c-2.01 0.66-3.48 7.4-2.43 11.21 0.91 3.32 5.15 8.4 7.6 8.4 0.08 0 0.16-0.01 0.24-0.02l76.2-25.99c0.04-0.02 0.09-0.03 0.14-0.05 2.86-0.79 4.54-3.75 3.75-6.61-0.64-2.33-2.77-3.96-5.18-3.96-0.48 0-0.96 0.07-1.44 0.2-0.04 0.01-0.09 0.03-0.14 0.04zm5.17 24.61c-5.88 0-11.29-7.97-12.42-12.07-1.39-5.01-0.14-15.69 5.97-17.37 0.05-0.01 0.09-0.03 0.14-0.04l78.77-16.79c0.88-0.24 1.78-0.36 2.69-0.36 4.65 0 8.77 3.14 10 7.62 1.52 5.5-1.7 11.2-7.16 12.75l-76.23 26c-0.05 0.02-0.09 0.03-0.14 0.04-0.52 0.14-1.07 0.22-1.62 0.22" fill="#231f1f"/></g>
  <g id="change1_4"><path d="m206.63 245.8c-3.86 2.01-10.82-3.74-12.82-7.6-2.01-3.87-2.7-12.87 1.17-14.87l73.63-32.8c3.86-2 8.62-0.49 10.62 3.37s0.5 8.62-3.37 10.62l-69.23 41.28" fill="#fff"/></g>
  <g id="change2_4"><path d="m196.09 225.57c-0.67 0.4-1.35 1.93-1.4 4.54-0.05 2.47 0.5 5.32 1.34 6.93 1.45 2.79 6.15 6.67 8.79 6.67 0.25 0 0.45-0.03 0.61-0.1l69.16-41.23c0.04-0.03 0.08-0.06 0.12-0.08 2.64-1.36 3.67-4.62 2.31-7.25-0.93-1.79-2.77-2.91-4.79-2.91-0.86 0-1.69 0.21-2.47 0.61-0.04 0.02-0.08 0.05-0.13 0.07zm8.73 23.14c-5.11 0-11.25-5.55-13.23-9.36-1.22-2.35-1.96-6.01-1.9-9.33 0.09-4.41 1.56-7.57 4.13-8.91 0.05-0.02 0.09-0.04 0.14-0.06l73.57-32.77c1.45-0.74 3.08-1.14 4.7-1.14 3.9 0 7.43 2.15 9.22 5.61 2.62 5.05 0.67 11.3-4.36 13.95l-69.18 41.25c-0.04 0.03-0.09 0.05-0.13 0.07-0.89 0.46-1.88 0.69-2.96 0.69" fill="#231f1f"/></g>
  <g id="change1_5"><path d="m199.02 228.66c-3.96 1.81-10.62-4.27-12.43-8.23s-2.05-12.98 1.91-14.79l75.16-29.11c3.96-1.81 8.64-0.07 10.45 3.89 1.8 3.96 0.07 8.63-3.89 10.44l-71.2 37.8" fill="#fff"/></g>
  <g id="change2_5"><path d="m189.49 207.94c-1.88 0.97-2.27 7.85-0.63 11.45 1.36 2.97 5.93 7.1 8.57 7.1 0.2 0 0.37-0.03 0.51-0.08l71.11-37.75c0.04-0.03 0.08-0.05 0.13-0.07 1.3-0.6 2.3-1.67 2.8-3.01 0.5-1.35 0.45-2.81-0.15-4.12-0.87-1.91-2.79-3.14-4.89-3.14-0.78 0-1.53 0.16-2.24 0.48-0.04 0.03-0.09 0.05-0.13 0.06zm7.94 23.55c-5.21 0-11.24-5.94-13.11-10.02-2.16-4.74-2.62-15.47 3.14-18.1 0.04-0.02 0.09-0.04 0.13-0.06l75.11-29.08c1.34-0.61 2.77-0.91 4.24-0.91 4.05 0 7.76 2.38 9.44 6.06 1.15 2.52 1.26 5.34 0.29 7.94-0.96 2.57-2.86 4.63-5.34 5.79l-71.13 37.76c-0.05 0.02-0.09 0.05-0.14 0.07-0.8 0.37-1.69 0.55-2.63 0.55" fill="#231f1f"/></g>
  <g id="change1_6"><path d="m182.23 186.7c-4.08 1.51-4.5 10.52-2.99 14.6 1.51 4.09 7.7 10.65 11.78 9.14l73.8-32.44c4.08-1.52 6.16-6.05 4.65-10.13-1.52-4.08-6.05-6.16-10.13-4.65l-77.11 23.48" fill="#fff"/></g>
  <g id="change2_6"><path d="m183.05 189.06c-1.95 0.83-2.84 7.67-1.47 11.38 1.16 3.11 5.65 7.72 8.16 7.72 0.14 0 0.26-0.02 0.37-0.05l73.7-32.4c0.05-0.02 0.09-0.04 0.14-0.06 2.78-1.03 4.21-4.13 3.17-6.91-0.77-2.1-2.8-3.51-5.04-3.51-0.64 0-1.27 0.11-1.87 0.33-0.05 0.02-0.09 0.04-0.14 0.05zm6.69 24.1c-5.28 0-11.22-6.61-12.85-10.99-1.8-4.88-1.47-15.62 4.47-17.82 0.05-0.01 0.09-0.03 0.14-0.05l77.05-23.45c1.14-0.42 2.33-0.62 3.53-0.62 4.32 0 8.23 2.72 9.73 6.77 1.98 5.34-0.73 11.3-6.05 13.31l-73.73 32.41c-0.05 0.02-0.09 0.04-0.14 0.06-0.67 0.25-1.4 0.38-2.15 0.38" fill="#231f1f"/></g>
  <g id="change1_7"><path d="m275.62 127.91l-12.31 4.56 25.22 68.07 12.31-4.57c18.79-6.96 28.38-27.85 21.42-46.64-0.51-1.38-1.09-2.7-1.75-3.97-8.26-16.14-27.47-23.91-44.89-17.45" fill="#fff"/></g>
  <g id="change2_7"><path d="m266.52 133.95l23.48 63.37 9.97-3.69c17.47-6.48 26.42-25.96 19.94-43.43-0.47-1.29-1.02-2.53-1.62-3.7-5.81-11.33-17.33-18.36-30.07-18.36-4 0-7.95 0.71-11.74 2.11zm22.01 69.09c-0.36 0-0.72-0.08-1.05-0.24-0.6-0.27-1.07-0.78-1.3-1.4l-25.22-68.06c-0.23-0.63-0.2-1.31 0.08-1.91 0.27-0.61 0.78-1.07 1.4-1.31l12.31-4.56c4.34-1.61 8.88-2.42 13.47-2.42 14.63 0 27.85 8.07 34.51 21.07 0.7 1.35 1.33 2.78 1.88 4.25 7.43 20.06-2.84 42.42-22.9 49.86l-12.32 4.56c-0.28 0.1-0.57 0.16-0.86 0.16" fill="#231f1f"/></g>
  <g id="change1_8"><path d="m248.46 137.97l25.22 68.07 17.46-6.47-25.22-68.07-17.46 6.47" fill="#fff"/></g>
  <g id="change2_8"><path d="m251.67 139.45l23.49 63.37 12.77-4.73-23.48-63.38zm22.01 69.09c-1.02 0-1.97-0.63-2.34-1.63l-25.23-68.07c-0.22-0.62-0.2-1.31 0.08-1.91 0.27-0.61 0.78-1.07 1.4-1.3l17.46-6.47c1.3-0.48 2.74 0.18 3.22 1.47l25.22 68.07c0.23 0.62 0.2 1.31-0.08 1.91-0.27 0.6-0.78 1.07-1.4 1.3l-17.46 6.47c-0.29 0.1-0.58 0.16-0.87 0.16" fill="#231f1f"/></g>
  <g id="change2_9"><path d="m113.22 298.96c-0.94 0-1.84-0.53-2.27-1.43-21.395-45.46-11.829-83.13-0.03-106.72 12.75-25.5 30.3-40.06 31.04-40.67 1.07-0.87 2.65-0.71 3.52 0.35 0.88 1.07 0.72 2.64-0.34 3.52-0.18 0.14-17.58 14.61-29.83 39.21-16.353 32.83-16.298 67.21 0.17 102.18 0.59 1.25 0.05 2.74-1.2 3.33-0.34 0.16-0.71 0.23-1.06 0.23" fill="#231f1f"/></g>
  <g id="change2_10"><path d="m180.61 335.71c-0.59 0-1.19-0.21-1.67-0.64-23.29-20.73-31.96-48.35-35.12-67.87-3.43-21.08-1.4-37.07-1.31-37.74 0.18-1.37 1.44-2.33 2.8-2.16 1.37 0.18 2.33 1.44 2.16 2.81-0.08 0.62-7.7 63.4 34.8 101.23 1.03 0.91 1.12 2.5 0.2 3.53-0.49 0.55-1.18 0.84-1.86 0.84" fill="#231f1f"/></g>
  <g id="change2_11"><path d="m271.27 178.23c-1.01 0-1.97-0.62-2.34-1.62-16.93-44.88-19.95-72.81-8.98-83.016 8.46-7.864 21.31-2.063 21.85-1.809 1.25 0.578 1.8 2.067 1.22 3.317-0.58 1.253-2.06 1.8-3.31 1.222-0.15-0.062-10.39-4.636-16.36 0.946-5.25 4.9-10.9 21.5 10.26 77.57 0.48 1.3-0.17 2.74-1.46 3.23-0.29 0.11-0.59 0.16-0.88 0.16" fill="#231f1f"/></g>
 </g>
</svg>