<?xml version="1.0" encoding="UTF-8"?><svg xmlns="http://www.w3.org/2000/svg" xmlns:xlink="http://www.w3.org/1999/xlink" height="255.5" preserveAspectRatio="xMidYMid meet" version="1.0" viewBox="80.3 85.0 260.5 255.5" width="260.5" zoomAndPan="magnify"><g><g id="change1_1"><path d="M339.75,222.88c-0.12,1.52-0.27,3.03-0.45,4.55c-0.22,1.88-0.48,3.73-0.79,5.6v0.01 c-0.61,3.8-1.41,7.55-2.36,11.25c-0.44,1.76-0.93,3.5-1.45,5.23c-0.23,0.72-0.45,1.45-0.7,2.16 c-9.12,28.33-28.04,52.97-53.66,69.01c-3.99,2.5-8.14,4.79-12.46,6.84c-8.32,4.02-17.2,7.16-26.56,9.31 c-0.64,0.15-1.28,0.29-1.93,0.41c-0.68,0.16-1.35,0.3-2.04,0.44c-1.39,0.27-2.77,0.53-4.17,0.75 c-0.51,0.1-1.01,0.16-1.52,0.23c-9.49,1.46-18.93,1.82-28.19,1.15c-0.33-0.03-0.64-0.04-0.97-0.08 c-1.84-0.14-3.66-0.31-5.48-0.55c-0.97-0.12-1.94-0.25-2.9-0.4c-49.56-7.25-92.11-43.51-105.12-94.73 c-0.23-0.92-0.46-1.84-0.67-2.77c-0.22-0.93-0.42-1.84-0.61-2.77c-7.42-35.65,0.87-71.09,20.3-98.91 c1.54-2.23,3.17-4.4,4.85-6.5c17.32-21.77,41.83-38.04,71.02-44.78c9.37-2.16,18.72-3.24,27.94-3.29 c4.78-0.04,9.52,0.2,14.22,0.71c38.15,4.04,72.65,25.24,93.52,57.35v0.01c1.6,2.46,3.13,4.99,4.56,7.58 c1.91,3.44,3.67,7.01,5.26,10.67c0.81,1.82,1.56,3.66,2.27,5.53c1.42,3.7,2.68,7.5,3.76,11.39c0.53,1.84,1.01,3.73,1.45,5.61 c0.03,0.15,0.07,0.31,0.1,0.46C339.91,197.33,340.77,210.29,339.75,222.88z" fill="#e5e5e5"/></g><g id="change2_1"><path d="M288.42,212.27c-0.09,1.15-0.21,2.31-0.34,3.46c-0.17,1.43-0.36,2.84-0.6,4.26V220 c-0.47,2.89-1.07,5.75-1.8,8.56c-0.33,1.34-0.71,2.66-1.1,3.98c-0.18,0.55-0.34,1.1-0.53,1.64 c-6.94,21.55-21.33,40.3-40.83,52.51c-3.03,1.9-6.19,3.65-9.48,5.21c-6.33,3.06-13.08,5.45-20.21,7.09 c-0.49,0.11-0.98,0.22-1.47,0.31c-0.52,0.12-1.03,0.23-1.55,0.33c-1.06,0.21-2.11,0.41-3.17,0.57 c-0.38,0.07-0.77,0.12-1.15,0.18c-7.22,1.11-14.4,1.38-21.45,0.87c-0.25-0.02-0.49-0.03-0.74-0.06 c-1.4-0.1-2.78-0.24-4.17-0.42c-0.74-0.09-1.48-0.19-2.2-0.3c-37.71-5.52-70.08-33.11-79.98-72.07 c-0.18-0.7-0.35-1.4-0.51-2.11c-0.17-0.71-0.32-1.4-0.47-2.11c-5.64-27.12,0.67-54.09,15.44-75.25 c1.17-1.69,2.41-3.35,3.69-4.95c13.18-16.56,31.83-28.94,54.03-34.07c7.13-1.64,14.25-2.46,21.26-2.5 c3.64-0.03,7.24,0.16,10.82,0.54c29.02,3.08,55.27,19.2,71.15,43.63v0.01c1.22,1.87,2.38,3.79,3.47,5.77 c1.45,2.62,2.8,5.33,4,8.12c0.61,1.38,1.18,2.78,1.72,4.21c1.08,2.82,2.04,5.7,2.86,8.67c0.41,1.4,0.77,2.84,1.1,4.27 c0.02,0.11,0.05,0.24,0.07,0.35C288.54,192.83,289.2,202.69,288.42,212.27z" fill="#fff"/></g><g id="change3_7"><path d="M324.14,150.7c-0.97,5.48-2.8,10.8-5.5,15.73c-3.43,6.26-7.96,11.31-13.36,15.02 c-1.52,1.04-3.11,1.98-4.75,2.81c-2.93,1.47-6.05,2.6-9.35,3.36c-4.46,1.03-9.23,1.39-14.21,1.03 c-21.17-1.51-39.4-12.78-57.04-23.67c-10.22-6.32-20.8-12.85-31.62-17.19c-28.18-11.3-56.76-14.03-80.29-8.17 c1.55-2.22,3.17-4.39,4.86-6.5c23.35-4.29,50.61-1.05,77.43,9.7c11.24,4.51,22.01,11.16,32.44,17.61 c17.08,10.56,34.76,21.46,54.6,22.88c7.97,0.57,15.31-0.93,21.58-4.29c1.62-0.87,3.17-1.86,4.65-2.97 c4.15-3.14,7.66-7.24,10.37-12.19c3.5-6.39,5.37-13.51,5.63-20.73C321.18,145.58,322.69,148.11,324.14,150.7z" fill="#e94a3e"/></g><g id="change3_8"><path d="M339.29,227.43c-0.22,1.88-0.48,3.73-0.79,5.6c-0.44-0.23-0.89-0.45-1.32-0.67 c-8.06-3.87-16.84-4.6-25.46-2.25v0.01c-1.8,0.49-3.62,1.13-5.41,1.93c-1.58,0.67-3.14,1.46-4.68,2.35 c-17.21,9.98-28.3,27.55-39.03,44.52c-6.54,10.35-13.3,21.06-21.43,30.03c-11.53,12.76-24.37,23.18-37.68,30.88 c-0.33-0.03-0.64-0.04-0.97-0.08c-1.84-0.14-3.66-0.31-5.48-0.55c-0.97-0.12-1.94-0.25-2.9-0.4c0.59-0.3,1.19-0.6,1.78-0.92 c1.24-0.64,2.47-1.31,3.69-2.01c13.26-7.47,26.09-17.8,37.6-30.51c7.81-8.63,14.45-19.15,20.87-29.32 c11.08-17.52,22.52-35.65,40.88-46.29c2.46-1.42,4.96-2.6,7.47-3.55c1.78-0.67,3.55-1.22,5.34-1.64 c8.29-2.02,16.69-1.48,24.6,1.6C337.34,226.55,338.33,226.96,339.29,227.43z" fill="#e94a3e"/></g><g id="change4_12"><circle cx="116.54" cy="152.09" fill="#993326" r="4.09"/></g><g id="change4_13"><circle cx="140.08" cy="120.91" fill="#993326" r="4.09"/></g><g id="change3_9"><path d="M116.54,153.23c-0.06,0-0.13,0-0.19-0.01c-1.13-0.1-1.96-1.1-1.85-2.23c0.08-0.92,2.34-22.76,24.8-31.99 c1.05-0.43,2.24,0.07,2.67,1.12c0.43,1.05-0.07,2.24-1.12,2.67c-20.19,8.29-22.26,28.37-22.28,28.57 C118.48,152.44,117.59,153.23,116.54,153.23z" fill="#e94a3e"/></g><g id="change4_14"><circle cx="223.6" cy="292.67" fill="#993326" r="4.09"/></g><g id="change4_15"><circle cx="254.91" cy="316.04" fill="#993326" r="4.09"/></g><g id="change3_10"><path d="M254.91,318.09c-0.8,0-1.56-0.47-1.89-1.26c-8.4-20.15-28.49-22.11-28.69-22.12 c-1.13-0.1-1.96-1.09-1.87-2.22c0.1-1.13,1.08-1.95,2.22-1.87c0.93,0.08,22.78,2.22,32.12,24.63c0.44,1.04-0.06,2.24-1.1,2.68 C255.44,318.04,255.18,318.09,254.91,318.09z" fill="#e94a3e"/></g><g id="change4_16"><circle cx="239.26" cy="273.4" fill="#993326" r="4.09"/></g><g id="change4_17"><circle cx="270.57" cy="296.77" fill="#993326" r="4.09"/></g><g id="change3_11"><path d="M270.57,298.82c-0.8,0-1.56-0.47-1.89-1.26c-8.37-20.07-27.87-22.05-28.7-22.12 c-1.13-0.1-1.96-1.1-1.86-2.22c0.1-1.13,1.07-1.95,2.21-1.86c0.93,0.08,22.78,2.22,32.12,24.63c0.44,1.04-0.06,2.24-1.1,2.68 C271.1,298.77,270.84,298.82,270.57,298.82z" fill="#e94a3e"/></g><g id="change4_18"><circle cx="254.73" cy="254.15" fill="#993326" r="4.09"/></g><g id="change4_19"><circle cx="286.05" cy="277.52" fill="#993326" r="4.09"/></g><g id="change3_12"><path d="M286.05,279.57c-0.8,0-1.56-0.47-1.89-1.26c-8.4-20.15-28.49-22.11-28.69-22.12 c-1.13-0.1-1.96-1.09-1.87-2.22c0.1-1.13,1.08-1.95,2.22-1.87c0.93,0.08,22.78,2.22,32.12,24.63c0.44,1.04-0.06,2.24-1.1,2.68 C286.58,279.52,286.31,279.57,286.05,279.57z" fill="#e94a3e"/></g><g id="change4_20"><circle cx="270.39" cy="232.88" fill="#993326" r="4.09"/></g><g id="change4_21"><circle cx="301.71" cy="256.25" fill="#993326" r="4.09"/></g><g id="change3_13"><path d="M301.71,258.3c-0.8,0-1.56-0.47-1.89-1.26c-8.37-20.07-27.87-22.05-28.7-22.12 c-1.13-0.1-1.96-1.1-1.86-2.22c0.1-1.13,1.08-1.95,2.21-1.86c0.93,0.08,22.78,2.22,32.12,24.63c0.44,1.04-0.06,2.24-1.1,2.68 C302.24,258.25,301.97,258.3,301.71,258.3z" fill="#e94a3e"/></g><g><g id="change4_22"><circle cx="296.22" cy="213.2" fill="#993326" r="4.09"/></g><g id="change4_23"><circle cx="319.41" cy="244.64" fill="#993326" r="4.09"/></g><g id="change3_14"><path d="M319.41,246.69c-1.04,0-1.93-0.79-2.04-1.84c-2.2-21.72-20.86-29.42-21.05-29.49 c-1.05-0.42-1.56-1.61-1.14-2.66c0.42-1.05,1.61-1.56,2.66-1.14c0.86,0.34,21.16,8.72,23.6,32.88 c0.11,1.13-0.71,2.13-1.83,2.24C319.55,246.69,319.48,246.69,319.41,246.69z" fill="#e94a3e"/></g></g><g><g id="change4_1"><circle cx="330.47" cy="209.74" fill="#993326" r="4.09"/></g><g id="change4_2"><path d="M336.14,244.3c-0.44,1.76-0.93,3.5-1.45,5.23c-0.23,0.72-0.45,1.45-0.7,2.16 c-0.16-0.11-0.33-0.25-0.48-0.4c-1.61-1.57-1.65-4.17-0.07-5.78c0.6-0.63,1.37-1.01,2.17-1.15 C335.78,244.32,335.96,244.3,336.14,244.3z" fill="#993326"/></g><g id="change3_1"><path d="M339.75,222.88c-0.12,1.52-0.27,3.03-0.45,4.55c-0.22,1.88-0.48,3.73-0.79,5.6v0.01 c-0.61,3.8-1.41,7.55-2.36,11.25c-0.44,1.76-0.93,3.5-1.45,5.23c-0.38-0.55-0.49-1.26-0.22-1.93c0.44-1.09,0.82-2.17,1.15-3.24 c1.31-4.3,1.72-8.34,1.56-12.01c-0.08-2.2-0.4-4.27-0.82-6.19c-1.27-5.7-3.69-10.01-5.27-12.4c-0.82-1.23-1.41-1.94-1.52-2.08 c-0.74-0.86-0.63-2.14,0.23-2.88c0.86-0.74,2.14-0.63,2.88,0.23c0.11,0.14,0.74,0.89,1.6,2.16 C335.84,213.51,338.19,217.55,339.75,222.88z" fill="#e94a3e"/></g></g><g><g id="change4_6"><circle cx="204.19" cy="316.04" fill="#993326" r="4.09"/></g><g id="change4_7"><path d="M236.06,335.04c-0.12-0.03-0.26-0.03-0.38-0.03c-1.38,0.03-2.6,0.74-3.32,1.79 c-0.37,0.55-0.61,1.19-0.68,1.88c0.51-0.07,1.01-0.14,1.52-0.23c1.39-0.22,2.77-0.48,4.17-0.75c0.68-0.14,1.35-0.27,2.04-0.44 C238.75,336.02,237.5,335.15,236.06,335.04z" fill="#993326"/></g><g id="change3_4"><path d="M237.35,337.7c-1.39,0.27-2.77,0.53-4.17,0.75c-0.26-0.56-0.53-1.12-0.83-1.65 c-2.51-4.7-5.65-8.24-8.92-10.89c-1.53-1.23-3.07-2.27-4.59-3.14c-4.51-2.62-8.77-3.8-11.36-4.32 c-1.45-0.29-2.38-0.37-2.54-0.38c-1.13-0.1-1.97-1.08-1.88-2.21c0.1-1.12,1.08-1.97,2.2-1.88c0.18,0.01,1.15,0.1,2.66,0.4 c3.13,0.59,8.6,2.06,14.26,5.63c1.48,0.93,2.96,1.99,4.41,3.24c3.47,2.91,6.8,6.75,9.46,11.8 C236.52,335.89,236.96,336.77,237.35,337.7z" fill="#e94a3e"/></g></g><g><g id="change4_5"><circle cx="184.58" cy="327.18" fill="#993326" r="4.09"/></g><g id="change3_3"><path d="M199.6,335.89c1.01,1.17,1.99,2.46,2.91,3.87c-1.84-0.14-3.66-0.31-5.48-0.55 c-0.37-0.46-0.74-0.89-1.12-1.31c-3.32-3.71-6.79-6.08-9-7.36c-1.27-0.74-2.13-1.12-2.28-1.19c-1.04-0.45-1.52-1.67-1.07-2.7 c0.45-1.04,1.65-1.52,2.69-1.07c0.16,0.07,1.05,0.46,2.39,1.23C191.26,328.29,195.6,331.2,199.6,335.89z" fill="#e94a3e"/></g></g><g><g id="change4_27"><circle cx="141.82" cy="157.67" fill="#993326" r="4.09"/></g><g id="change4_28"><circle cx="165.36" cy="126.48" fill="#993326" r="4.09"/></g><g id="change3_17"><path d="M141.82,158.81c-0.06,0-0.13,0-0.19-0.01c-1.13-0.11-1.95-1.1-1.85-2.23c0.08-0.92,2.34-22.76,24.8-31.99 c1.05-0.43,2.24,0.07,2.67,1.12c0.43,1.05-0.07,2.24-1.12,2.67c-20.11,8.26-22.2,27.75-22.28,28.57 C143.75,158.01,142.86,158.81,141.82,158.81z" fill="#e94a3e"/></g></g><g><g id="change4_8"><circle cx="172.23" cy="165.84" fill="#993326" r="4.09"/></g><g id="change4_9"><circle cx="195.77" cy="134.66" fill="#993326" r="4.09"/></g><g id="change3_5"><path d="M172.23,166.98c-0.06,0-0.13,0-0.19-0.01c-1.13-0.1-1.96-1.1-1.85-2.23c0.08-0.92,2.34-22.76,24.8-31.99 c1.05-0.43,2.24,0.07,2.67,1.12c0.43,1.05-0.07,2.24-1.12,2.67c-20.19,8.29-22.26,28.37-22.28,28.57 C174.17,166.19,173.28,166.98,172.23,166.98z" fill="#e94a3e"/></g></g><g><g id="change4_3"><circle cx="199.86" cy="177.35" fill="#993326" r="4.09"/></g><g id="change4_4"><circle cx="223.4" cy="146.16" fill="#993326" r="4.09"/></g><g id="change3_2"><path d="M199.86,178.49c-0.06,0-0.13,0-0.19-0.01c-1.13-0.1-1.96-1.1-1.85-2.23c0.08-0.92,2.34-22.76,24.8-31.99 c1.05-0.43,2.24,0.07,2.67,1.12c0.43,1.05-0.07,2.24-1.12,2.67c-20.19,8.29-22.26,28.37-22.28,28.57 C201.8,177.69,200.91,178.49,199.86,178.49z" fill="#e94a3e"/></g></g><g><g id="change4_24"><circle cx="227.49" cy="190.53" fill="#993326" r="4.09"/></g><g id="change4_25"><circle cx="251.03" cy="159.34" fill="#993326" r="4.09"/></g><g id="change3_15"><path d="M227.49,191.67c-0.06,0-0.13,0-0.19-0.01c-1.13-0.11-1.95-1.1-1.85-2.23c0.08-0.92,2.34-22.76,24.8-31.99 c1.05-0.43,2.24,0.07,2.67,1.12c0.43,1.05-0.07,2.24-1.12,2.67c-20.11,8.26-22.2,27.75-22.28,28.57 C229.42,190.87,228.53,191.67,227.49,191.67z" fill="#e94a3e"/></g></g><g><g id="change4_29"><circle cx="265.99" cy="200.36" fill="#993326" r="4.09"/></g><g id="change4_30"><circle cx="275.7" cy="162.51" fill="#993326" r="4.09"/></g><g id="change3_18"><path d="M265.64,201.57c-0.87,0-1.68-0.56-1.95-1.44c-0.28-0.89-6.61-21.91,10.57-39.07c0.8-0.8,2.1-0.8,2.9,0 c0.8,0.8,0.8,2.1,0,2.9c-15.44,15.43-9.61,34.76-9.55,34.95c0.34,1.08-0.26,2.23-1.34,2.57 C266.05,201.54,265.84,201.57,265.64,201.57z" fill="#e94a3e"/></g></g><g><g id="change4_10"><circle cx="307.22" cy="196.09" fill="#993326" r="4.09"/></g><g id="change4_11"><circle cx="296.19" cy="158.61" fill="#993326" r="4.09"/></g><g id="change3_6"><path d="M306.49,197.6c-0.49,0-0.97-0.17-1.36-0.52c-0.69-0.62-16.89-15.43-10.93-38.97 c0.28-1.1,1.4-1.76,2.49-1.48c1.1,0.28,1.76,1.39,1.48,2.49c-5.36,21.16,9.54,34.78,9.69,34.91c0.84,0.75,0.92,2.05,0.16,2.89 C307.62,197.37,307.06,197.6,306.49,197.6z" fill="#e94a3e"/></g></g><g><g id="change4_26"><circle cx="309.66" cy="140.46" fill="#993326" r="4.09"/></g><g id="change3_16"><path d="M329.39,161.37c0.81,1.82,1.56,3.66,2.27,5.53c-2.95-1.16-6.71-3.03-10.45-5.95 c-1.43-1.13-2.87-2.42-4.26-3.87c-3.1-3.25-5.95-7.39-8.04-12.61c-0.44-1.08-0.83-2.21-1.2-3.4c-0.33-1.09,0.27-2.24,1.35-2.57 c1.08-0.33,2.23,0.27,2.57,1.35c0.36,1.13,0.74,2.21,1.16,3.24c1.5,3.7,3.41,6.77,5.53,9.33c1.39,1.69,2.85,3.14,4.34,4.41 C324.95,158.77,327.28,160.25,329.39,161.37z" fill="#e94a3e"/></g></g></g></svg>