<?xml version="1.0" encoding="UTF-8"?><svg xmlns="http://www.w3.org/2000/svg" xmlns:xlink="http://www.w3.org/1999/xlink" height="241.7" preserveAspectRatio="xMidYMid meet" version="1.0" viewBox="85.0 91.8 255.1 241.7" width="255.1" zoomAndPan="magnify"><g><g id="change1_1"><circle cx="135.92" cy="305.65" fill="#74c2ed" r="26.16"/></g><g id="change2_2"><circle cx="135.92" cy="305.65" fill="#ed6b44" r="9.7"/></g><g id="change1_2"><circle cx="194.9" cy="307.26" fill="#74c2ed" r="26.16"/></g><g id="change2_3"><circle cx="194.9" cy="307.26" fill="#ed6b44" r="9.7"/></g><g id="change1_3"><circle cx="253.65" cy="307.26" fill="#74c2ed" r="26.16"/></g><g id="change2_4"><circle cx="253.65" cy="307.26" fill="#ed6b44" r="9.7"/></g><g id="change1_4"><circle cx="314" cy="307.26" fill="#74c2ed" r="26.16"/></g><g id="change2_5"><circle cx="314" cy="307.26" fill="#ed6b44" r="9.7"/></g><g id="change1_5"><path d="M298.5,223.78c-9.62-5.19-20.69-6.87-31.01-10.48c-20.13-7.03-37.46-21.79-47.61-40.54 c-8.43-15.58-10.98-24.07-9.84-51.17c0-0.11,0.04-0.23,0.04-0.35c-0.02-2.8-0.05-5.4-0.11-7.82 c-0.28-12.04-10.09-21.65-22.13-21.65h-63.68c0.18,21.31,4.77,71.76-9.8,118.41c-13.46,43.1,3.67,58.93,33.96,58.44 c40.44-0.65,101.7-0.39,127.45-0.24c12.88,0.08,24.97-7.19,30.03-19.03C310.02,239.51,308.51,229.19,298.5,223.78z" fill="#74c2ed"/></g><g id="change2_6"><path d="M154.71,145.29L154.71,145.29c0,6.08,4.93,11.01,11.01,11.01h46.88c-1.83-6.08-2.7-12.73-2.8-22.03h-44.08 C159.64,134.28,154.71,139.21,154.71,145.29z" fill="#ed6b44"/></g><g id="change3_2"><path d="M219.88,172.77c-2.51-4.64-4.49-8.65-6.01-12.71c-6.38,7.62-12.7,15.29-18.85,23.08 c-14.28,18.12,10.34,31.87,25.1,38.49c21.05,9.43,42.92,11.2,64.32,1.65c2.06-0.92,4.07-1.93,6.05-3 c-7.5-2.71-15.45-4.33-23-6.97C247.36,206.28,230.03,191.52,219.88,172.77z" fill="#3e4166"/></g><g id="change3_3"><path d="M209.87,126.93c0.04-1.7,0.1-3.46,0.18-5.34c0-0.11,0.04-0.23,0.04-0.35c-0.02-2.8-0.05-5.4-0.11-7.82 c-0.28-12.04-10.09-21.65-22.13-21.65h-63.68c0.07,8.1,0.77,20.43,0.82,35.15H209.87z" fill="#3e4166"/></g><g id="change2_7"><path d="M192.49,256.45c-3.79-7.43-9.26-12.68-17.75-18.59c-7.58-5.28-14.83-11.04-21.68-17.23 c-5.03-4.55-10.2-10.13-10.13-16.91c0.12-11.45,15.01-19.23,13.8-30.63c-1.37-12.91-21.85-19.78-32.41-21.42 c-1.1,18.54-3.83,38.86-9.97,58.52c-13.46,43.1,3.67,58.93,33.96,58.44c14.36-0.23,31.34-0.35,48.43-0.39 C195.6,263.68,194.22,259.84,192.49,256.45z" fill="#ed6b44"/></g><g id="change3_4"><path d="M112.03,218.65c-8.72,36.72,8.07,50.44,36.29,49.99c1.89-0.03,3.84-0.06,5.82-0.08 C149.29,245.44,135.94,223.3,112.03,218.65z" fill="#3e4166"/></g><g id="change3_5"><path d="M87.87,305.65c0,0,14.38-48.57,61.39-48.94c34.7-0.28,107.71,0.09,136.63-0.02 c35.47-0.14,32.07,48.96,23.12,48.96H87.87z" fill="#3e4166"/></g><g id="change3_6"><path d="M87.87 305.65L85.04 315.52 104.85 315.52 110.73 305.65z" fill="#3e4166"/></g><g id="change3_1"><circle cx="168.9" cy="145.29" fill="#3e4166" r="5.57"/></g><g id="change3_7"><circle cx="185.15" cy="145.29" fill="#3e4166" r="5.57"/></g><g id="change2_1"><path d="M222.26,176.88c0,0-0.98,3.69-10.15,10.3c-3.04,2.19-3.75,6.43-1.56,9.47l0,0c2.2,3.07,6.49,3.75,9.52,1.51 c4.05-3,8.86-7.27,9.45-10.99L222.26,176.88z" fill="#ed6b44"/></g><g id="change2_8"><path d="M238.27,196.12c0,0,5.85,5.16,9.89,7.47l-5.57,7.98c-2.24,3.2-6.71,3.88-9.79,1.47l0,0 c-3.13-2.44-3.52-7.03-0.85-9.97L238.27,196.12z" fill="#ed6b44"/></g></g></svg>