<?xml version="1.0" encoding="UTF-8"?><svg xmlns="http://www.w3.org/2000/svg" xmlns:xlink="http://www.w3.org/1999/xlink" height="255.1" preserveAspectRatio="xMidYMid meet" version="1.0" viewBox="85.0 85.0 255.1 255.1" width="255.1" zoomAndPan="magnify"><g><g id="change1_1"><path d="M340.16,212.61c0,0.16,0,0.32-0.01,0.48c-0.04,14.9-2.65,29.21-7.42,42.49c-0.63,1.79-1.31,3.53-2.03,5.28 v0.01c-13.81,33.8-41.73,60.35-76.43,72.33c-4.45,1.54-9.01,2.85-13.67,3.87c-9.01,2.03-18.37,3.09-27.99,3.09 c-13.06,0-25.67-1.96-37.54-5.62c-3.01-0.92-5.97-1.95-8.87-3.09c-46.67-18.23-79.97-63.15-81.13-115.99 c-0.02-0.95-0.03-1.9-0.03-2.86c0-0.95,0.01-1.89,0.03-2.85c0.79-36.41,16.85-69.08,42.04-91.83c2.01-1.82,4.08-3.56,6.2-5.24 c21.77-17.31,49.33-27.65,79.3-27.65c9.61,0,18.97,1.06,27.97,3.08c4.67,1.04,9.23,2.34,13.7,3.89 c36.27,12.52,65.12,40.95,78.23,76.94v0.01c1.01,2.76,1.92,5.56,2.74,8.41c2.7,9.41,4.33,19.27,4.78,29.44 C340.12,208.73,340.16,210.67,340.16,212.61z" fill="#ed6b44"/></g><g id="change2_1"><path d="M309.93,203.1c-0.11-1.89-0.26-3.78-0.44-5.65c-4.01-42.13-24.63-79.49-55.22-105.44 c-4.46-1.55-9.03-2.86-13.7-3.89c35.49,25.29,59.76,65.38,63.72,111.18c0.16,1.82,0.29,3.64,0.37,5.47 c0.14,2.6,0.2,5.21,0.2,7.83c0,3.33-0.11,6.62-0.32,9.9c-0.12,1.88-0.27,3.76-0.46,5.63c-0.65,6.41-1.7,12.71-3.12,18.86 c-0.44,1.89-0.91,3.79-1.41,5.65c-9.38,34.51-30.58,64.19-58.96,84.42c4.67-1.03,9.22-2.33,13.67-3.87 c24.58-20.85,42.72-49.07,50.99-81.21c0.46-1.79,0.89-3.57,1.28-5.38c1.44-6.56,2.48-13.26,3.07-20.09 c0.17-1.88,0.3-3.78,0.4-5.68c0.14-2.72,0.21-5.46,0.21-8.22C310.22,209.42,310.12,206.25,309.93,203.1z" fill="#333332"/></g><g id="change2_2"><path d="M340.16,212.61c0,0.16,0,0.32-0.01,0.48c-8.51,5.25-18.78,9.75-30.54,13.42c-1.81,0.56-3.65,1.1-5.52,1.63 c-23.53,6.58-52.43,10.07-84.69,10.07c-9.68,0-19.68-0.31-29.92-0.95c-47.22-2.95-85.33-14.76-104.41-21.79 c-0.02-0.95-0.03-1.9-0.03-2.86c0-0.95,0.01-1.89,0.03-2.85c17.97,6.77,56.52,19.13,104.74,22.15 c44.78,2.8,84.58-0.64,114.74-9.41c1.86-0.54,3.68-1.1,5.46-1.68c11.75-3.82,21.86-8.51,30.01-14.01 C340.12,208.73,340.16,210.67,340.16,212.61z" fill="#333332"/></g><g id="change2_3"><path d="M335.24,177.38c-2.18,5.13-5.16,9.9-8.9,14.09c-4.75,5.33-10.3,9.23-16.4,11.63 c-1.71,0.67-3.48,1.23-5.26,1.67c-3.19,0.77-6.48,1.17-9.87,1.17c-4.58,0-9.31-0.73-14.08-2.19 c-20.29-6.24-35.52-21.32-50.26-35.91c-8.54-8.46-17.38-17.21-26.94-23.87c-24.92-17.36-52.16-26.45-76.41-26.03 c2.01-1.82,4.08-3.56,6.2-5.24c23.72,1.08,49.56,10.37,73.27,26.89c9.94,6.92,18.94,15.84,27.65,24.46 c14.27,14.13,29.04,28.74,48.06,34.59c7.64,2.35,15.13,2.54,22,0.67c1.78-0.48,3.51-1.1,5.2-1.85 c4.75-2.13,9.09-5.33,12.85-9.54c4.85-5.44,8.27-11.96,10.15-18.94C333.5,171.73,334.41,174.54,335.24,177.38z" fill="#333332"/></g><g id="change2_4"><path d="M332.73,255.58c-0.63,1.79-1.31,3.53-2.03,5.28c-7.2-6.22-16.02-9.26-25.44-8.87v0.01 c-1.87,0.07-3.78,0.29-5.7,0.65c-1.69,0.3-3.39,0.72-5.09,1.24c-19.02,5.85-33.79,20.47-48.06,34.6 c-8.71,8.61-17.71,17.53-27.65,24.45c-14.1,9.83-28.96,17.1-43.68,21.6c-3.01-0.92-5.97-1.95-8.87-3.09 c16.51-4,33.48-11.75,49.49-22.9c9.56-6.66,18.39-15.41,26.94-23.87c14.73-14.58,29.97-29.67,50.26-35.91 c2.72-0.83,5.41-1.42,8.08-1.78c1.88-0.26,3.73-0.39,5.57-0.4C316.15,246.49,325.15,249.56,332.73,255.58z" fill="#333332"/></g><g fill="#e9512c" id="change3_1"><path d="M170.18,289.18c1.93,0,1.93-3,0-3C168.25,286.18,168.25,289.18,170.18,289.18L170.18,289.18z" fill="inherit"/><path d="M159.88,282.86c1.93,0,1.93-3,0-3C157.95,279.86,157.94,282.86,159.88,282.86L159.88,282.86z" fill="inherit"/><path d="M169.19,277.21c1.93,0,1.93-3,0-3C167.26,274.21,167.25,277.21,169.19,277.21L169.19,277.21z" fill="inherit"/><path d="M152.89,268.89c-0.11,0-0.22,0-0.33,0c-0.78,0-1.54,0.69-1.5,1.5c0.04,0.81,0.66,1.5,1.5,1.5 c0.11,0,0.22,0,0.33,0c0.78,0,1.54-0.69,1.5-1.5C154.36,269.58,153.73,268.89,152.89,268.89L152.89,268.89z" fill="inherit"/><path d="M161.87,267.57c1.93,0,1.93-3,0-3C159.94,264.57,159.94,267.57,161.87,267.57L161.87,267.57z" fill="inherit"/><path d="M142.58,260.92c1.93,0,1.93-3,0-3C140.65,257.92,140.65,260.92,142.58,260.92L142.58,260.92z" fill="inherit"/><path d="M132.61,252.6c1.93,0,1.93-3,0-3C130.68,249.6,130.67,252.6,132.61,252.6L132.61,252.6z" fill="inherit"/><path d="M181.82,287.52c1.93,0,1.93-3,0-3C179.89,284.52,179.89,287.52,181.82,287.52L181.82,287.52z" fill="inherit"/><path d="M177.5,295.17c1.93,0,1.93-3,0-3C175.57,292.17,175.57,295.17,177.5,295.17L177.5,295.17z" fill="inherit"/><path d="M204.1,301.15c1.93,0,1.93-3,0-3C202.17,298.15,202.17,301.15,204.1,301.15L204.1,301.15z" fill="inherit"/><path d="M218.07,299.49c1.93,0,1.93-3,0-3C216.14,296.49,216.14,299.49,218.07,299.49L218.07,299.49z" fill="inherit"/><path d="M229.38,301.49c1.93,0,1.93-3,0-3C227.45,298.49,227.44,301.49,229.38,301.49L229.38,301.49z" fill="inherit"/><path d="M142.08,267.73c0,0.11,0,0.22,0,0.33c0,0.78,0.69,1.54,1.5,1.5c0.81-0.04,1.5-0.66,1.5-1.5 c0-0.11,0-0.22,0-0.33c0-0.78-0.69-1.54-1.5-1.5C142.77,266.27,142.08,266.89,142.08,267.73L142.08,267.73z" fill="inherit"/><path d="M150.39,258.09c0,0.11,0,0.22,0,0.33c0,0.78,0.69,1.54,1.5,1.5c0.81-0.04,1.5-0.66,1.5-1.5 c0-0.11,0-0.22,0-0.33c0-0.78-0.69-1.54-1.5-1.5C151.08,256.62,150.39,257.25,150.39,258.09L150.39,258.09z" fill="inherit"/><path d="M127.29,241.63c1.93,0,1.93-3,0-3C125.36,238.63,125.35,241.63,127.29,241.63L127.29,241.63z" fill="inherit"/><path d="M192.3,291.34c0-0.11,0-0.22,0-0.33c0-0.78-0.69-1.54-1.5-1.5c-0.81,0.04-1.5,0.66-1.5,1.5 c0,0.11,0,0.22,0,0.33c0,0.78,0.69,1.54,1.5,1.5C191.61,292.8,192.3,292.18,192.3,291.34L192.3,291.34z" fill="inherit"/></g></g></svg>